<?xml version="1.0" encoding="utf-8"?>
<!-- Generator: Adobe Illustrator 27.4.1, SVG Export Plug-In . SVG Version: 6.00 Build 0)  -->
<svg version="1.1" id="Layer_1" xmlns="http://www.w3.org/2000/svg" xmlns:xlink="http://www.w3.org/1999/xlink" x="0px" y="0px"
	 viewBox="0 0 777.2 177" style="enable-background:new 0 0 777.2 177;" xml:space="preserve">
<style type="text/css">
	.st0{fill:#FFFFFF;}
</style>
<g>
	<path class="st0" d="M144.8,43V31.9h4v-3.2h-11.7v3.2h4V43H144.8L144.8,43z M167.2,43V28.7h-3.7v5.4h-5.9v-5.4h-3.7V43h3.7v-5.7
		h5.9V43H167.2L167.2,43z M183.7,43v-3.2h-6.8v-2.4h6.6v-3.2h-6.6v-2.2h6.8v-3.2h-10.5V43L183.7,43L183.7,43z M212,43l-5.4-14.3H202
		L196.6,43h4.2l0.7-2h5.6l0.7,2H212L212,43z M206.1,37.8h-3.6l1.8-5.4L206.1,37.8L206.1,37.8z M222.4,43.3c4.6,0,6.7-2.5,6.7-6v-8.5
		h-3.7v8.4c0,1.7-1,2.9-3,2.9c-2,0-3-1.2-3-2.9v-8.4h-3.7v8.5C215.7,40.7,217.9,43.3,222.4,43.3L222.4,43.3z M240.5,43.3
		c3.8,0,5.9-1.9,5.9-4.8c0-5.3-8.1-4-8.1-5.8c0-0.6,0.5-1,1.5-1c1.4,0,3,0.5,4.2,1.5l2-2.6c-1.5-1.3-3.5-2-5.8-2
		c-3.7,0-5.7,2.1-5.7,4.5c0,5.5,8.1,3.9,8.1,5.9c0,0.7-0.8,1.2-2,1.2c-1.9,0-3.5-0.9-4.6-1.9l-1.9,2.8
		C235.6,42.4,237.6,43.3,240.5,43.3L240.5,43.3z M258,43V31.9h4v-3.2h-11.7v3.2h4V43H258L258,43z M279.4,43l-2.9-5.2
		c1.3-0.5,2.8-1.8,2.8-4.3c0-2.6-1.8-4.8-5-4.8h-7.1V43h3.7v-4.8h1.9l2.4,4.8H279.4L279.4,43z M273.8,35h-2.9V32h2.9
		c1,0,1.8,0.6,1.8,1.5C275.6,34.5,274.8,35,273.8,35L273.8,35z M298.6,43l-5.4-14.3h-4.6L283.2,43h4.2l0.7-2h5.6l0.7,2H298.6
		L298.6,43z M292.7,37.8h-3.6l1.8-5.4L292.7,37.8L292.7,37.8z M312.5,43v-3.2h-5.7V28.7h-3.7V43H312.5L312.5,43z M321.5,43V28.7
		h-3.7V43H321.5L321.5,43z M341.4,43L336,28.7h-4.6L326,43h4.2l0.7-2h5.6l0.7,2H341.4L341.4,43z M335.5,37.8h-3.6l1.8-5.4
		L335.5,37.8L335.5,37.8z M359.1,43V28.7h-3.7v7.9l-5.8-7.9h-3.8V43h3.7v-8.3l6,8.3H359.1L359.1,43z"/>
	<path class="st0" d="M89.7,133.7h4.5L121,37.8c0.9-3.3,2.2-5.1,3.3-6.4l2.8-2.3v-0.6h-13.9v0.6l3.1,2.8c1.7,1.5,1.9,2.6,1.9,4.2
		c0,2.5-2,9.7-2.5,10.9l-17.5,61.2h-0.3l-18.7-68c-0.3-1.2-1-4.1-1-5.2s0.2-2.2,1.7-3.5l2.9-2.3v-0.6H58.5v0.6l3.2,3
		c1.3,1.5,1.7,2.9,2.5,5.8l4.6,17.4l-15.2,52.8h-0.3l-18.7-68c-0.3-1.2-1-4.1-1-5.2s0.2-2.2,1.7-3.5l2.9-2.3v-0.6H14v0.6l3.2,3
		c1.3,1.5,1.7,2.9,2.5,5.8l25.5,95.7h4.5L70,61.3h0.4L89.7,133.7L89.7,133.7z"/>
	<path class="st0" d="M170.8,92c0-25.7-12.2-41.5-29.8-41.5c-17.4,0-30.4,18.6-30.4,42.3c0,28.5,12.3,41.5,29.3,41.5
		C156.3,134.3,170.8,118.2,170.8,92L170.8,92z M145.9,132.1c-11.1,1.6-16.2-12.8-19.7-37.3c-2.9-20.9-2.4-40.7,8.7-42.2
		c10.8-1.5,17.1,15.2,20.3,38.2C158.4,113.6,157.5,130.5,145.9,132.1L145.9,132.1z"/>
	<path class="st0" d="M169.1,133h23.7v-0.7l-3.6-3.6c-1-0.8-1.3-1.3-1.3-3.1V66.9c2.1-2.8,6.2-6.7,12.3-6.7c8.6,0,11,6.9,11,15v50.5
		c0,1.8-0.2,2.3-1.2,3.1l-3.6,3.6v0.7h23.7v-0.7l-3.6-3.6c-1-0.8-1.3-1.3-1.3-3.1V74c0-2.3-0.2-4.4-0.5-6.6
		c3.4-4.1,7.7-7.2,12.7-7.2c8.7,0,11.2,6.9,11.2,15v50.5c0,1.8-0.2,2.3-1.1,3.1l-3.6,3.6v0.7h23.7v-0.7l-3.6-3.6
		c-1-0.8-1.3-1.3-1.3-3.1V71c0-14-5.9-20.4-16.9-20.4c-8.4,0-16.1,7.2-21.1,14.8c-1.6-10.4-7.2-14.8-16.3-14.8
		c-8.7,0-16.3,7.7-20.4,14v-14h-0.7l-18.6,8.1v0.7l3,2.1c1.5,1.1,2.3,2.5,2.3,5.3v58.9c0,1.8-0.2,2.3-1.1,3.1l-3.6,3.6L169.1,133
		L169.1,133z"/>
	<path class="st0" d="M315.8,84.5c0-19.6-8.2-33.7-22.2-33.7c-14.3,0-28.3,18.4-28.3,43.9c0,25.7,12.2,39.6,27.1,39.6
		c11,0,19.1-8.4,23-19.6l-1.3-0.5c-3,5.4-7.1,10.9-14.8,10.9c-17.9,0-20.2-25-20.2-37.5v-3.1L315.8,84.5L315.8,84.5z M303,76.9
		c0,2.3-0.5,5.8-3.8,5.8h-19.9c0.7-12.8,4.3-29.9,13.5-29.9C300.5,52.7,303,66.5,303,76.9L303,76.9z"/>
	<path class="st0" d="M314.8,133h23.7v-0.7l-3.6-3.6c-1-0.8-1.3-1.3-1.3-3.1V66.9c2.1-2.8,6.2-6.7,12.2-6.7c8.7,0,11.2,6.9,11.2,15
		v50.5c0,1.8-0.2,2.3-1.1,3.1l-3.6,3.6v0.7h23.7v-0.7l-3.6-3.6c-1-0.8-1.3-1.3-1.3-3.1V71c0-14-5.9-20.4-16.9-20.4
		c-8.7,0-16.1,7.6-20.4,14v-14h-0.7l-18.6,8.1v0.7l3,2.1c1.5,1.1,2.3,2.3,2.3,5.3v58.9c0,1.8-0.2,2.3-1.1,3.1l-3.6,3.6L314.8,133
		L314.8,133z"/>
	<path class="st0" d="M374.6,62.9c13.5-8.4,15.7-16.8,15.7-24.9c0-6.9-3.9-10.6-8.3-10.6c-4.8,0-7.8,4.4-7.8,8.3s2.1,6.2,4.4,7.4
		c2.1,1,5.1,2.2,5.1,5.2c0,5.5-4.4,8.5-10.3,13.1L374.6,62.9L374.6,62.9z"/>
	<path class="st0" d="M403.5,134.3c12.8,0,23.7-8.5,23.7-22.7c0-10.9-8.2-17.3-14.6-22.7l-7.1-6.4c-6.2-5.3-11.4-10-11.4-17.1
		c0-6.1,2.8-12.7,10.7-12.7c5.8,0,15.2,7.1,20.4,18.6l1.9,0.2l-4.3-18.1c-3.6-1.5-8.9-2.8-15.6-2.8c-13.6,0-23.5,9.5-23.5,23.2
		c0,10,5.9,15.5,13.5,21.2l4.6,4c6.6,4.6,13.8,10.5,13.8,19.7c0,8.9-5.3,13.5-12.3,13.5c-9,0-17.7-12.6-21.8-22.5l-3.9,0.2l6.1,19.6
		C389.3,132.8,395.7,134.3,403.5,134.3L403.5,134.3z"/>
	<path class="st0" d="M506.5,133.7h4.5l26.8-95.9c0.9-3.3,2.2-5.1,3.3-6.4l2.8-2.3v-0.6H530v0.6l3,2.8c1.7,1.5,1.9,2.6,1.9,4.2
		c0,2.5-2,9.7-2.5,10.9l-17.5,61.2h-0.3l-18.7-68c-0.3-1.2-1-4.1-1-5.2s0.1-2.2,1.7-3.5l2.9-2.3v-0.6h-24.2v0.6l3.2,3
		c1.3,1.5,1.7,2.9,2.5,5.8l4.6,17.4l-15.2,52.8h-0.3l-18.7-68c-0.3-1.2-1-4.1-1-5.2s0.1-2.2,1.7-3.5l2.9-2.3v-0.6h-24.2v0.6l3.2,3
		c1.3,1.5,1.7,2.9,2.5,5.8l25.5,95.7h4.5l20.3-72.4h0.4L506.5,133.7L506.5,133.7z"/>
	<path class="st0" d="M577.6,84.5c0-19.6-8.2-33.7-22.2-33.7c-14.3,0-28.3,18.4-28.3,43.9c0,25.7,12.2,39.6,27.1,39.6
		c11,0,19.1-8.4,23-19.6l-1.3-0.5c-3,5.4-7.1,10.9-14.8,10.9c-17.9,0-20.2-25-20.2-37.5v-3.1L577.6,84.5L577.6,84.5z M564.8,76.9
		c0,2.3-0.5,5.8-3.8,5.8h-19.9c0.7-12.8,4.3-29.9,13.5-29.9C562.3,52.7,564.8,66.5,564.8,76.9L564.8,76.9z"/>
	<path class="st0" d="M630,84.5c0-19.6-8.2-33.7-22.2-33.7c-14.3,0-28.3,18.4-28.3,43.9c0,25.7,12.2,39.6,27.1,39.6
		c11,0,19.1-8.4,23-19.6l-1.3-0.5c-3,5.4-7.1,10.9-14.8,10.9c-17.9,0-20.2-25-20.2-37.5v-3.1L630,84.5L630,84.5z M617.2,76.9
		c0,2.3-0.5,5.8-3.8,5.8h-19.9c0.7-12.8,4.3-29.9,13.5-29.9C614.8,52.7,617.2,66.5,617.2,76.9L617.2,76.9z"/>
	<path class="st0" d="M731.5,61.1c-0.5-1.6-0.7-2.3-0.7-3.1c0-1.1,1-2.1,1.8-3l2.8-2.5v-0.7H711v0.7l4,3.6c0.8,0.7,1.2,1.5,1.5,2.5
		l22.2,77.3l-3,8.9c-1.5,5.3-5.1,14.8-10,14.8c-4.8,0-7.2-6.1-10.4-6.1c-3,0-5.4,2.5-5.4,7.7c0,5.9,2.6,8.1,8.1,8.1
		c13,0,18.6-18.6,22.2-31.7L762,58.6c0.3-1.1,1-2,1.5-2.3l4-3.8v-0.7h-13v0.7l3.1,2.8c1,1,1.5,1.6,1.5,3c0,1.8-1.2,6.1-1.6,8.1
		l-11.8,40.8H745L731.5,61.1L731.5,61.1z"/>
	<path class="st0" d="M683.3,122.9L662,81l14.3-16.1c4.6-5.6,7.7-8.9,10.7-11l1.6-1.3v-0.7h-17.3v0.7l4,3.6c0.8,0.8,1.5,1.6,1.5,2.3
		c0,1.3-1,2.8-3.3,5.6l-26.8,33.5V54.8V43.6v-20H646l-18.6,7.9v0.7l3,2.1c1.5,1.3,2.3,2.6,2.3,5.3v3.9v11.2v71
		c0,1.8-0.2,2.3-1.2,3.1l-3.6,3.6v0.7h23.7v-0.7l-3.6-3.6c-1-0.8-1.3-1.3-1.3-3.1v-24l5.4-6.4l18.1,31.7c0.7,1.1,1,2,1,2.5
		c0,0.5-0.3,0.8-1.2,1.6l-1.3,1.3v0.7h21.7v-0.7l-3.3-3C685.8,127.9,684.2,124.6,683.3,122.9L683.3,122.9z"/>
	<path class="st0" d="M713.3,133v-0.7l-3.6-3.6c-1-0.8-1.3-1.3-1.3-3.1V56.3V45.1V23.6h-0.7l-18.6,7.9v0.7l3,2.1
		c1.5,1.3,2.3,2.6,2.3,5.3v5.1v11.2v69.7c0,1.8-0.2,2.3-1.2,3.1l-3.6,3.6v0.7L713.3,133L713.3,133z"/>
</g>
</svg>
