<?xml version="1.0" encoding="utf-8"?>
<!-- Generator: Adobe Illustrator 27.4.1, SVG Export Plug-In . SVG Version: 6.00 Build 0)  -->
<svg version="1.1" id="Layer_1" xmlns="http://www.w3.org/2000/svg" xmlns:xlink="http://www.w3.org/1999/xlink" x="0px" y="0px"
	 viewBox="0 0 206 44" style="enable-background:new 0 0 206 44;" xml:space="preserve">
<style type="text/css">
	.st0{fill:#FFFFFF;}
</style>
<path class="st0" d="M8.6,9.3c-0.8,0-1.7,0.2-2.4,0.5c-0.8,0.3-1.5,0.8-2,1.4V0L0,2.1v24.3h4.1v-0.7c1.3,0.8,2.9,1.2,4.5,1.2
	c1.2,0,2.3-0.2,3.4-0.7s2.1-1.1,2.9-1.9c0.8-0.8,1.5-1.8,1.9-2.9c0.4-1.1,0.7-2.2,0.6-3.4C17.4,13,13.6,9.3,8.6,9.3z M11,24.5
	c-0.4,0.4-0.8,0.7-1.3,1c-0.5,0.2-1,0.4-1.6,0.4c-2.8,0-4-2.8-4-5.6V13c1.1-1.6,2.7-2.6,4.4-2.6c4.2,0,4.7,5.7,4.7,7.5
	C13.3,20.6,12.5,23,11,24.5L11,24.5z"/>
<path class="st0" d="M32.4,22.7c-0.6,1.7-1.6,3-3.4,3s-3.6-1.4-4.5-3.8l11.1-4.4v-0.2c0-4.6-3.2-7.9-7.6-7.9c-5,0-8.7,3.7-8.7,8.7
	c0,5,3.8,8.9,8.7,8.9c1.7,0,3.3-0.4,4.7-1.3c1.4-0.9,2.5-2.1,3.2-3.7l0.1-0.2l-0.3-0.2c-0.3-0.2-0.6-0.3-1-0.4c-0.3,0-0.7,0-1,0.1
	c-0.3,0.1-0.6,0.3-0.9,0.5C32.7,22,32.5,22.3,32.4,22.7z M23.6,17.4c0-4.6,2.2-7.1,4.4-7.1c2.3,0,3.4,1.3,3.4,3.9
	c0,3.6-1.7,4.3-4.9,5.6l-2.5,1C23.8,19.7,23.6,18.6,23.6,17.4z"/>
<path class="st0" d="M67.6,9.8v8c0,3.7-2.1,7.8-4.8,7.8c-1.3,0-2.7-0.6-2.7-5V9.8h-4.1v10.3c0,4.2,2.3,6.8,6.1,6.8
	c2.4,0,4.3-1.4,5.5-3.9v3.4h4.1L71.6,9.8H67.6z"/>
<path class="st0" d="M118.4,26.4V16.1c0-4.2-2.3-6.8-6.1-6.8c-2.4,0-4.3,1.4-5.5,3.9V0l-4.1,2.1V7c-0.6,1.2-1.1,2.4-1.5,3.7
	l-4.8,11.5L90.8,9.9l0-0.1H80.4V3.5h-1.1l0,0.3c-0.5,4-1.7,6-3.8,6h-1.1v0.9l1.8,0.1v10.8c0,3.1,1.9,5.2,4.7,5.2
	c2.4,0,4.6-3.3,5.9-5.9l-0.3-0.2c-0.3-0.2-0.7-0.3-1-0.2c-0.4,0-0.7,0.1-1,0.3c-0.3,0.2-0.6,0.4-0.8,0.7c-0.2,0.3-0.3,0.6-0.4,1
	c-0.3,2-0.9,3.3-1.8,3.3c-0.8,0-1.1-0.8-1.1-2.8V10.9l6.3-0.1l6.9,15.3l1.3-0.6c-1.3,2.9-3.6,3.2-7.1,2.8l-0.1,4.1
	c3.8,0,7-3.3,8.4-6.6l5.6-13.4c0.1-0.2,0.1-0.3,0.2-0.4c0.1-0.1,0.1-0.2,0.2-0.3l0,0c0.1-0.2,0.3-0.5,0.5-0.7
	c0.4-0.5,0.8-0.8,1.3-1.1c0.3-0.2,0.7-0.3,1-0.5h0c0,0-2.4,2.5-2.3,4.5v12.6h4.1v-8c0-3.7,2-7.8,4.8-7.8c1.3,0,2.7,0.6,2.7,5v10.8
	H118.4z"/>
<path class="st0" d="M169.8,9.8l-5.2,12.4l-5.5-12.4h-4.5l7.8,17.2l2.1-1.1l6.8-16.1H169.8z"/>
<path class="st0" d="M199.4,9.3c-2.4,0-4.3,1.4-5.5,3.9V9.1l-4.1,2v15.3h4.1v-8c0-3.7,2-7.8,4.8-7.8c1.3,0,2.7,0.6,2.7,5v10.8h4.1
	V16.1C205.5,11.8,203.2,9.3,199.4,9.3z"/>
<path class="st0" d="M45.3,9.3c-2.2,0-4.4,0.9-5.6,2.4c-0.9,1.1-1.1,3.1-0.9,4.5l1.8-0.7c1.1-0.4,1.2-1.7,1.3-2.8
	c0-0.3,0.1-0.6,0.2-0.9c0.5-0.9,1.6-1.4,3-1.4c1.9,0,3.2,0.8,3.2,2c0,1.3-1.8,2.2-4,3.1c-3,1.4-6.4,2.9-6.4,6.5
	c0,2.9,2.7,4.8,5.2,4.8c3,0,4.7-2.1,5.5-3.4v2.9h4.1V14.8C52.7,11,49,9.3,45.3,9.3z M48.6,18.6c0,2.2-0.5,6-4.1,6
	c-1.5,0-2.2-1.5-2.2-3c0-2.3,2.1-3.9,4-5.4c0.8-0.6,1.6-1.2,2.3-1.9V18.6z"/>
<path class="st0" d="M133.6,22.7c-0.6,1.7-1.6,3-3.4,3c-1.8,0-3.6-1.4-4.5-3.8l11.1-4.4v-0.2c0-4.6-3.2-7.9-7.6-7.9
	c-5,0-8.7,3.7-8.7,8.7c0,5,3.8,8.9,8.7,8.9c1.7,0,3.3-0.4,4.7-1.3s2.5-2.1,3.2-3.6l0.1-0.2l-0.3-0.2c-0.3-0.2-0.6-0.3-1-0.4
	c-0.3,0-0.7,0-1,0.1c-0.3,0.1-0.6,0.3-0.9,0.5C133.9,22,133.8,22.3,133.6,22.7z M124.9,17.4c0-4.6,2.2-7.1,4.4-7.1
	c2.3,0,3.4,1.3,3.4,3.9c0,3.6-1.7,4.3-4.9,5.6l-2.5,1C125,19.7,124.8,18.6,124.9,17.4z"/>
<path class="st0" d="M184,22.7c-0.6,1.7-1.6,3-3.4,3s-3.6-1.4-4.5-3.8l11.1-4.4v-0.2c0-4.6-3.2-7.9-7.6-7.9c-5,0-8.7,3.7-8.7,8.7
	c0,5,3.8,8.9,8.7,8.9c1.7,0,3.3-0.4,4.7-1.3c1.4-0.9,2.5-2.1,3.2-3.6l0.1-0.2l-0.3-0.2c-0.3-0.2-0.6-0.3-1-0.4c-0.3,0-0.7,0-1,0.1
	c-0.3,0.1-0.6,0.3-0.9,0.5C184.3,22,184.1,22.3,184,22.7z M175.2,17.4c0-4.6,2.2-7.1,4.4-7.1c2.3,0,3.4,1.3,3.4,3.9
	c0,3.6-1.7,4.3-4.9,5.6l-2.5,1C175.3,19.7,175.2,18.6,175.2,17.4z"/>
<path class="st0" d="M146.3,9.3c-2.2,0-4.4,0.9-5.6,2.4c-0.9,1.1-1.1,3.1-0.9,4.5l1.8-0.7c1.1-0.4,1.2-1.7,1.3-2.8
	c0-0.3,0.1-0.6,0.2-0.9c0.5-0.9,1.6-1.4,3-1.4c1.9,0,3.2,0.8,3.2,2c0,1.3-1.8,2.2-4,3.1c-3,1.4-6.4,2.9-6.4,6.5
	c0,2.9,2.7,4.8,5.2,4.8c3,0,4.7-2.1,5.5-3.4v2.9h4.1V14.8C153.7,11,150,9.3,146.3,9.3z M149.6,18.6c0,2.2-0.5,6-4.1,6
	c-1.5,0-2.2-1.5-2.2-3c0-2.3,2.1-3.9,4-5.4c0.8-0.6,1.6-1.2,2.3-1.9V18.6z"/>
<path class="st0" d="M43.7,37h2.7c1.6,0,2.5,0.9,2.5,2.3c0,0.4-0.1,0.8-0.3,1.2c-0.2,0.4-0.5,0.6-0.9,0.8l1.5,2.7h-1.6l-1.3-2.5
	h-1.1v2.5h-1.5V37z M46.1,40.3c0.8,0,1.2-0.3,1.2-1s-0.4-1.1-1.3-1.1h-1v2.1H46.1z"/>
<path class="st0" d="M51,37h4.7v1.2h-3.2v1.7h3V41h-3v1.7h3.2v1.2H51V37z"/>
<path class="st0" d="M60.8,42.2L60.8,42.2l1.7-5.3h1.6l-2.4,6.9h-1.9L57.5,37h1.6L60.8,42.2z"/>
<path class="st0" d="M67.4,43.9h-1.5V37h1.5V43.9z"/>
<path class="st0" d="M69.8,37h4.7v1.2h-3.2v1.7h3V41h-3v1.7h3.2v1.2h-4.7V37z"/>
<path class="st0" d="M76.2,37h1.6l1.1,4.8H79l1.3-4.8h1.4l1.3,4.8h0.1l1.1-4.8h1.6l-2,6.9h-1.4L81,39.4h-0.1l-1.3,4.5h-1.4L76.2,37z
	"/>
<path class="st0" d="M89.8,38.1c-0.7,0-1.1,0.3-1.1,0.8c0,0.4,0.5,0.7,1.1,0.9l0.6,0.2c1.2,0.3,2.1,0.9,2.1,2c0,1.3-1,2.1-2.7,2.1
	c-1.7,0-2.8-0.8-2.8-2.3h1.4c0,0.7,0.6,1,1.4,1c0.8,0,1.2-0.3,1.2-0.9c0-0.5-0.4-0.7-1.2-0.9l-0.8-0.2c-1.2-0.3-1.9-0.9-1.9-1.9
	c0-1.3,1.1-2.1,2.6-2.1c1.5,0,2.6,0.9,2.6,2.1H91C90.9,38.4,90.5,38.1,89.8,38.1z"/>
<path class="st0" d="M97.4,42.1c0-0.8,0.5-1.3,1.3-1.8c-0.4-0.4-0.6-1-0.7-1.6c0-0.2,0-0.5,0.1-0.7c0.1-0.2,0.2-0.4,0.4-0.6
	c0.2-0.2,0.4-0.3,0.6-0.4c0.2-0.1,0.5-0.1,0.7-0.1c1.1,0,1.8,0.7,1.8,1.6c0,0.3-0.1,0.6-0.3,0.9c-0.2,0.3-0.4,0.5-0.7,0.7l-0.4,0.3
	l1.1,1.3c0.2-0.4,0.3-0.8,0.3-1.2h1.2c0,0.8-0.2,1.5-0.6,2.2l1,1.2h-1.5l-0.4-0.5c-0.5,0.4-1.1,0.6-1.8,0.6
	C98.3,44,97.4,43.2,97.4,42.1z M99.4,41.1L99.4,41.1c-0.2,0.1-0.3,0.2-0.4,0.4c-0.1,0.1-0.2,0.3-0.2,0.5c0,0.1,0,0.2,0.1,0.4
	c0.1,0.1,0.1,0.2,0.2,0.3c0.1,0.1,0.2,0.1,0.3,0.2c0.1,0,0.2,0,0.4,0c0.3,0,0.6-0.1,0.9-0.3L99.4,41.1z M100,39.3
	c0.1-0.1,0.3-0.2,0.4-0.3c0.1-0.1,0.1-0.3,0.1-0.4c0-0.1,0-0.2-0.1-0.2c0-0.1-0.1-0.1-0.1-0.2c-0.1-0.1-0.1-0.1-0.2-0.1
	c-0.1,0-0.2,0-0.2,0c-0.1,0-0.2,0-0.3,0c-0.1,0-0.2,0.1-0.2,0.1c-0.1,0.1-0.1,0.1-0.1,0.2c0,0.1-0.1,0.2-0.1,0.3
	c0,0.3,0.2,0.7,0.4,0.9L100,39.3z"/>
<path class="st0" d="M108.1,37h2.7c1.6,0,2.5,0.9,2.5,2.3c0,0.4-0.1,0.8-0.3,1.2c-0.2,0.4-0.5,0.6-0.9,0.8l1.5,2.7H112l-1.3-2.5
	h-1.1v2.5h-1.5V37z M110.6,40.3c0.8,0,1.2-0.3,1.2-1s-0.4-1.1-1.3-1.1h-1v2.1H110.6z"/>
<path class="st0" d="M115.5,37h4.7v1.2h-3.2v1.7h3V41h-3v1.7h3.2v1.2h-4.7V37z"/>
<path class="st0" d="M121.9,37h1.6l1.1,4.8h0.1l1.3-4.8h1.4l1.3,4.8h0.1l1.1-4.8h1.6l-2,6.9H128l-1.3-4.5h-0.1l-1.3,4.5h-1.4
	L121.9,37z"/>
<path class="st0" d="M132.2,43.9l2.4-6.9h1.9l2.4,6.9h-1.6l-0.5-1.6h-2.5l-0.5,1.6H132.2z M136.5,41.2l-0.9-2.6h-0.1l-0.9,2.6H136.5
	z"/>
<path class="st0" d="M140.7,37h2.7c1.6,0,2.5,0.9,2.5,2.3c0,0.4-0.1,0.8-0.3,1.2c-0.2,0.4-0.5,0.6-0.9,0.8l1.5,2.7h-1.6l-1.3-2.5
	h-1.1v2.5h-1.5L140.7,37z M143.2,40.3c0.8,0,1.2-0.3,1.2-1s-0.4-1.1-1.3-1.1h-1v2.1H143.2z"/>
<path class="st0" d="M148,43.9V37h2.5c2.1,0,3.4,1.3,3.4,3.4c0,2.1-1.3,3.5-3.4,3.5L148,43.9z M150.4,42.6c1.3,0,2-0.7,2-2.2
	s-0.7-2.2-2-2.2h-0.9v4.4L150.4,42.6z"/>
<path class="st0" d="M158.4,38.1c-0.7,0-1.1,0.3-1.1,0.8c0,0.4,0.5,0.7,1.1,0.9l0.6,0.2c1.2,0.3,2.1,0.9,2.1,2c0,1.3-1,2.1-2.7,2.1
	c-1.7,0-2.8-0.8-2.8-2.3h1.4c0,0.7,0.6,1,1.4,1c0.8,0,1.2-0.3,1.2-0.9c0-0.5-0.4-0.7-1.2-0.9l-0.8-0.2c-1.2-0.3-1.9-0.9-1.9-1.9
	c0-1.3,1.1-2.1,2.6-2.1c1.5,0,2.6,0.9,2.6,2.1h-1.4C159.6,38.4,159.1,38.1,158.4,38.1z"/>
</svg>
