<?xml version="1.0" encoding="utf-8"?>
<!-- Generator: Adobe Illustrator 27.4.1, SVG Export Plug-In . SVG Version: 6.00 Build 0)  -->
<svg version="1.1" id="Layer_1" xmlns="http://www.w3.org/2000/svg" xmlns:xlink="http://www.w3.org/1999/xlink" x="0px" y="0px"
	 viewBox="0 0 3402 591.5" style="enable-background:new 0 0 3402 591.5;" xml:space="preserve">
<style type="text/css">
	.st0{clip-path:url(#SVGID_00000022537138018029907920000017375541681053782412_);fill:#FFFFFF;}
	.st1{fill:#FFFFFF;}
	.st2{clip-path:url(#SVGID_00000139252544272271997240000006326356935459552896_);fill:#FFFFFF;}
</style>
<g>
	<defs>
		<rect id="SVGID_1_" x="61.7" y="60.3" width="3294.1" height="471.5"/>
	</defs>
	<clipPath id="SVGID_00000064327030224447146300000011558072549398424458_">
		<use xlink:href="#SVGID_1_"  style="overflow:visible;"/>
	</clipPath>
	<path style="clip-path:url(#SVGID_00000064327030224447146300000011558072549398424458_);fill:#FFFFFF;" d="M353.3,100h-4.9
		c-5.6,0-11.8,0.6-18.6,3.7c-13,6.2-20.4,21-26,44l-31.6,125.7h37.1c27.2,0,45.8-8.7,58.8-24.8c19.2-22.9,27.9-60,27.9-99
		C396,117.4,383.6,100,353.3,100 M300.7,283.3h-31L243.1,391c-8,31.6-11.1,43.9-11.1,58.8c0,11.1,3.1,21,7.4,26
		c6.2,7.4,18,10.5,30.3,10.5h9.3c53.2,0,89.8-70,89.8-149.2C368.8,308,353.9,283.3,300.7,283.3 M354.5,277.7l-0.6,2.5
		c60,7.4,112,40.2,112,92.2c0,68.1-67.5,123.8-159.1,123.8H61.7l0.6-3.1c6.8-0.6,18-3.1,24.1-5c14.9-4.3,27.2-13.6,35.9-27.9
		c13-22.3,22.3-56.3,33.4-100.3l34.7-138c11.8-44.6,16.1-70.6,16.1-85.4c0-20.4-8.7-31-23.5-37.1c-9.9-3.7-18.6-5.6-24.8-6.2
		l0.6-3.7h180.1c89.1,0,140.5,25.4,140.5,84.8C479.6,235,428.2,268.4,354.5,277.7"/>
	<path style="clip-path:url(#SVGID_00000064327030224447146300000011558072549398424458_);fill:#FFFFFF;" d="M829.5,221.4h-3.7
		c-4.3-31.6-17.3-63.8-31-86C783,116.8,764.5,100,733.5,100h-12.4c-32.2,0-44,19.8-52.6,54.5l-31.6,125.7h13.6
		c35.3,0,50.1-6.8,64.4-19.2c18.6-16.1,39-48.3,45.8-68.1h3.7l-47,188.2h-3.7c3.1-19.8-0.6-57-11.1-72.4
		c-7.4-10.5-22.3-18.6-52.6-18.6h-15.5L609.1,391c-8,31-12.4,48.3-12.4,60.7c0,27.2,14.9,34.7,40.9,34.7h7.4
		c27.9,0,55.7-19.2,82.3-42.7c37.8-32.8,65.6-67.5,76.8-86.7h3.7l-42.7,139.3h-338l1.2-3.1c6.2-0.6,18-3.1,24.1-5
		c14.9-4.3,26.6-13.6,35.3-27.9c13-22.3,22.9-56.3,34-100.3l34-138c11.1-45.2,16.7-70.6,16.7-85.4c0-20.4-8.7-31.6-23.5-37.8
		c-9.9-3.7-19.2-5-25.4-5.6l0.6-3.7h313.9L829.5,221.4z"/>
	<path style="clip-path:url(#SVGID_00000064327030224447146300000011558072549398424458_);fill:#FFFFFF;" d="M1113.3,169.4
		l-135,159.7h97.8l40.2-159.7H1113.3z M1164.1,361.3c-11.8,44.6-16.7,73-16.7,87.9c0,20.4,9.3,31,23.5,37.1
		c9.9,3.7,19.2,6.2,25.4,6.8l-0.6,3.1H983.9l0.6-3.1c6.8-0.6,15.5-3.1,20.4-5c14.2-5.6,24.1-13.6,32.2-27.9
		c12.4-22.3,21-55.7,31.6-100.3l5-19.8H968.4l-58.2,69.3c-13.6,16.1-19.8,30.3-19.8,45.8c0,10.5,5,22.3,14.9,27.9
		c9.9,5.6,19.8,8.7,33.4,9.9l-0.6,3.1H779l0.6-3.1c8.7-1.2,20.4-5,28.5-8.7c29.7-14.2,58.8-43.3,81.1-70l278.6-325h65L1164.1,361.3z
		"/>
	<path style="clip-path:url(#SVGID_00000064327030224447146300000011558072549398424458_);fill:#FFFFFF;" d="M1657.3,92.6
		c-4.3,1.2-11.1,1.2-18,3.7c-9.9,3.1-21.7,9.9-31,22.9c-7.4,9.9-19.2,40.2-30.3,83.6l-40.2,160.9c-22.3,88.5-63.8,141.1-158.5,141.1
		c-92.2,0-132.5-45.8-132.5-120.1c0-14.2,9.9-61.9,15.5-84.2l18.6-76.8c11.1-44.6,16.7-73,16.7-87.9c0-19.8-9.3-31-23.5-37.1
		c-9.9-3.7-19.8-5.6-25.4-6.2l0.6-3.1h211.1l-1.2,3.1c-5.6,0.6-11.8,2.5-18,4.3c-14.9,6.2-24.8,14.2-34,28.5
		c-9.9,17.3-18.6,46.4-29.1,91l-36.5,152.3c-4.3,18-6.2,34.1-6.2,53.9c0,39,22.3,65,63.8,65c69.3,0,106.5-47.7,125.7-124.4
		l39.6-158.5c8-32.2,11.1-57,11.1-68.1c0-19.8-11.1-32.8-26-39c-5.6-2.5-15.5-4.3-24.1-5l1.2-3.1h131.2L1657.3,92.6z"/>
	<path style="clip-path:url(#SVGID_00000064327030224447146300000011558072549398424458_);fill:#FFFFFF;" d="M2006,224.5h-3.7
		c-6.2-32.8-15.5-65-35.3-89.8c-18-22.3-39.6-34.7-65.6-34.7h-14.2l-65,261.2c-11.1,44.6-16.1,73-16.1,87.9
		c0,20.4,8.7,31.6,23.5,37.8c9.3,3.7,18.6,5.6,24.8,6.2l-0.6,3.1h-221l0.6-3.1c6.8-0.6,18.6-3.1,24.8-5
		c14.9-4.3,26.6-13.6,34.7-27.9c13-22.3,23.5-56.3,34.7-100.3l64.4-260h-11.8c-26,0-49.5,11.1-71.8,31
		c-26.6,23.5-51.4,58.2-79.2,93.5h-3.7l44.6-135h351.6L2006,224.5z"/>
	<path style="clip-path:url(#SVGID_00000064327030224447146300000011558072549398424458_);fill:#FFFFFF;" d="M2441.2,92.6
		c-9.9,1.9-20.4,5-31,10.5c-22.3,10.5-45.8,27.9-84.8,83l-96.6,137.4l-8.7,37.8c-10.5,44.6-16.7,73-16.7,87.9
		c0,20.4,8.7,31,23.5,37.1c9.3,3.7,19.2,6.2,25.4,6.8l-0.6,3.1h-221l0.6-3.1c6.8-0.6,18.6-3.1,24.8-5c14.2-4.3,26.6-13.6,34.7-27.9
		c13-22.3,23.5-55.7,34-100.3l8-32.8l-45.2-173.3c-11.1-42.1-31-55.7-57-61.3l0.6-3.1h200l-0.6,3.1c-6.8,0.6-18.6,3.1-24.8,5.6
		c-8.7,3.7-20.4,11.8-20.4,28.5c0,12.4,5.6,29.1,9.9,47l31.6,127.5h3.1l86-121.3c21.7-29.7,28.5-47.7,28.5-61.3
		c0-9.9-6.2-18-13.6-21c-5-2.5-11.8-4.3-18-5l0.6-3.1h128.1L2441.2,92.6z"/>
</g>
<polygon class="st1" points="2505.5,60.3 2298,531.8 2320.2,531.8 2527.6,60.3 "/>
<g>
	<defs>
		<rect id="SVGID_00000078035024168108612780000009244691827650210972_" x="61.7" y="60.3" width="3294.1" height="471.5"/>
	</defs>
	<clipPath id="SVGID_00000038382693129458739360000010523024404028614549_">
		<use xlink:href="#SVGID_00000078035024168108612780000009244691827650210972_"  style="overflow:visible;"/>
	</clipPath>
	<path style="clip-path:url(#SVGID_00000038382693129458739360000010523024404028614549_);fill:#FFFFFF;" d="M2628.6,315.8
		c-14.3,0-20.4-9.4-20.4-21c0-3.3,2.2-9.9,2.8-12.1c1.7-5,5.5-11,5.5-13.8c0-7.7-6.1-11.6-16-11.6c-13.8,0-27.6,8.8-40.3,27.6
		c-25.9,38.1-44.7,107-44.7,156.2c0,26.5,15.4,38.6,31.5,38.6c34.2,0,61.8-35.3,75-59l5.5,3.3c-19.3,37-51.9,69.5-99.3,69.5
		c-37.5,0-57.9-34.2-57.9-75.6c0-51.9,23.7-97.1,56.3-130.2c23.2-23.7,56.3-37.5,76.1-37.5c24.3,0,48.6,11.6,48.6,40.3
		C2651.2,303.7,2644.6,315.8,2628.6,315.8"/>
	<path style="clip-path:url(#SVGID_00000038382693129458739360000010523024404028614549_);fill:#FFFFFF;" d="M2836.6,307.5
		c-9.9,0-18.2-5-22.6-24.3c-2.2-8.8-2.2-13.2-8.8-13.2c-19.3,0-36.4,44.1-76.7,144c-9.4,23.7-18.8,48.6-27.6,75h-43.6
		c15.5-48.6,40.3-120.3,49.1-147.3c9.4-28.7,11-47.5,11-57.4c0-9.4-4.4-14.3-11-14.3c-9.4,0-24.3,10.5-48,47.5l-4.4-2.8
		c23.7-46.3,55.7-64.6,73.9-64.6c19.3,0,27,10.5,27,30.9c0,17.7-4.4,41.9-12.7,72.8h3.9c31.5-85.5,52.4-103.7,80.6-103.7
		c19.3,0,31.5,12.1,31.5,30.9C2858.1,299.3,2847.1,307.5,2836.6,307.5"/>
	<path style="clip-path:url(#SVGID_00000038382693129458739360000010523024404028614549_);fill:#FFFFFF;" d="M2950.8,257.3
		c-30.4,0-58.5,55.7-72.3,113.7c23.7-8.3,56.3-25.4,68.4-39.7c12.7-14.9,18.2-35.9,18.2-50.2
		C2965.2,267.8,2960.7,257.3,2950.8,257.3 M2982.8,325.2c-21.5,18.2-67.9,39.7-105.9,52.4c-5,22.1-7.7,44.1-7.7,62.9
		c0,26.5,12.1,39.7,28.1,39.7c39.2,0,65.1-35.9,78.4-59.6l5,2.8c-19.3,37-51.3,70.6-98.8,70.6c-37.5,0-57.4-35.3-57.4-76.7
		c0-51.9,25.4-94.9,62.4-130.2c24.3-23.2,49.7-37,69.5-37c35.3,0,46.9,14.9,46.9,37.5C3003.2,300.4,2996.1,313.6,2982.8,325.2"/>
	<path style="clip-path:url(#SVGID_00000038382693129458739360000010523024404028614549_);fill:#FFFFFF;" d="M3230,265
		c-7.7,0-32.6,23.2-32.6,69c0,22.6,1.7,45.2,5,66.8c25.9-34.8,46.3-73.4,46.3-98.8C3248.8,276.6,3240,265,3230,265 M3230,494
		c-34.2,0-52.4-18.2-60.1-43.6c-26.5,25.9-53,43.6-83.9,43.6c-27,0-47.5-19.9-47.5-52.4c0-49.1,40.8-112,64-144.6
		c-10.5-1.7-21.5-5.5-34.8-14.3c-9.4-6.1-21.5-16-27.6-16c-1.7,0-4.4,1.7-4.4,4.4c0,1.7,3.9,6.6,6.6,12.1c3.3,6.6,5.5,12.1,5.5,16
		c0,11.6-7.7,17.7-15.5,17.7c-11,0-17.7-6.1-17.7-20.4c0-8.8,7.7-22.1,18.8-32c8.8-8.3,19.9-14.3,30.9-14.3c6.6,0,16.6,5,25.4,10.5
		c12.7,8.3,20.4,11.6,25.4,11.6c3.9,0,5-0.6,7.2-3.9c7.2-11.6,11.6-18.2,19.9-18.2c3.3,0,6.6,2.2,6.6,7.2c0,6.1-5.5,9.4-9.4,11.6
		c-5.5,3.3-14.3,8.8-19.3,17.1c-18.2,29.2-39.2,98.8-39.2,140.2c0,35.3,18.2,44.7,34.2,44.7c13.8,0,32.6-12.1,51.9-30.4
		c-1.7-8.3-2.2-17.1-2.2-25.9c0-67.3,22.1-116.4,41.4-141.8c12.7-16.6,26.5-22.6,32-22.6c16.6,0,23.2,14.9,23.2,34.2
		c0,40.8-24.8,87.2-56.8,127.5c7.7,34.8,22.1,60.7,49.1,60.7c47.5,0,80.6-74.5,80.6-139.6c0-14.9-3.3-29.2-10.5-45.8
		c-5-11.6-5.5-13.2-5.5-18.8c0-9.4,5.5-18.2,15.4-18.2c14.3,0,22.1,14.3,22.1,41.4C3355.8,344,3322.2,494,3230,494"/>
</g>
</svg>
