<?xml version="1.0" encoding="utf-8"?>
<!-- Generator: Adobe Illustrator 27.4.1, SVG Export Plug-In . SVG Version: 6.00 Build 0)  -->
<svg version="1.1" id="Layer_1" xmlns="http://www.w3.org/2000/svg" xmlns:xlink="http://www.w3.org/1999/xlink" x="0px" y="0px"
	 viewBox="0 0 612 792" style="enable-background:new 0 0 612 792;" xml:space="preserve">
<style type="text/css">
	.st0{fill:#FFFFFF;}
</style>
<g>
	<rect x="326.5" y="280.4" class="st0" width="50.3" height="229.4"/>
	<path class="st0" d="M494.5,426.2c2.2-14.1,10.7-21.9,25.3-21.9c12.7,0,21.6,9.8,21.6,21.9H494.5z M588.6,452.2
		c0-51-22.1-80.2-73.3-80.2c-40.7,0-68.1,31.3-68.1,69.4c0,44,31,68.8,72.3,68.8c29.3,0,56.4-13.1,66.3-41.5h-46
		c-4,6.1-12.7,9.1-20.6,9.1c-15.4,0-23.8-10.7-25.1-25.7H588.6z"/>
	<path class="st0" d="M222.9,426.2c2.2-14.1,10.7-21.9,25.3-21.9c12.7,0,21.6,9.8,21.6,21.9H222.9z M317,452.2
		c0-51-22.1-80.2-73.3-80.2c-40.7,0-68.1,31.3-68.1,69.4c0,44,31,68.8,72.3,68.8c29.3,0,56.4-13.1,66.3-41.5h-46
		c-4,6.1-12.7,9.1-20.6,9.1c-15.4,0-23.8-10.7-25.1-25.7H317z"/>
	<rect x="388.8" y="280.4" class="st0" width="50.3" height="229.4"/>
	<path class="st0" d="M123.8,441.5c0,15.9-5.8,35.1-25.3,35.1s-25.2-19.2-25.2-34.9c0-15.5,5.1-34,24.5-34S123.8,426,123.8,441.5z
		 M27.3,509.8h48.4v-13.2l0.4,0.4c4.2,4,10.5,13.4,35,13.4c37.2,0,56.5-38.6,55.9-69.7c-0.6-31-15.4-68.6-58.8-68.5
		c-15,0-20.9,4.8-30,12.9l-0.8,1V280.4H27.3V509.8z"/>
</g>
</svg>
