<?xml version="1.0" encoding="utf-8"?>
<!-- Generator: Adobe Illustrator 27.4.1, SVG Export Plug-In . SVG Version: 6.00 Build 0)  -->
<svg version="1.1" id="Layer_1" xmlns="http://www.w3.org/2000/svg" xmlns:xlink="http://www.w3.org/1999/xlink" x="0px" y="0px"
	 viewBox="0 0 841.9 340.2" style="enable-background:new 0 0 841.9 340.2;" xml:space="preserve">
<style type="text/css">
	.st0{fill:#FFFFFF;}
</style>
<g>
	<path class="st0" d="M69.9,85.7h4.8c22.6,0,32.7-5.1,32.7-22.9c0-15.2-8.4-23.1-27.9-23.1c-3.8-0.2-9.6,0.2-9.6,3.8V85.7z
		 M69.9,121.8c0,12.4,0,25,20.2,25c19,0,25.7-11.6,25.7-25c0-19-11.3-27.4-35.6-27.4c-3.4,0-7,0.2-10.3,0.2V121.8z M10.5,148.6
		c23.1,0.6,22.6-8.3,22.6-23.7V61.5c0-15.4,0.5-24.2-22.6-23.7V31c11.8,0.2,22.8,0.6,33.9,0.8c13-0.2,26-0.6,39-0.8
		c25.7,0.4,64,3.9,64,30.1c0,18.4-24.8,25.7-44.2,27.8v0.4c24.3,1.9,54.3,9.2,54.3,32.3c0,31.2-47.8,34.2-77.7,33.8
		c-11.8-0.2-23.8-0.6-35.6-0.8c-11.1,0.2-21.9,0.6-33.7,0.8V148.6z"/>
	<path class="st0" d="M221.8,107.4c4.7,0,6.5-1.2,6.5-4.9c0-8.1-6.3-17.8-18-17.8c-13.7,0-18,13.4-18.5,22.7H221.8z M191.7,114.4
		c-0.5,15.5,5.6,33.1,29.5,33.1c12.8,0,18.9-4.9,27.5-11.8l7,4.4c-9.7,11.6-25.4,17.2-43,17.2c-29.5,0-52.2-14.6-53.6-38.5
		c-1.4-24.4,22.5-41.1,53.1-41.1c24.1,0,45.7,12.8,45.7,32.5c0,4.9-3.6,4.2-9,4.2H191.7z"/>
	<path class="st0" d="M294.4,87.7V132c0,6.9,0,14.8,8.1,14.8c5.6,0,10.1-3.5,13.3-6.9l7.6,4c-7.2,9-18.5,13.4-31.7,13.4
		c-22.1,0-26.8-10-26.8-25.3V87.7h-12.2v-5.3c16.4-3.7,27.5-12.8,32-25.7h9.7v23.9h22.7v7H294.4z"/>
	<path class="st0" d="M354.3,87.7V132c0,6.9,0,14.8,8.1,14.8c5.6,0,10.1-3.5,13.3-6.9l7.7,4c-7.2,9-18.5,13.4-31.7,13.4
		c-22.1,0-26.8-10-26.8-25.3V87.7h-12.2v-5.3c16.4-3.7,27.5-12.8,32-25.7h9.7v23.9H377v7H354.3z"/>
	<path class="st0" d="M430,107.4c4.7,0,6.5-1.2,6.5-4.9c0-8.1-6.3-17.8-18-17.8c-13.7,0-18,13.4-18.5,22.7H430z M399.8,114.4
		c-0.5,15.5,5.6,33.1,29.5,33.1c12.8,0,18.9-4.9,27.5-11.8l7,4.4c-9.7,11.6-25.4,17.2-43,17.2c-29.5,0-52.2-14.6-53.6-38.5
		c-1.3-24.4,22.5-41.1,53.1-41.1c24.1,0,45.7,12.8,45.7,32.5c0,4.9-3.6,4.2-9,4.2H399.8z"/>
	<path class="st0" d="M464,84.5l41.2-6.9l1.6,17.1h0.5c5.4-8.3,16-17.1,28.4-17.1c9.2,0,17.1,6,17.1,13.5c0,5.8-5.6,9-12.8,9
		c-12.2,0-10.4-7.6-17.8-7.6c-12.2,0-13.7,17.1-13.7,23.2v17.6c0,12.8,0,16.5,15.8,16.4v5.6c-10.4-0.2-20.9-0.5-31.3-0.7
		c-9.5,0.2-18.9,0.5-28.1,0.7v-5.6c3.6,0,9.5-0.5,11.9-3.2c2.2-2.3,2.2-10.2,2.2-13.2v-28.5c0-11.1-3.4-13.9-14.9-14.6V84.5z"/>
	<path class="st0" d="M243.9,264.5c0,16.3-0.4,25.6,19.6,25v7.1c-12.3-0.2-24.6-0.6-36.9-0.8c-11.5,0.2-22.7,0.6-34.2,0.8v-7.1
		c20,0.6,19.6-8.7,19.6-25v-67c0-16.3,0.4-25.6-19.6-25v-7.1c11.2,0.2,22.7,0.6,33.9,0.8c12.3-0.2,24.8-0.6,37.1-0.8v7.1
		c-20-0.6-19.6,8.7-19.6,25v27.6h61.6v-27.6c0-16.3,0.2-25.6-19.8-25v-7.1c11,0.2,21.9,0.6,32.9,0.8c12.7-0.2,25.6-0.6,38.3-0.8v7.1
		c-20-0.6-19.6,8.7-19.6,25v67c0,16.3-0.4,25.6,19.6,25v7.1c-12.1-0.2-24.4-0.6-36.4-0.8c-11.7,0.2-23.1,0.6-34.8,0.8v-7.1
		c20,0.6,19.8-8.7,19.8-25V235h-61.6V264.5z"/>
	<path class="st0" d="M377.4,205.5c0,13,1.6,33.4,24.1,33.4c18.9,0,19.6-22.2,19.6-32.3c0-11.8-0.7-33.2-21.2-33.2
		C379.9,173.4,377.4,193.9,377.4,205.5 M453.7,205.9c0,23.4-24.5,40.1-53.3,40.1c-29.7,0-55.6-15.8-55.6-40.3
		c0-23.2,27-39.4,54.9-39.4C428.5,166.3,453.7,182.3,453.7,205.9"/>
	<path class="st0" d="M489.7,222.1c0,8.8-1.6,16.3,12.6,16.3v5.6c-9.2-0.2-18.2-0.5-27.5-0.7c-9.7,0.2-19.1,0.5-28.8,0.7v-5.6
		c3.6,0,9.5-0.5,11.9-3.2c2.2-2.3,2.2-10.2,2.2-13.2v-23.6c0-8.8,0.5-19.9-14.9-19.3v-5.8c14-1.2,28.1-2.8,41.6-7l1.1,16.2h0.4
		c6.3-9.8,19.6-16.2,33.5-16.2c13.5,0,26.3,4.7,29,16.2c7.4-10,19.1-16.2,34.2-16.2c11.3,0,22.5,3.2,27.9,11.6
		c3.8,6,2.9,19.5,2.9,26.5v17.6c0,3,0,10.9,2.3,13.2c2.5,2.6,8.3,3.2,11.9,3.2v5.6c-9.7-0.2-19.4-0.5-29-0.7
		c-9,0.2-18.2,0.5-27.2,0.7v-5.6c14.4-0.5,12.6-7,12.6-16.3v-22.3c0-7.9,0.9-22.2-13.5-22.2c-7.9,0-13.7,4.7-17.1,10
		c-3.1,5.1-3.1,13-3.1,18.8v15.6c0,8.8-1.4,16.5,12.6,16.3v5.6c-9.2-0.2-18.2-0.5-27.5-0.7c-9,0.2-18.2,0.5-27.2,0.7v-5.6
		c14.2,0,12.6-7.6,12.6-16.3v-22.3c0-7.9,0.9-22-13.5-22c-7.7,0-13.1,4.6-16.7,9.8c-3.6,5.3-3.6,13.7-3.6,19.7V222.1z"/>
	<path class="st0" d="M683.8,196c4.7,0,6.5-1.2,6.5-4.9c0-8.1-6.3-17.8-18-17.8c-13.7,0-18,13.4-18.5,22.7H683.8z M653.7,203.1
		c-0.5,15.5,5.6,33.1,29.5,33.1c12.8,0,18.9-4.9,27.5-11.8l7,4.4c-9.7,11.6-25.4,17.2-43,17.2c-29.5,0-52.2-14.6-53.6-38.5
		c-1.3-24.4,22.5-41.1,53.1-41.1c24.1,0,45.7,12.8,45.7,32.5c0,4.9-3.6,4.2-9,4.2H653.7z"/>
	<path class="st0" d="M730.9,243.7h-9l-1.1-23.9h9c6.1,9.8,15.3,19.2,30.6,19.2c8.5,0,17.6-3.3,17.6-10.9c0-7.9-13.3-10-20.7-11.8
		c-18-4.2-34.2-9.5-34.2-26.5c0-16.2,17.1-23.4,35.6-23.4c10.4,0,17.6,1.9,26.3,6.2l3.8-6.2h9v23h-9c-5-8.4-13.5-16-26.1-16
		c-6.8,0-15.8,2.6-15.8,9.1c0,7.7,10.8,9.1,18.5,10.9c18.2,4.6,37.6,9.3,37.6,27.2c0,17.9-18.7,25.3-38.9,25.3
		c-9.7,0-22.1-2.3-29.5-7.7L730.9,243.7z"/>
	<path class="st0" d="M402.3,281.6c-4.1,1.4-9.4,3-9.4,7c0,2,1.1,4.2,4,4.2c2.4,0,5.5-1.8,5.5-3.8V281.6z M419.1,293.5
		c-1.7,2.4-6.3,3.8-9.8,3.8c-3.9,0-6-1.4-7.1-4.1c-2.9,2.3-7.2,4.1-11.5,4.1c-5.1,0-9.4-2.6-9.4-6.7c0-6.1,9.2-8.2,16.3-10.3
		c2.5-0.7,4.6-0.7,4.6-3.1c0-2.7-0.3-5.4-4.7-5.4c-3.1,0-4,1-5.1,3.1c-1,2-2,3.9-5.3,3.9c-2.5,0-4.4-1.4-4.4-3.3
		c0-5.2,10.7-6.1,15.7-6.1c7,0,14.5,1.4,14.5,7.6v12.5c0,1,0,3.1,1.7,3.1c1.3,0,1.9-0.3,2.8-0.9L419.1,293.5z"/>
	<path class="st0" d="M433.8,289c0,1,0,3.8,0.7,4.6c0.9,0.9,3,1.1,4.3,1.1v2c-3.5-0.1-6.9-0.2-10.4-0.2c-3.4,0.1-6.9,0.2-10.3,0.2
		v-2c1.3,0,3.4-0.2,4.3-1.1c0.7-0.8,0.7-3.6,0.7-4.6v-8.8c0-3.3,0.1-6.3-5.3-6.3v-2c5-0.4,10.1-0.9,15-2.4l0.9,5.5
		c3-3.2,6.8-5.5,12-5.5c3.5,0,7.4,1,9.7,3.2c2,2,2,5.7,2,8.2v8.1c0,1,0,3.8,0.7,4.6c0.9,0.9,3,1.1,4.3,1.1v2
		c-3.2-0.1-6.3-0.2-9.5-0.2c-3.7,0.1-7.6,0.2-11.3,0.2v-2.1c1.3,0,3.4-0.1,4.3-1c0.8-0.8,0.8-3.6,0.8-4.6v-7.7
		c0-2.9,0.2-7.8-5.2-7.8c-3.2,0-5.4,1.8-6.7,3.8c-1.1,1.8-1.1,4.4-1.1,6.4V289z"/>
	<path class="st0" d="M472.9,283.1c0,4.3,1.1,10.2,8.3,10.2c7.8,0,7.8-6,7.8-10.5c0-4.3-0.2-9.4-7.6-9.4
		C474.4,273.5,472.9,278.8,472.9,283.1 M505.5,295l-14.9,2.4l-0.7-5.4c-3.1,3.3-6.8,5.4-12.4,5.4c-10.2,0-16.3-6.5-16.3-13.7
		c0-7.4,6.8-14.2,17-14.2c4.3,0,8.2,2,10.9,4.3v-9.5c0-3.4,0.3-5-5.1-5.4v-2l15.8-1.8v34c0.1,3.2,1.6,4.2,5.8,4.1V295z"/>
	<path class="st0" d="M569.6,255.7h3.4l0.7,12.8h-3.6c-2-5.7-6.8-10.1-15.2-10.1c-13,0-16.3,10.5-16.3,18.4
		c0,7.5,3.3,17.4,15.5,17.4c7.2,0,10.7-2.1,10.7-7.5c0-4.1-1.1-4.9-6.7-5.3v-2.2h24.2v2.2c-5.4,0.2-5.1,1.9-5.1,5.3v6.4
		c-5.5,0.6-7.1,0.7-12.2,2.1c-4.6,1.3-8,2.1-13,2.1c-16.3,0-27.5-7.8-27.5-20.3c0-12.2,11.1-21.7,27.7-21.7c5.8,0,11.5,1,16,3.8
		L569.6,255.7z"/>
	<path class="st0" d="M602.5,281.6c-4.1,1.4-9.4,3-9.4,7c0,2,1.1,4.2,4,4.2c2.4,0,5.4-1.8,5.4-3.8V281.6z M619.3,293.5
		c-1.7,2.4-6.3,3.8-9.8,3.8c-3.9,0-6-1.4-7.1-4.1c-2.9,2.3-7.2,4.1-11.5,4.1c-5.1,0-9.4-2.6-9.4-6.7c0-6.1,9.2-8.2,16.3-10.3
		c2.5-0.7,4.6-0.7,4.6-3.1c0-2.7-0.3-5.4-4.7-5.4c-3.1,0-4,1-5.1,3.1c-1,2-2,3.9-5.3,3.9c-2.5,0-4.4-1.4-4.4-3.3
		c0-5.2,10.7-6.1,15.7-6.1c7,0,14.5,1.4,14.5,7.6v12.5c0,1,0,3.1,1.7,3.1c1.3,0,1.9-0.3,2.8-0.9L619.3,293.5z"/>
	<path class="st0" d="M619.2,271.8l14.9-2.4l0.6,6h0.2c2-2.9,5.8-6,10.2-6c3.3,0,6.2,2.1,6.2,4.7c0,2-2,3.1-4.6,3.1
		c-4.4,0-3.7-2.6-6.4-2.6c-4.4,0-5,6-5,8.1v6.2c0,4.5,0,5.8,5.7,5.7v2c-3.7-0.1-7.6-0.2-11.3-0.2c-3.4,0.1-6.8,0.2-10.2,0.2v-2
		c1.3,0,3.4-0.2,4.3-1.1c0.8-0.8,0.8-3.6,0.8-4.6v-10c0-3.9-1.2-4.9-5.4-5.1V271.8z"/>
	<path class="st0" d="M661.9,283.1c0,4.3,1.1,10.2,8.3,10.2c7.8,0,7.8-6,7.8-10.5c0-4.3-0.2-9.4-7.6-9.4
		C663.3,273.5,661.9,278.8,661.9,283.1 M694.4,295l-14.9,2.4l-0.7-5.4c-3.1,3.3-6.8,5.4-12.4,5.4c-10.2,0-16.3-6.5-16.3-13.7
		c0-7.4,6.8-14.2,17-14.2c4.3,0,8.2,2,10.9,4.3v-9.5c0-3.4,0.3-5-5.1-5.4v-2l15.8-1.8v34c0.1,3.2,1.6,4.2,5.8,4.1V295z"/>
	<path class="st0" d="M715,279.9c1.7,0,2.4-0.4,2.4-1.7c0-2.8-2.3-6.2-6.5-6.2c-5,0-6.5,4.7-6.7,7.9H715z M704.1,282.3
		c-0.2,5.4,2,11.6,10.7,11.6c4.6,0,6.8-1.7,9.9-4.1l2.5,1.5c-3.5,4.1-9.2,6-15.5,6c-10.7,0-18.9-5.1-19.4-13.5
		c-0.5-8.6,8.1-14.4,19.2-14.4c8.7,0,16.5,4.5,16.5,11.4c0,1.7-1.3,1.5-3.3,1.5H704.1z"/>
	<path class="st0" d="M743.8,289c0,1,0,3.8,0.7,4.6c0.9,0.9,3,1.1,4.3,1.1v2c-3.5-0.1-6.9-0.2-10.4-0.2c-3.4,0.1-6.9,0.2-10.3,0.2
		v-2c1.3,0,3.4-0.2,4.3-1.1c0.7-0.8,0.7-3.6,0.7-4.6v-8.8c0-3.3,0.1-6.3-5.3-6.3v-2c5-0.4,10.1-0.9,15-2.4l0.9,5.5
		c3-3.2,6.8-5.5,12-5.5c3.5,0,7.4,1,9.7,3.2c2,2,2,5.7,2,8.2v8.1c0,1,0,3.8,0.7,4.6c0.9,0.9,3,1.1,4.3,1.1v2
		c-3.2-0.1-6.3-0.2-9.5-0.2c-3.7,0.1-7.6,0.2-11.3,0.2v-2.1c1.3,0,3.4-0.1,4.3-1c0.8-0.8,0.8-3.6,0.8-4.6v-7.7
		c0-2.9,0.2-7.8-5.2-7.8c-3.2,0-5.4,1.8-6.7,3.8c-1.1,1.8-1.1,4.4-1.1,6.4V289z"/>
	<path class="st0" d="M777.6,296.6h-3.3l-0.4-8.4h3.3c2.2,3.4,5.5,6.7,11.1,6.7c3.1,0,6.3-1.2,6.3-3.8c0-2.8-4.8-3.5-7.5-4.1
		c-6.5-1.5-12.4-3.3-12.4-9.3c0-5.7,6.2-8.2,12.9-8.2c3.7,0,6.3,0.7,9.5,2.2l1.4-2.2h3.3v8.1h-3.3c-1.8-3-4.9-5.6-9.4-5.6
		c-2.4,0-5.7,0.9-5.7,3.2c0,2.7,3.9,3.2,6.7,3.8c6.6,1.6,13.6,3.3,13.6,9.5c0,6.3-6.8,8.9-14.1,8.9c-3.5,0-8-0.8-10.7-2.7
		L777.6,296.6z"/>
	<path class="st0" d="M811.4,290.8c-1.6,0-2.9,1.2-2.9,3.1c0,1.8,1.3,3.1,2.9,3.1v0c1.5,0,2.8-1.2,2.8-3.1
		C814.3,292,813,290.8,811.4,290.8 M811.4,297.8c-2.1,0-4-1.5-4-4c0-2.5,1.9-4,4-4c2.1,0,4,1.5,4,4
		C815.4,296.3,813.5,297.8,811.4,297.8 M811.6,293.4c0.4,0,0.7-0.1,0.7-0.6c0-0.4-0.5-0.5-0.8-0.5h-0.6v1H811.6z M810.8,296h-0.9
		v-4.3h1.6c1.1,0,1.8,0.3,1.8,1.3c0,0.8-0.5,1.1-1,1.1l1.1,1.9h-1.1l-1-1.8h-0.4V296z"/>
</g>
</svg>
