<?xml version="1.0" encoding="utf-8"?>
<!-- Generator: Adobe Illustrator 27.4.1, SVG Export Plug-In . SVG Version: 6.00 Build 0)  -->
<svg version="1.1" id="Layer_1" xmlns="http://www.w3.org/2000/svg" xmlns:xlink="http://www.w3.org/1999/xlink" x="0px" y="0px"
	 viewBox="0 0 104 38" style="enable-background:new 0 0 104 38;" xml:space="preserve">
<style type="text/css">
	.st0{fill-rule:evenodd;clip-rule:evenodd;fill:#FFFFFF;}
	.st1{fill:#FFFFFF;}
</style>
<path class="st0" d="M2,0.1C1.3,0.2,0.5,0.8,0.2,1.5C0,1.9,0,2,0,2.6c0,0.6,0,0.7,0.2,1.1c0.2,0.5,0.8,1,1.3,1.3
	c0.6,0.3,1.5,0.3,2.1,0C4.1,4.7,4.7,4.2,5,3.7c0.5-0.9,0.3-2-0.4-2.8C4,0.2,2.9-0.2,2,0.1z M74.3,0.2c-1.2,0.3-1.9,1.3-1.9,2.5
	c0,2.7,3.7,3.5,5,1.1c0.2-0.3,0.2-0.5,0.2-1.1s0-0.7-0.2-1.1C76.8,0.4,75.5-0.2,74.3,0.2z M80.9,5.7c-0.5,0.2-0.9,0.5-1.2,1
	c-0.2,0.4-0.2,1.2,0,1.5c0.2,0.4,0.7,0.8,1,0.9c1.4,0.4,2.7-0.8,2.3-2.2c-0.1-0.3-0.5-0.8-0.9-1C81.8,5.7,81.1,5.6,80.9,5.7z
	 M0,16.9v11.1l0.5,0.1c2.8,0.6,5.1,0.9,7.2,0.8c2.1-0.1,3.6-0.5,5-1.4c0.6-0.4,1.5-1.2,1.9-1.8c1.2-1.7,1.8-4,1.6-6.5
	c-0.2-3-1.2-5.1-3-6.5c-1.4-1-3.4-1.5-5.3-1.3c-0.7,0.1-2.4,0.4-2.7,0.5c-0.1,0-0.1-0.1-0.1-3V5.8L4.9,5.9C4.7,6.1,3.9,6.5,3.5,6.6
	c-0.5,0.1-1.3,0.1-1.8,0C1.3,6.5,0.6,6.2,0.3,6C0.2,5.9,0.1,5.8,0.1,5.8C0.1,5.8,0,10.8,0,16.9z M77.2,6c-0.2,0.2-0.9,0.5-1.4,0.6
	c-1,0.2-2.2,0-3.1-0.6l-0.2-0.1l0,8.5c0,9.2,0,8.9,0.4,10.1c0.7,2.2,2.5,3.6,5.1,3.9c1,0.1,3.3,0,4.1-0.1c0.9-0.2,2.2-0.6,2.2-0.7
	c0-0.1-0.7-3.9-0.7-4c0,0-0.2,0-0.4,0.1c-0.8,0.3-1.8,0.4-2.7,0.4c-1,0-1.4-0.1-2-0.3c-0.4-0.2-0.6-0.4-0.8-0.8
	c-0.3-0.7-0.3-1-0.3-4.6l0-3.3h3.1h3.1v-2.2v-2.2h-3.1h-3.1l0-2.5l0-2.5L77.2,6z M25.8,10.2c-2.1,0.2-3.9,1-5.3,2.4
	c-1.4,1.3-2.2,3-2.5,5.1c-0.2,1-0.1,3.1,0.1,4.1c0.8,3.6,3.3,6.1,6.9,6.7c0.9,0.2,2.6,0.2,3.5,0c1.9-0.3,3.2-1,4.5-2.2
	c1.3-1.2,2-2.8,2.4-4.8c0.2-0.9,0.2-3.1,0-4c-0.4-2-1.2-3.5-2.5-4.8c-1.6-1.5-3.4-2.3-5.8-2.4C26.7,10.2,26.1,10.2,25.8,10.2z
	 M61,10.3c-0.2,0-0.6,0.1-1.1,0.1c-1,0.1-2.9,0.4-4,0.7l-0.8,0.2l0,8.4l0,8.4h2.6h2.6v-6.6v-6.6l0.2-0.1c0.1,0,0.8-0.1,1.5-0.1
	c1.3,0,1.4,0,1.7,0.2c0.6,0.3,0.8,0.5,1.1,1c0.5,1,0.5,1.1,0.5,7v5.3H68h2.7l0-5.3c0-5.4,0-6.3-0.3-7.4C69.8,12.6,68,11,65,10.4
	C64.4,10.3,61.7,10.2,61,10.3z M37.1,15.9c0,3.2,0,5.6,0.1,6c0.4,4,2.4,6.1,6.3,6.5c1.3,0.1,3.5,0.1,5.3-0.2c0.9-0.1,3-0.5,3.5-0.7
	l0.4-0.1v-8.4v-8.4H50h-2.6l0,6.6c0,4.1-0.1,6.6-0.1,6.7c0,0-0.7,0.1-1.5,0.1c-1.4,0-1.4,0-1.8-0.2c-0.7-0.3-1-0.7-1.2-1.6
	c-0.2-0.9-0.3-1.7-0.3-6.7l0-4.9h-2.6h-2.6V15.9z M85.8,11c1.5,5.1,3.5,10.2,5.9,15l0.7,1.4L92.1,28c-0.4,0.8-0.9,1.3-1.5,1.6
	c-0.4,0.2-0.5,0.2-1.5,0.2c-1,0-1.1,0-1.8-0.2c-0.4-0.1-0.7-0.2-0.7-0.2c0,0-0.9,4-0.9,4.1c0,0.1,1.1,0.4,1.8,0.6
	c0.7,0.2,2.8,0.2,3.6,0.1c0.8-0.1,1.7-0.4,2.3-0.8c0.3-0.2,0.8-0.5,1.1-0.8c1.3-1.2,2.1-2.6,4-6.9c1.5-3.4,2.6-6.3,3.9-10.1
	c0.7-2,1.5-4.7,1.5-4.8c0,0-1-0.1-2.7-0.1h-2.7l-0.2,0.7c-0.9,3.4-3,10-3.2,10.3c-0.1,0.1-1.2-3.1-2.2-6c-0.5-1.6-0.7-2.3-1.4-4.6
	l-0.1-0.4h-2.8h-2.8L85.8,11z M27.7,14.8c1.1,0.3,1.8,1.2,2.2,2.6c0.1,0.5,0.2,0.7,0.2,1.9c0,1.2,0,1.5-0.2,1.9
	c-0.3,1.1-0.8,1.9-1.4,2.3c-0.9,0.6-2.2,0.7-3.2,0.2c-1.4-0.7-2.3-2.8-2-5.2c0.2-2.1,1-3.4,2.4-3.8C26.2,14.6,27.2,14.6,27.7,14.8z
	 M8.7,15.7c0.2,0,0.5,0.1,0.8,0.3c0.8,0.4,1.3,1,1.6,2.2c0.1,0.5,0.2,0.7,0.2,1.9c0,1.5-0.1,2-0.6,3c-0.7,1.3-1.7,1.9-3.4,1.9
	c-0.7,0-1.7-0.2-2-0.3c-0.1-0.1-0.1-0.3-0.1-4.1v-4l0.3-0.2c0.6-0.4,1-0.5,1.9-0.6C7.8,15.6,8,15.6,8.7,15.7z"/>
<path class="st1" d="M43.9,31.1c1,0,1.7,0.2,2.2,0.5c0.5,0.4,0.8,0.9,0.8,1.7c0,0.4-0.1,0.7-0.2,1c-0.1,0.3-0.3,0.5-0.6,0.7
	c-0.3,0.2-0.6,0.3-1,0.4c-0.4,0.1-0.8,0.1-1.3,0.1h-0.6v2.4H42v-6.6c0.3-0.1,0.6-0.1,0.9-0.1C43.3,31.1,43.6,31.1,43.9,31.1z
	 M43.9,32.1c-0.3,0-0.6,0-0.8,0v2.3h0.6c0.6,0,1-0.1,1.3-0.2c0.3-0.2,0.5-0.5,0.5-0.9c0-0.2,0-0.4-0.1-0.6c-0.1-0.1-0.2-0.3-0.3-0.3
	c-0.1-0.1-0.3-0.1-0.5-0.2C44.4,32.2,44.2,32.1,43.9,32.1z"/>
<path class="st1" d="M52,37.9c-0.1-0.3-0.2-0.5-0.3-0.8s-0.2-0.5-0.3-0.8h-2.8c-0.1,0.3-0.2,0.5-0.3,0.8c-0.1,0.3-0.2,0.5-0.3,0.8
	h-1.2c0.2-0.7,0.5-1.4,0.7-2c0.2-0.6,0.4-1.2,0.6-1.7c0.2-0.5,0.4-1.1,0.6-1.5c0.2-0.5,0.4-1,0.6-1.5h1.1c0.2,0.5,0.4,1,0.6,1.5
	c0.2,0.5,0.4,1,0.6,1.5c0.2,0.5,0.4,1.1,0.7,1.7c0.2,0.6,0.5,1.3,0.7,2H52z M50.1,32.5c-0.1,0.3-0.3,0.8-0.5,1.2
	c-0.2,0.5-0.4,1-0.6,1.6h2.2c-0.2-0.6-0.4-1.1-0.6-1.6C50.4,33.2,50.2,32.8,50.1,32.5z"/>
<path class="st1" d="M56.1,31.1c1,0,1.7,0.2,2.2,0.5c0.5,0.4,0.8,0.9,0.8,1.6c0,0.9-0.4,1.5-1.3,1.8c0.1,0.1,0.3,0.3,0.4,0.5
	c0.2,0.2,0.3,0.4,0.5,0.7c0.2,0.2,0.3,0.5,0.5,0.8c0.1,0.3,0.3,0.5,0.4,0.8h-1.3c-0.1-0.2-0.3-0.5-0.4-0.7c-0.1-0.2-0.3-0.5-0.4-0.7
	c-0.1-0.2-0.3-0.4-0.4-0.6c-0.1-0.2-0.3-0.4-0.4-0.5c-0.1,0-0.2,0-0.2,0s-0.1,0-0.2,0h-0.6v2.5h-1.2v-6.6c0.3-0.1,0.6-0.1,0.9-0.1
	C55.5,31.1,55.8,31.1,56.1,31.1z M56.1,32.1c-0.3,0-0.5,0-0.7,0v2.2H56c0.3,0,0.5,0,0.8,0s0.4-0.1,0.6-0.2c0.2-0.1,0.3-0.2,0.3-0.3
	s0.1-0.3,0.1-0.5c0-0.2,0-0.4-0.1-0.5s-0.2-0.3-0.3-0.3c-0.1-0.1-0.3-0.1-0.5-0.2C56.6,32.2,56.4,32.1,56.1,32.1z"/>
<path class="st1" d="M60.4,37.9v-6.7h4.2v1h-3v1.7h2.7v1h-2.7v2h3.3v1H60.4z"/>
<path class="st1" d="M70.6,37.9c-0.2-0.4-0.5-0.8-0.7-1.2c-0.3-0.4-0.5-0.9-0.8-1.3c-0.3-0.4-0.6-0.8-0.9-1.2
	c-0.3-0.4-0.6-0.8-0.8-1.1v4.8h-1.2v-6.7h1c0.3,0.3,0.5,0.6,0.8,1c0.3,0.4,0.6,0.8,0.9,1.2c0.3,0.4,0.6,0.8,0.9,1.2
	c0.3,0.4,0.5,0.8,0.7,1.1v-4.4h1.2v6.7H70.6z"/>
<path class="st1" d="M77.9,31.2v1.1h-2v5.6h-1.2v-5.6h-2v-1.1H77.9z"/>
<path class="st1" d="M80.5,36.9c0.4,0,0.7-0.1,0.9-0.2c0.2-0.1,0.3-0.4,0.3-0.6c0-0.2,0-0.3-0.1-0.4c-0.1-0.1-0.2-0.2-0.3-0.3
	c-0.1-0.1-0.3-0.2-0.4-0.3c-0.2-0.1-0.4-0.2-0.6-0.2c-0.2-0.1-0.5-0.2-0.7-0.3c-0.2-0.1-0.4-0.2-0.6-0.4c-0.2-0.1-0.3-0.3-0.4-0.5
	c-0.1-0.2-0.1-0.5-0.1-0.7c0-0.6,0.2-1.1,0.6-1.4c0.4-0.3,1-0.5,1.7-0.5c0.4,0,0.8,0,1.1,0.1c0.3,0.1,0.6,0.2,0.8,0.3l-0.4,1
	c-0.2-0.1-0.5-0.2-0.7-0.3c-0.3-0.1-0.5-0.1-0.8-0.1c-0.3,0-0.6,0.1-0.8,0.2c-0.2,0.1-0.3,0.3-0.3,0.6c0,0.1,0,0.3,0.1,0.4
	c0.1,0.1,0.1,0.2,0.3,0.3c0.1,0.1,0.2,0.2,0.4,0.2c0.2,0.1,0.3,0.1,0.5,0.2c0.3,0.1,0.6,0.2,0.8,0.4c0.2,0.1,0.5,0.3,0.6,0.4
	c0.2,0.2,0.3,0.4,0.4,0.6c0.1,0.2,0.1,0.5,0.1,0.8c0,0.6-0.2,1.1-0.6,1.4c-0.4,0.3-1,0.5-1.8,0.5c-0.3,0-0.5,0-0.8-0.1
	c-0.2,0-0.4-0.1-0.6-0.1c-0.2-0.1-0.3-0.1-0.4-0.2c-0.1-0.1-0.2-0.1-0.3-0.2l0.4-1c0.2,0.1,0.4,0.2,0.7,0.3
	C79.8,36.9,80.1,36.9,80.5,36.9z"/>
</svg>
