<?xml version="1.0" encoding="utf-8"?>
<!-- Generator: Adobe Illustrator 27.4.1, SVG Export Plug-In . SVG Version: 6.00 Build 0)  -->
<svg version="1.1" id="Layer_1" xmlns="http://www.w3.org/2000/svg" xmlns:xlink="http://www.w3.org/1999/xlink" x="0px" y="0px"
	 viewBox="0 0 841.9 595.3" style="enable-background:new 0 0 841.9 595.3;" xml:space="preserve">
<style type="text/css">
	.st0{fill:#FFFFFF;}
</style>
<g>
	<path class="st0" d="M217.8,191.7c-0.2,0.2-0.8,1.3-0.9,1.5c-2.5,3.8-1.7,2.9-5.6,7.8c-3.1,3.9-5.8,7.9-9.6,11.2
		c-4.2,3.3-5.9,6.5-10.7,10.6c-0.5,0.5-2.3,1.9-2.8,2.4c-0.6,0.5-1.3,1.2-2,1.5c-1.7,0.8-4,1.7-5.3,3.1c-0.7,0.7-1.3,1.5-1.5,2.5
		c-0.3,2,3.5,4.1,5.6,4.3c2.1,0.2,3.8-1.1,5.6-2.1c13.5-7.9,23.2-20.8,32-33.6c1.6-2.3,3.3-4.7,4.3-7.4c1.3-3.3,1.8-6.9,2.1-10.5
		c0.4-4.5,0.5-9.2-0.5-13.6c-1-4.5-3.2-8.8-6.7-11.6c-3.4-2.7-7.8-3.8-12.1-4.3c-11.1-1.2-20,1.5-30.2,6.7c0,0-0.6,0.2-2.1,0.9
		c-18.9,8.4-34.8,18.9-49.5,31.9c-24.8,18.3-44.4,43.5-56.1,71.9c-4,9.9-7.2,20.3-7.7,30.9c-0.5,10.7,1.7,21.7,7.6,30.6
		c5.9,8.9,15.8,15.4,26.6,16.3c42,1.9,81.6-12.2,117.4-31.8l0-12.3c-3.6,3.5-8,6-12.5,8.4c-27.5,14.4-57.7,23.4-88.6,26.4
		c-8,0.8-16.8,1.3-23.6-3c-0.7-0.4-0.3-0.1-1.7-1.2c-7-4.4-10.6-12.3-13.4-20.1c-2.2-6.1-3.1-12.1-2.6-18.6
		c0.5-6.2,2.2-12.6,4.6-18.4c10.7-26,27.5-49.4,48.6-67.9c11.7-10.3,24.6-19,37.6-27.4c9.5-6.2,19.1-11,30.4-14.5
		c6.3-1.7,10.1-2.3,14.8-0.3c4.7,2,8.4,6.1,10,10.9c0.8,2.6,1.4,5.3,1.2,8C220.2,185.2,218.4,191.4,217.8,191.7L217.8,191.7z"/>
	<path class="st0" d="M279.3,260.5c-0.6-2.2-1.3-4.5-2.5-6.5c-3.7-6.4-12.7-9-19.4-5.8c-3.7,1.7-6.5,4.8-9.3,7.8
		c-1.6,1.7-3.1,3.4-3.4,3.9c-7.1,5.2-14.2,10.7-19.5,17.7c-2.8,3.8-5.1,8-7.3,12.2c-2.7,5.1-5.4,10.3-5.9,16c-0.3,2.8,0,5.5,0.3,8.3
		c0.2,1.7,0.4,3.5,1.5,4.7c1.1,1.2,2.8,1.6,4.4,2c3.6,0.8,7.2,1.5,10.9,1.2c2-0.2,4-0.7,5.9-1.3c13-4.2,23.3-14.1,32.7-24
		c6.5-6.8,13.2-14.6,13.6-24C281.6,268.5,280.5,264.5,279.3,260.5L279.3,260.5z M266.7,283.7c-1.5,2.5-3.5,4.5-5.6,6.4
		c-3.5,3.2-7.1,6.4-10.7,9.4c-6,5-12.4,9.8-19.9,11.9c-1.6,0.4-3.3,0.8-4.9,0.3c-1.6-0.4-3.1-1.7-3.2-3.4c-0.1-1.1,0.5-2.2,1.1-3.2
		c5.5-8.8,16.6-13.9,19.4-23.8c0.7,0.4,1.4,0.8,2.1,1.2c4.6,2.6,12.7,1.6,19.7-0.6c0.8-0.3,2-0.4,2.3,0.4
		C267.2,282.8,267,283.3,266.7,283.7L266.7,283.7z M271,264.6c-0.1,1.8-0.4,3.5-0.9,5.2c-0.2,0.7-0.4,1.4-1,1.8
		c-0.4,0.3-0.9,0.4-1.4,0.5c-3.1,0.8-6.3,1.5-9.4,2.3c-1.2,0.3-2.4,0.6-3.6,0.5c-1.2-0.1-2.5-0.6-3.2-1.6c-0.7-1.1-0.7-2.6-0.2-3.8
		c0.5-1.2,1.4-2.2,2.4-3.1c2.9-2.8,6.1-5.2,9.6-7.2c1.1-0.6,3.3-0.4,5,0.3c0.7,0.3,1.4,0.7,1.9,1.3C271,261.9,271.1,263.3,271,264.6
		L271,264.6z"/>
	<path class="st0" d="M279.6,278.5c0-0.6-0.1-1.2-0.1-1.7C279.3,276.5,279.5,277.5,279.6,278.5L279.6,278.5z"/>
	<path class="st0" d="M343.1,260.5c-0.8-4.7-3-9.3-6.9-11.9c-1.1-0.8-2.4-1.4-3.8-1.7c-2.3-0.5-4.6-0.2-6.9,0.2
		c-2.6,0.5-5.2,1.1-7.5,2.5c-3.1,1.9-5.1,5-7.7,7.6c-2.4,2.3-5.2,4.1-8,5.9c-1.3,0.8-0.1,0.4-1.5,0.9c-2,0.7-6.8,2.2-8.9,2.5
		c-3.5,0.5-8.2,2.2-11.6,3.1c-0.4,0.1-1.3,0.1-1.6,0.4c-0.3,0.3,1.4-0.1,1.4,0.3c-0.4,2.2-0.6,4.4-0.6,6.6c0.1,0.1,0.3,0.5,0.6,1.4
		c1.6-0.4,6.6-3,10.1-4.2c0.4,2-1,3.9-2.3,5.5c-3.7,4.7-7.1,9.5-9.6,14.9c-2.5,5.4-4,11.3-3.6,17.2c0.2,2.5,0.7,5.2,2.4,7.1
		c2.2,2.6,5.8,3.4,9.1,3.5c8.2,0.1,15.8-3.7,23-7.6c6.1-3.3,12.1-6.7,17-11.7c4-4,6.9-8.9,10.3-13.5c1.9-2.6,3.9-5.2,5.1-8.2
		c0.8-2.2,1.1-4.5,1.4-6.8C343.4,269.9,343.9,265.1,343.1,260.5L343.1,260.5z M326.6,288c-6.8,6.6-14.3,12.5-22.3,17.7
		c-5.4,3.5-11.6,6.7-18,5.8c-0.5-0.1-1.1-0.2-1.5-0.6c-0.5-0.4-0.6-1.1-0.7-1.8c-0.2-2.5,0.9-5,2.1-7.2c4.2-8.3,9.6-16.1,15.9-23
		c-0.1,0-0.1-0.1,0.3-0.4c-0.1,0.1-0.2,0.3-0.3,0.4c0.1,0,0.5,0,0.7,0.1c2.6,1,4.7,3,7.3,4.2c2.7,1.2,5.7,1.3,8.6,1.1
		c4-0.3,8-1.2,11.8-2.6C330.3,284.2,328.4,286.2,326.6,288L326.6,288z M334,263c-0.1,2.4-0.3,4.8-0.4,7.2c0,0.5-0.1,1-0.3,1.4
		c-0.4,0.7-1.2,0.9-1.9,1.1c-3.8,1.1-7.7,1.8-11.6,2.1c-1.5,0.1-3.2,0.1-4.4-0.9c-1-0.9-1.4-2.4-1-3.8c0.3-1.3,1.3-2.4,2.3-3.3
		c1.2-0.9,2.5-1.6,4-1.9c0.6-0.1,1.3-0.2,1.8-0.6c0.8-0.6,0.9-1.6,1.3-2.5c0.5-1.3,1.6-2.3,2.9-2.8c-0.2,0-0.2,0,0.1,0
		c0,0-0.1,0-0.1,0c0.3,0,1.4-0.1,2.3-0.2c1.8,0,3.9,0.3,4.6,1.9C334,261.5,334,262.2,334,263L334,263z"/>
	<path class="st0" d="M597.2,293.4c0.6-2.8-1.4-5.8-0.7-8.6c-15,15-24.6,18.3-43.6,26.7c-0.5,0.2-7.3,3.4-8.7,1.5
		c-1.5-2,3.5-8.7,4.2-9.6c10.4-14.6,20.5-27.9,31-42.5c1.8-2.5,3.7-5.6,2.6-8.5c-0.9-2.4-3.5-3.7-6.1-3.8c-2.5,0-4.9,0.9-7.2,2
		c-16.1,7.3-29.2,18.4-43,29.4c-0.7,0.5-0.4-0.6-0.3-0.8c0.8-1.8,1.3-3,9.2-12c2.5-2.8,7.2-7.1,5.4-8.9c-1.7-1.7-3.9-3.2-6.2-2.6
		c-1,0.2-9.6,11.6-16.3,20.4c-8.4,12.3-10,9.2-15.1,13.3c-5.1,4.2-11.3,6.8-17.4,9.4c-9,3.8-18.1,7.7-27.1,11.5
		c-1.5,0.6-3.3,1.2-4.5,0.2c-1.8-1.5-0.3-4.4,1.3-6.1c10.5-11.4,20.9-22.8,31.4-34.2c3.1-2.3,5.2-5.6,5.7-9.1c0.6-0.6-1.3-7.6-4-6.8
		c-0.8,0.2-1.4,0.8-2,1.3c-6.6,6-13.3,12-19.3,18.7c-3.3,3.6-6.3,7.4-9.7,10.9c-11.7,12.1-27,20.5-43.5,23.7
		c-5.9,1.2-12.3,1.6-17.6-1.2c-5.3-2.8-8.6-10-5.5-15.1c2.2-3.6,6.6-5,10.6-6.2c6.6-1.9,13.2-3.9,19.8-5.8
		c7.1-2.1,14.4-4.3,20.5-8.5c6.1-4.3,10.8-11.2,10.5-18.6c-0.1-2.6-0.9-5.2-2.6-7.2c-3.8-4.1-10.4-3.4-15.8-1.8
		c-24.3,7.4-38.9,18.6-60.2,34.4c12.8-13.8,40.8-44.1,46.7-49.2c5.1-4.4,12.3-12.4,17.6-16.5c14.1-10.9,27.1-23,38.9-36.4
		c0.4-0.5,0.8-1.1,0.9-1.8c0.6-2.7-0.9-6.2-3.6-5.9c-2.8,0.4-4.8,2.5-7,4.3c-25.8,22.1-32.4,29-68.7,65.3
		c-3.6,3.6-7.5,7.9-11.2,11.3c-10.5,9.6-35.5,18.3-49.4,20.9c-8.2,12.1-1.2,9.3-1.3,9.1c2.8,1.4,6.4-0.1,11.9-2
		c6.9-2.3,18.6-7.4,23.8-9.7c-0.2,1-6.6,7.7-7.1,8.5c-6.2,8.6-9,14.2-13.8,20.8c-4.7,6.4-10.5,11.9-16.2,17.6
		c-3.3,3.3-6.2,6-5.9,11.1c0.3,5.3,3.6,5.8,8.1,4c3.7-1.5,5.8-4.8,8.1-8c3.6-4.9,6.3-8.3,10.6-12.6c4.3-4.2,16.6-22.4,24.7-24.5
		c-1.6,2.9-2.1,6.4-2.3,9.1c-0.2,3.3,0.3,7.1,1.5,10.2c3.8,9.4,14.1,13.9,23.4,15.1c13.3,1.7,27.8-4.9,38.7-12.4
		c-1.5,4.4-1.5,8.6,1.1,11.2c3,2.9,7.9,2.2,11.9,1.2c14.5-3.7,32.6-10.8,45.5-18.5c-2.9,4-9,11.4-11.2,15.7c-0.8,1.6-2.1,1.6-1,3.1
		c0.8,1.2,2.5,1,3.9,1.4c2.9,0.8,10.6-4.5,16.3-11.2c15.9-18.8,36.2-31.8,54-42c-0.5,4.4-9.8,12.4-12.3,16.2
		c-5.9,8.9-11.4,17.2-16.2,26.7c-1.7,3.3-2,7.8,0.9,10.1c1.2,0.9,1.7,1.3,3.1,1.3c5.1,0.2,10.2-1.1,15.1-2.7
		c13.8-4.6,29.2-14.1,41.9-21.1c1.2-0.6,3.7-4.2,4.4-5.3C599.4,292.7,597,294.3,597.2,293.4L597.2,293.4z M416.4,261.1
		c6.4-3.4,13.2-6.9,20.4-7c0.7,0,1.4,0,2,0.4c0.6,0.4,0.9,1.2,1,2c0.4,3-1.1,6.1-3.3,8.2c-2.2,2.1-5.1,3.4-7.9,4.7
		c-12.2,5.3-27.5,9-41,10.8C394.3,271.7,406.6,266.2,416.4,261.1L416.4,261.1z"/>
	<path class="st0" d="M771.8,242c-3.1-1.5-7.2-0.5-9.3,2.2c-1.2,1.6-1.8,3.6-2.9,5.2c-1.4,1.9-3.7,3.1-5.8,4.1
		c-25.9,12.8-52.1,24.8-78.8,35.9c-2,0.8-4.1,1.7-6.3,1.5c-2.2-0.2-4.4-1.8-4.5-4c-0.1-2.9,3-4.6,4.3-7.2c0.8-1.5,0.9-3.4,2-4.7
		c1.1-1.4,3-1.8,4.6-2.7c5.6-2.9,7.3-10.8,4.5-16.4c-2.8-5.6-9.1-9-15.3-9.7c-6.3-0.7-12.6,0.8-18.5,2.7c-19,6.1-37,17-48,33.6
		c-4.4,6.6-7.4,15.4-4.9,22.4c1.1,4.4,5.4,8.1,10,9.3c6,1.5,12.4-0.2,18.4-1.8c5-1.4,10-2.8,15.1-4.2c-0.5,3.8-3.8,6.5-6.9,8.8
		c-28.5,21.9-56.9,45.8-73.4,77.8c-4.6,9-8.3,18.7-8.4,28.9c-0.1,7,2.3,14.9,8.7,17.7c6.7,3,14.3-0.9,20.2-5.3
		c17.5-13.1,30.7-31.3,41.1-50.5c10.5-19.2,18.6-39.6,27.9-59.4c1.1-2.3,2.2-4.7,2.3-7.3c0-1.4-0.3-2.7,0-4.1
		c0.6-3.6,4.3-5.6,7.7-7.1c36.9-16.2,73.7-32.5,110.6-48.7c4.1-1.8,8.8-4.2,9.9-8.6C776.7,247.4,774.9,243.6,771.8,242L771.8,242z
		 M627.1,347.7c-14,27.9-28.6,56.6-52.3,76.8c-3.8,3.2-9.2,6.2-13.3,3.4c-2.2-1.5-3-4.3-3.4-6.9c-1.8-12.8,4.4-25.4,11.5-36.2
		c16.6-25.3,31.6-37.1,56.1-55c0.5-0.4,0.9-0.9,1.2-1.4c0.8-1.4,9.4-7.4,10.6-6.7C635.5,330.9,631.3,339.3,627.1,347.7L627.1,347.7z
		 M654.1,281.7c-1.7,2.4-3.4,4.9-5.4,7.1c-6,6.5-14.7,9.8-23,12.8c-5.3,1.9-10.7,3.8-16.3,3.9c-2.1,0-4.4-0.4-5.8-2
		c-1.7-2-1-5.1-0.1-7.5c6.3-17.8,22.1-31.8,40.4-36.1c7.8-1.8,16.2-5.5,24.2-2.4c2,0.8,4.3,2.4,4,4.6c-0.2,1.4-1.4,2.4-2.5,3.3
		C663.8,270,658.6,275.6,654.1,281.7L654.1,281.7z"/>
	<path class="st0" d="M510.2,209.2c-2,0.3-4.3,0.7-5.6,2.3c-1,1.2-1.2,2.7-1.4,4.2c-0.4,2.6-0.5,5.7,1.4,7.4c1.6,1.4,4,1.3,6.1,1.1
		c1.4-0.1,3.1-0.3,3.9-1.6c0.4-0.6,0.5-1.4,0.5-2.1c0.1-1.6,0.3-3.1,0.4-4.7c0.2-2.2,0.2-4.9-1.6-6.2
		C512.3,208.7,510.2,209.2,510.2,209.2L510.2,209.2z"/>
	<path class="st0" d="M183.3,347.5c-3.1-0.3-2.5,0.3-5.7,0.2c-1.8,0.8-4.2-0.6-5.6,0.8c-0.1,0.6-0.2,0.8-0.1,1.6
		c0.1,0,0.1,0.1,0.3,0.3c0.5,0.1,0.5-0.2,0.8,0c1.1-0.4,0.7-0.2,1.4-0.4c0.8,0.1,1.1-0.2,1.7-0.3c1.5,0.2,1.5-0.4,2.7,0
		c0.1-0.3,0.5-0.3,0.9-0.3c1.6,0.1,0.4-0.3,2-0.3c1,0,2,0.3,2.8-0.1C184.6,347.9,184.3,347.4,183.3,347.5L183.3,347.5z"/>
	<path class="st0" d="M164.9,354.9c-0.8,0-1.8,0.6-2.4,0.8c-2.1,0.4-3.4,1.2-5.2,1.2c-0.4,0-0.7-0.1-0.9-0.5c0-0.8,0.3-1.9,0.3-2.7
		c0-0.7-0.2-1.2-1-1.4c-0.6,0.1-0.8,0.6-0.9,1.2c-0.4,0.4-0.7,1.1-0.7,1.9c0,0.7,0.2,1.2,0.2,1.8c-0.9,2-2.6,3.5-4.2,4.5
		c-0.1,0.1-0.4,0.5-0.5,0.5c-0.2,0.1-0.5,0-0.7,0.2c-0.4,0.3-0.1,0.7-1.1,0.7c-1,0-1.1-0.4-1.1-1.1c0-2.2,0.9-4.2,2.3-7.3
		c0.3-0.5,0.8-0.8,0.8-1.3c0-0.3-0.3-0.4-0.3-0.6c0-0.1,0-0.2,0-0.3c0-0.2-0.4,0.1-0.4-0.3c-0.9,0-2.3,1.7-3,2.8
		c-0.5,0.8-3.2,3.1-3.6,3.1c-0.2,0-2,1.7-2.4,2.1c-0.7,0.3-1.3,0.8-1.9,1.2c-1,0.1-1.5,0.7-2.3,1c-0.8,0.1-1.6,0.8-2.4,0.8
		c-0.3,0-0.5-0.1-0.8-0.3c0.4-2.2,1.6-3.5,2.1-5.4c0.5-0.3,0.7-1,1.1-1.4c0.6-0.7,2.2-1.9,2.4-2.1c0.1,0,1.1-1,1.1-1.4
		c0-0.4-0.6-0.8-1-0.8c-1.3,0-2.7,2.4-3.2,2.4c0,0-0.1,0-0.1,0c0,0.4-0.4,0.6-0.5,0.9c-0.2,0.3-0.2,0.4-0.3,0.7
		c0,0.1-0.3,0.1-0.4,0.2c-0.1,0.1-0.1,0.4-0.2,0.5c-0.3,0.6-0.7,1-0.9,1.6c-0.3,0.2-0.2,0.7-0.3,1.1c0,0.1-0.3,0.2-0.4,0.4
		c-0.1,0.2,0,0.4-0.2,0.7c0,0.1-0.3,0.3-0.3,0.4c-0.3,0.5,0,0.9-0.4,1.2c-0.1,0.4-0.2,0.8-0.2,1.2c0,0.7,0.2,1.3,0.6,1.9
		c0.5,0.2,0.9,0.3,1.4,0.3c1.8,0,3.5-1.3,5.1-1.7c0.6-0.7,1.6-0.8,2.1-1.6c0.9-0.3,1.5-1.1,2.1-1.8c0.5-0.3,1.1-0.7,1.6-1.1
		c0.5-0.4,0.8-1,1.6-1.1c-0.1,1.1-0.7,2.5-0.7,3.8c0,1.4,0.5,2.9,2,2.9c2.6,0,5.8-2.3,7.1-3.9c0.5-0.7,0.9-2,1.6-2.4
		c0.3,0.2,0.8,0.2,1.2,0.4c0.3-0.4,0.8-0.3,1.2-0.4c1.3-0.3,2.3-0.7,3.7-0.9c1.5-0.6,2.6-0.1,3.6-1.6
		C165.2,355.7,165.4,354.9,164.9,354.9L164.9,354.9z"/>
	<path class="st0" d="M170.8,359.6c0.3-0.3,0.9-0.5,1.1-0.9c1.6-0.8,2.3-1.9,1.9-3.1c-0.9,0.1-1.6,0.7-2.4,1
		c-0.6,0.4-0.6,0.9-1.4,1.2c-0.9,0.5-1.8,1-2.8,1.5c-1,0.5-2,1.1-3.3,1.2c-0.5,0.4-1.6,1-2.3,0.5c0.1-1.1,1.1-1.4,1.6-2.1
		c0.8-0.5,1.6-2.3,2.6-2.7c0.7-0.5,0.9-1.6,1.8-1.9c0.3-1,1.4-1.2,1.6-2.3c-0.4-0.3-0.1-1.1-0.9-1.1c-0.7-0.2-0.5,0.4-0.9,0.5
		c-0.3,0.3-0.5,0.5-0.9,0.7c-0.1,0.4-0.7,0.4-0.7,0.9c-0.4,0.1-0.8,0.3-0.9,0.7c-1.2,0.9-2.5,3.1-3.6,4.1c-0.6,0.4-1.5,1.9-1.8,2.6
		c-0.1,0.3-0.3,0.9-0.1,1.6c0,0.6,0.6,0.5,0.7,1c0.8-0.2,1.7,0,2.6-0.1c0.1,0,0.4-0.3,0.5-0.4c0.4-0.1,0.7,0.2,0.9-0.2
		c1-0.4,2.1-0.6,3-1.1c0-0.2,1.2-0.8,1.2-0.5C168.7,360,170.3,360.2,170.8,359.6L170.8,359.6z"/>
	<path class="st0" d="M167.7,346.6c0.6,0.3,1.8,0.6,2.3,0c-0.1-1-0.2-1.9-0.5-2.6C167.6,343.7,167.6,345.2,167.7,346.6L167.7,346.6z
		"/>
	<path class="st0" d="M186.9,337.7c0,0.3-0.2,0.3-0.2,0.6c-0.8,0.5-1.1,1.4-1.7,2c-0.6,0.7-1.1,1.4-1.5,2.1c-0.8,0.9-1.3,2-2,3
		c-0.3,0.5-0.8,0.9-1.1,1.4c-0.4,0.5-0.7,1-1.1,1.5c-0.3,0.3-0.8,0.7-0.9,0.9c-0.3,0.3-0.7,0.8-0.8,1.1c-0.6,0.8-1.2,2-1.7,2.6
		c-0.4,0.4-0.5,1-1,1.1c-0.1,0.5-0.2,0.9-0.6,1.2c-0.6,0.7-0.9,1.5-1.5,2.2c-0.2,0.9-1,1.4-1.5,2.1c-0.5,0.8-0.7,1.5-1.5,2.2
		c-0.3,0.9-1.1,1.5-1.5,2.3c-1,1.5-1.7,3-3,4.3c-0.1,0.4-0.4,0.8-0.7,1.1c-0.3,0.4-0.4,0.9-0.6,1.2c-0.5,0.7-1.3,1.3-1,2.6
		c1.4,0.6,2.9-0.8,3.6-1.6c-0.1-0.5-0.2-0.9-0.3-1.4c0.7-0.7,0.9-1.7,1.8-2.4c0.3-1,1.3-1.7,1.4-2.6c0.8-0.7,1.2-1.6,1.8-2.4
		c0.6-0.8,1.1-1.7,1.8-2.6c0.2-0.7,0.7-1.2,1.2-1.7c0.4-0.8,0.8-1.4,1.1-2.2c0.9-0.5,1.2-1.4,1.7-2.2c0.7-0.5,1.1-1.5,1.6-2.2
		c0.6-0.7,1.4-1.3,1.7-2.2c0.8-0.6,1.1-1.8,1.6-2.2c0.2-0.3,0.6-0.5,0.9-0.7c-0.2-0.6,0.4-0.7,0.5-1c0.8-0.5,1-1.3,1.4-2
		c0.9-0.1,0.8-0.8,1.4-1.2c0.3-0.5,0.9-0.7,0.9-1.4c0.7-0.3,0.6-1,0.9-1.5c0.3-0.5,0.9-0.8,0.7-1.6
		C188.2,337.6,187.8,337.3,186.9,337.7L186.9,337.7z"/>
	<path class="st0" d="M188.9,354.9c-0.3,0.9-1.1,1.4-1.2,2.3c-1,1-0.6,1.2-1,1.8c-0.3,0.5-1,1-1,1.7c0,0,0,0.1,0,0.1
		c-0.6,0.1-0.3,1-0.8,1.1c0.1,0.9-0.1,1.4-0.1,2.1c0.1,1.2,1.3,1.4,2.4,1.3c2.6-0.2,4.7-1.6,6.8-2.6c0.6-0.3,1.4-0.9,1.6-1.2
		c0.7-0.7,2.2-1.6,2.1-2.6c0-0.5-0.4-0.8-0.7-0.8c-0.4,0-1.5,1-1.8,1.4c-0.5,0.6-1.1,1.1-1.6,1.3c-0.9,0.5-1.6,1.3-2.4,1.6
		c-0.7,0.4-1.7,0.7-1.9,0.9c-0.6,0-1,0.2-1.5,0.2c-0.4,0-0.9-0.1-1.2-0.5c0.1-0.2,0.2-0.4,0.3-0.6c0.1,0,0.1,0,0.1-0.1
		c0-0.1-0.2-0.2-0.2-0.4c0,0,0-0.1,0.1-0.2c0.6-0.9,1.1-1.9,1.6-2.9c0.9-0.9,1-2.3,1.8-2.7c0.2-0.9,0.8-1.6,0.9-1.8
		c0.1-0.2,1.5-1.8,1.5-2.4c0-0.5,0.6-1,0.6-1.8c-0.3-0.3-0.7-0.6-0.9-1c-1.3,0.4-1.9,1.3-2.9,1.9c-0.6,0.2-1,1.1-1.5,1.2
		c-0.5,0.1-0.6,1-1.1,1c-0.1,0-0.1,0-0.2,0c-0.7,1.2-2.6,2.7-2.6,2.7c0,0-0.1,0-0.2-0.1c0-0.4,0.2-0.6,0.5-0.7
		c0.2,0,1.4-1.6,1.4-2.5c0.9-0.3,0.8-1.5,1.8-1.7c0.1-0.5,0.3-0.9,0.8-1.1c0,0,0-0.1,0-0.1c0-0.6,0.9-0.7,0.9-0.9
		c0-0.1,0-0.2-0.1-0.3c0-0.1,0.4-0.3,0.5-0.4c0.1-0.1,0-0.6,0.2-0.6c0.5,0,2.4-2.6,2.4-2.6c0,0,0-0.1-0.1-0.2c0-0.2,0.2-0.2,0.3-0.2
		c0,0,0.1,0,0.1,0c0-0.1,1.6-1.8,2-2.5c1.6-0.2,1.3-1.6,2.1-2.1c0.2-0.5,0.8-0.7,0.8-1.5c0-0.3-0.3-0.3-0.4-0.3
		c-0.2,0-0.4,0.1-0.6,0.1c-0.1,0-0.2,0-0.4-0.1c-1.6,1.5-3.2,3-4.5,4.5c-0.5,0.6-0.8,1.3-1.3,1.8c-0.4,0.5-1.1,0.9-1.5,1.5
		c-0.1,0.2,0,0.4-0.1,0.5c-0.1,0.2-0.4,0.2-0.5,0.4c-1.4,1.8-2.2,3.1-3.2,4.4c-0.7,0.3-0.6,1.3-1.3,1.7c-1.4,1.7-2.5,3.6-3.7,5.5
		c-0.4,0.2-0.4,0.5-0.5,0.9c-0.6,0.1-1.1,2-1.8,2.9c-0.4,1.1-1.6,1.8-1.6,3.1c0,0.4,0.2,1.1,0.5,1.1c0.6,0,0.6-0.6,1.2-0.6
		c0.1,0,1-1,1-1.3c0-0.4,0.6-0.8,0.8-1.1c0.6-0.8,0.9-1.9,2-2.2c0-1.2,1-1.5,1.4-2.4c0.6-0.4,1-1,1.5-1.5c0.2-0.2,0.5-0.3,0.7-0.4
		c0,0,1.5-1.7,1.8-2.4c1.7-0.4,2-2,3.5-2.5C190.7,352.5,189.5,354.2,188.9,354.9L188.9,354.9z"/>
	<path class="st0" d="M271.7,344.2v-5.1h1.8v-1.5h-5.3v1.5h1.8v5.1H271.7L271.7,344.2z M282,344.2v-6.5h-1.7v2.5h-2.7v-2.5h-1.7v6.5
		h1.7v-2.6h2.7v2.6H282L282,344.2z M289.5,344.2v-1.5h-3.1v-1.1h3v-1.5h-3v-1h3.1v-1.5h-4.8v6.5H289.5L289.5,344.2z M302.5,344.2
		l-2.5-6.5h-2.1l-2.5,6.5h1.9l0.3-0.9h2.6l0.3,0.9H302.5L302.5,344.2z M299.8,341.8h-1.7l0.8-2.5L299.8,341.8L299.8,341.8z
		 M307.3,344.3c2.1,0,3.1-1.1,3.1-2.8v-3.9h-1.7v3.8c0,0.8-0.5,1.3-1.4,1.3c-0.9,0-1.4-0.6-1.4-1.3v-3.8h-1.7v3.9
		C304.2,343.2,305.2,344.3,307.3,344.3L307.3,344.3z M315.5,344.3c1.8,0,2.7-0.9,2.7-2.2c0-2.4-3.7-1.8-3.7-2.7
		c0-0.3,0.2-0.5,0.7-0.5c0.6,0,1.4,0.2,1.9,0.7l0.9-1.2c-0.7-0.6-1.6-0.9-2.7-0.9c-1.7,0-2.6,1-2.6,2.1c0,2.5,3.7,1.8,3.7,2.7
		c0,0.3-0.4,0.5-0.9,0.5c-0.9,0-1.6-0.4-2.1-0.9l-0.9,1.3C313.3,343.9,314.2,344.3,315.5,344.3L315.5,344.3z M323.6,344.2v-5.1h1.8
		v-1.5h-5.3v1.5h1.8v5.1H323.6L323.6,344.2z M333.3,344.2l-1.3-2.4c0.6-0.2,1.3-0.8,1.3-2c0-1.2-0.8-2.2-2.3-2.2h-3.3v6.5h1.7V342
		h0.9l1.1,2.2H333.3L333.3,344.2z M330.8,340.5h-1.3v-1.4h1.3c0.4,0,0.8,0.3,0.8,0.7C331.6,340.3,331.2,340.5,330.8,340.5
		L330.8,340.5z M342.2,344.2l-2.5-6.5h-2.1l-2.5,6.5h1.9l0.3-0.9h2.6l0.3,0.9H342.2L342.2,344.2z M339.5,341.8h-1.7l0.8-2.5
		L339.5,341.8L339.5,341.8z M348.5,344.2v-1.5h-2.6v-5.1h-1.7v6.5H348.5L348.5,344.2z M352.7,344.2v-6.5H351v6.5H352.7L352.7,344.2z
		 M361.7,344.2l-2.5-6.5h-2.1l-2.5,6.5h1.9l0.3-0.9h2.6l0.3,0.9H361.7L361.7,344.2z M359.1,341.8h-1.7l0.8-2.5L359.1,341.8
		L359.1,341.8z M369.9,344.2v-6.5h-1.7v3.6l-2.6-3.6h-1.7v6.5h1.7v-3.8l2.8,3.8H369.9L369.9,344.2z"/>
	<path class="st0" d="M457.6,338.2v-0.4h-0.7h-7.6h-0.8v0.4l2,1.8c0.5,0.4,0.7,0.7,0.9,1.1c0.1,0.2,0.1,0.5,0.1,0.8
		c0,1-0.9,4.2-1.1,4.8l-7.5,26.2l-8.1-29.3c-0.1-0.4-0.4-1.4-0.4-2c0,0,0,0,0,0c0-0.1,0-0.1,0-0.1c0,0,0-0.1,0-0.1
		c0-0.6,0.1-1.2,0.9-1.9l1.6-1.3v-0.3h-13.1v0.3l1.7,1.7c0.4,0.4,0.6,0.8,0.8,1.4c0,0,0,0.1,0,0.1c0,0.1,0.1,0.2,0.1,0.3
		c0.1,0.4,0.3,0.9,0.4,1.3l2.1,7.8l-6.4,22.2l-8.1-29.3c-0.3-1.2-0.4-1.9-0.4-2.2c0,0,0,0,0,0c0,0,0,0,0,0c0-0.6,0.1-1.2,0.9-1.9
		l1.6-1.3v-0.3h-13.1v0.3l1.7,1.7c0.2,0.3,0.4,0.5,0.6,0.8c0.3,0.6,0.6,1.4,0.8,2.3l11.7,43.8l0.1,0.4h3l8.9-31.9l8.5,31.9h3
		l12.4-44.4c0.2-0.6,0.4-1.1,0.6-1.5c0.4-0.7,0.8-1.2,1.2-1.6L457.6,338.2L457.6,338.2z"/>
	<path class="st0" d="M261.9,338.5v-0.4h-0.7h-7.6h-0.8v0.4l2,1.8c0.5,0.4,0.7,0.7,0.9,1.1c0.1,0.2,0.1,0.5,0.1,0.8
		c0,1-0.9,4.2-1.1,4.8l-7.5,26.2l-8.1-29.3c-0.1-0.4-0.4-1.4-0.4-2c0,0,0,0,0,0c0-0.1,0-0.1,0-0.1c0,0,0-0.1,0-0.1
		c0-0.6,0.1-1.2,0.9-1.9l1.6-1.3v-0.3h-13.1v0.3l1.7,1.6c0.4,0.4,0.6,0.8,0.8,1.4c0,0,0,0.1,0,0.1c0,0.1,0.1,0.2,0.1,0.3
		c0.1,0.4,0.3,0.9,0.4,1.3l2.1,7.8l-6.4,22.2l-8.1-29.3c-0.3-1.2-0.4-1.9-0.4-2.2c0,0,0,0,0,0c0,0,0,0,0,0c0-0.6,0.1-1.2,0.9-1.9
		l1.6-1.3v-0.3h-13.1v0.3l1.7,1.6c0.2,0.3,0.4,0.5,0.6,0.8c0.3,0.6,0.6,1.4,0.8,2.3l11.7,43.8l0.1,0.4h3l8.9-31.9l8.5,31.9h3
		l12.4-44.4c0.2-0.6,0.4-1.1,0.6-1.5c0.4-0.7,0.8-1.2,1.2-1.6L261.9,338.5L261.9,338.5z"/>
	<path class="st0" d="M328.1,387.2v-0.4l-2-2c-0.5-0.4-0.7-0.7-0.7-1.7h0v-25c0-6.6-2.8-9.9-8.4-9.9c-3.2,0-6.5,2.5-9.2,6.3
		c-1-3.9-3.7-6.3-7.9-6.3c-3.9,0-7.1,4.1-8.7,6.2v-6.2h0v-0.3h-0.4l-10,4.3v0.4l1.6,1.2c0.6,0.4,0.9,0.9,1.1,1.7l0,0
		c0,0.2,0.1,0.5,0.1,0.8v27c0,0.1,0,0.2,0,0.3c0,0.7-0.2,0.9-0.6,1.3l-2,2v0.4h0.4l0,0h12v0h0.4v-0.4l-2-2c-0.3-0.3-0.5-0.5-0.6-0.8
		c0-0.3-0.1-0.5-0.1-0.8V356c1-1.3,2.7-2.2,5.1-2.2c3,0,4.5,2,4.5,6.3v23.1h0c0,1-0.1,1.3-0.6,1.7l-2,2v0.4h0.4v0h12v0h0.4v-0.4
		l-2-2c-0.3-0.3-0.5-0.5-0.6-0.8c0-0.2-0.1-0.5-0.1-0.8v-23.7c0-1-0.1-2.8-0.2-3.8c2-1.8,3.2-2.2,5-2.2c3,0,4.7,2.3,4.7,6.5v23.1
		c0,0.3,0,0.6-0.1,0.9c-0.1,0.3-0.2,0.5-0.6,0.8l-2,2v0.4h0.4v0h12v0H328.1L328.1,387.2z"/>
	<path class="st0" d="M334.5,364.9h16.8v-0.6c0-9.7-4.2-16-10.8-16c-6.5,0-13.6,8.3-13.6,20.7c0,13,6.5,18.8,13,18.8
		c4.9,0,8.3-3.4,10.4-9.3l0.3-0.8l-0.6-0.3l-0.4,0.7c-1.3,2.3-3.3,4.3-6.5,4.3c-7.8,0-8.7-11.6-8.7-16.6V364.9L334.5,364.9z
		 M340.2,350.4c2.8,0,3.9,5.4,4.1,10.5c0.1,2.7-0.7,2.7-1,2.7h-8.6C335,357.3,336.9,350.4,340.2,350.4L340.2,350.4z"/>
	<path class="st0" d="M457.5,364.9h16.8v-0.6c0-9.7-4.2-16-10.8-16c-6.5,0-13.6,8.3-13.6,20.7c0,13,6.5,18.8,13,18.8
		c4.9,0,8.3-3.4,10.4-9.3l0.3-0.8l-0.6-0.3l-0.4,0.7c-1.3,2.3-3.3,4.3-6.5,4.3c-7.8,0-8.7-11.6-8.7-16.6V364.9L457.5,364.9z
		 M463.2,350.4c2.8,0,3.9,5.4,4.1,10.5c0.1,2.7-0.7,2.7-1,2.7h-8.6C458,357.3,459.9,350.4,463.2,350.4L463.2,350.4z"/>
	<path class="st0" d="M482.5,364.9h16.8v-0.6c0-9.7-4.2-16-10.8-16c-6.5,0-13.6,8.3-13.6,20.7c0,13,6.5,18.8,13,18.8
		c4.9,0,8.3-3.4,10.4-9.3l0.3-0.8l-0.6-0.3l-0.4,0.7c-1.3,2.3-3.3,4.3-6.5,4.3c-7.8,0-8.7-11.6-8.7-16.6V364.9L482.5,364.9z
		 M488.2,350.4c2.8,0,3.9,5.4,4.1,10.5c0.1,2.7-0.7,2.7-1,2.7h-8.6C483.1,357.3,484.9,350.4,488.2,350.4L488.2,350.4z"/>
	<path class="st0" d="M380,387.2v-0.4l-2-2c-0.5-0.4-0.7-0.7-0.7-1.7v-3l0,0v-22c0-6.6-2.8-9.9-8.4-9.9c-3.9,0-7,4-8.7,6.3v-0.8h0
		V348h-0.4l-10.1,4.4v0.4l1.6,1.2c0.8,0.6,1.3,1.3,1.3,2.9v0.8h0v23.4l0,0v2.3c0,1-0.1,1.2-0.6,1.7l-2,2v0.4h0.4h12h0.4v-0.4l-2-2
		c-0.5-0.4-0.7-0.7-0.7-1.6c0,0,0-0.1,0-0.1V356c0.9-1.1,2.6-2.2,5-2.2c3,0,4.5,2.1,4.5,6.3v23.1c0,0.3,0,0.5,0,0.7
		c0,0.3-0.1,0.5-0.2,0.6c0,0,0,0,0,0l-0.3,0.3c0,0,0,0-0.1,0.1l-2,2v0.4h0.4h12H380L380,387.2z"/>
	<path class="st0" d="M282.6,367.8c0-11.9-5.6-19.6-14.2-19.6c-8.3,0-14.5,8.6-14.5,20c0,12.4,5.1,19.6,14,19.6
		C275.1,387.8,282.6,380.9,282.6,367.8L282.6,367.8z M274.9,380.7c-0.6,3.4-2,5.2-4.3,5.5h0c-2.2,0.3-4-0.9-5.4-3.9
		c-1.3-2.8-2.4-7-3.2-13.2c-1-6.9-1.8-18.5,3.6-19.3c0.2,0,0.3,0,0.5,0c3.8,0,6.8,6.2,8.4,17.6C275.3,373.3,275.4,377.7,274.9,380.7
		L274.9,380.7z"/>
	<path class="st0" d="M403.2,358.7l-2.1-9.3l-0.1-0.2c-1.5-0.6-3.7-1.2-7.1-1.2c-6.6,0-11.4,4.7-11.4,11.2c0,4.9,2.9,7.5,6.4,10.2
		l2.2,1.8c3.2,2.2,6.1,4.8,6.1,8.6c0,3.5-1.9,5.6-5.1,5.6c-3.6,0-7.8-4.3-9.8-9.8l-0.2-0.5l-2.1,0.1l3,10l0.2,0.1
		c2.6,1.5,5.4,2.2,9.1,2.2c6.6,0,11.4-4.6,11.4-11c0-5-3.6-8.1-6.5-10.5l-3.6-3.3c-2.8-2.4-5-4.4-5-7.4c0-1.2,0.3-5.2,4.3-5.2
		c2.5,0,7.1,3.3,9.4,8.1l0.1,0.3L403.2,358.7L403.2,358.7z"/>
	<path class="st0" d="M567.7,349.8v-0.4h-7.1v0.4l1.6,1.4c0.4,0.4,0.5,1.4,0.5,1.7c0,0.7-0.4,2.3-0.6,3.2l-5.1,17.5l-5.7-19.5l0,0
		c-0.2-0.7-0.2-1-0.3-1.3c-0.1-0.5,0.2-1.2,0.5-1.5l1.8-1.6v-0.4h-12.6v0.4l2,1.8c0.2,0.2,0.5,0.6,0.7,1l10.2,36.6l-1.4,4.3
		c-1.1,3.5-2.3,5.7-3.9,5.7c-1,0-2.1-1.2-2.8-1.9c-0.7-0.7-1.2-1-2.1-1c-1.4,0-3.2,0.8-3.2,3.8c0,2.9,1.4,4.3,4.3,4.3
		c6.6,0,9.3-9.7,10.7-15l10.2-36.9c0.2-0.8,0.6-1.1,0.6-1.1L567.7,349.8L567.7,349.8z"/>
	<path class="st0" d="M386.5,343.6c0-3.7-2.2-5.4-4.3-5.4c-2.5,0-4.1,2.2-4.1,4.3c0,1.7,0.8,3.1,2.3,3.9l0.1,0.1
		c1,0.5,2.2,1.2,2.2,2c0,2-1.5,3.7-3.9,5.5l-0.8,0.5l0.5,0.8l1.1-0.7C386.1,350.5,386.5,347.1,386.5,343.6L386.5,343.6z"/>
	<path class="st0" d="M525.1,381.7l-9.6-18.8l6.9-8.4c1.9-2.2,3.3-3.6,4.6-4.5l0.9-0.7v-0.4h-9.5v0.4l2.2,2c0.5,0.5,0.8,0.9,0.8,1.3
		c0,0.7-0.5,1.5-1.8,3.1l-11.2,13.1l0-33.1h-0.4l-10.1,4.3v0.4l1.6,1.2c0.7,0.7,1.2,1.3,1.2,2.6v37.5h0v1.8c0,1-0.1,1.3-0.6,1.7
		l-2,2v0.4h0.4h12h0.4v-0.4l-2-2c-0.5-0.4-0.7-0.7-0.7-1.7v-1.9h0v-8.8l1.8-2.1l7.8,13.6c0.4,0.6,0.5,1.1,0.5,1.3
		c0,0.3-0.2,0.4-0.6,0.9l-0.7,0.7v0.4H529v-0.4l-1.8-1.6C526.5,384.4,525.6,382.6,525.1,381.7L525.1,381.7z"/>
	<path class="st0" d="M541.4,387.2v-0.4l-2-2c-0.5-0.4-0.7-0.7-0.7-1.7v-1.9h0v-8.8v-3.7v-32.8h0v-0.3h-0.4l-10.1,4.3v0.4l1.6,1.2
		c0.8,0.7,1.3,1.4,1.3,2.9l0,37.2h0v1.8c0,1-0.1,1.3-0.6,1.7l-2,2v0.4h0.4h12H541.4L541.4,387.2z"/>
</g>
</svg>
