<?xml version="1.0" encoding="utf-8"?>
<!-- Generator: Adobe Illustrator 27.4.1, SVG Export Plug-In . SVG Version: 6.00 Build 0)  -->
<svg version="1.1" xmlns="http://www.w3.org/2000/svg" xmlns:xlink="http://www.w3.org/1999/xlink" x="0px" y="0px"
	 viewBox="0 0 595.3 170.1" style="enable-background:new 0 0 595.3 170.1;" xml:space="preserve">
<style type="text/css">
	.st0{clip-path:url(#SVGID_00000104674490816965427340000006498203776136682377_);fill:#FFFFFF;}
</style>
<g id="Layer_1">
	<g>
		<defs>
			<rect id="SVGID_1_" x="26" y="37.8" width="554.5" height="98.5"/>
		</defs>
		<clipPath id="SVGID_00000090267182815889649880000017809159323223821757_">
			<use xlink:href="#SVGID_1_"  style="overflow:visible;"/>
		</clipPath>
		<path style="clip-path:url(#SVGID_00000090267182815889649880000017809159323223821757_);fill:#FFFFFF;" d="M335.5,89.3v46.4h13.1
			V89.3l11.2-50.8h-13.1l-4.6,24.8l-4.4-24.8h-13.3L335.5,89.3z M277.6,135.7h12.9V93.1c5.5,2.3,9.8,23.4,10.1,42.6h13.2
			c-1.6-24.3-4.4-42.5-12.2-49.8c7-5.5,8.9-13.5,8.9-20.5c0-7.2-2.1-15.1-7.6-20.5c-3.2-3.2-8.4-6.3-18.4-6.3h-7V135.7z M290.5,52.5
			c5.1,1.8,6.8,8.5,6.8,14.3c0,4.9-2,12-6.8,13.8V52.5z M227.7,51.2h9.3v84.4h12.9V51.4h9.3V38.6h-31.5V51.2z M176.8,135.7h12.9
			l-1.5-53.9h0.6l8.8,53.9h11.6V38.6h-13.1l1.5,50.6h-0.7l-8.3-50.6h-11.8V135.7z M121.5,109.2c0,12.9,5.4,27.1,16.7,27.1
			c7.3,0,15.7-9.3,15.7-25.9V38.6H141v72.1c0,5.4-1.1,8.3-3,10.6c-2.3-1.7-3.5-6.6-3.5-11.8V38.6h-12.9V109.2z M67.5,88.5
			c0,13.2,2,47.8,17.7,47.8c2.9,0,5.1-1.2,7.1-3.2c6.1-6.1,10.1-21.6,10.1-45c0-27.1-4.4-41.1-10.2-47c-2-2-4.1-3.2-7.1-3.2
			c-3.2,0-5.5,1.3-7,2.8C69.4,49.4,67.5,69.4,67.5,88.5 M84.9,52.7c2.8,4.4,3.9,11.2,3.9,32.8c0,21.5-0.1,29.4-3.7,36.2
			c-3.3-5.5-4-12.7-4-38.4C81.1,65.4,82,57.3,84.9,52.7 M54.1,121.4c-1,0.6-2.2,1.2-3.8,1.2c-8.5,0-10.6-17.4-10.6-29.6v-7.7
			c0-19.2,2.6-34.4,10.9-34.4c1.2,0,2.8,0.6,3.8,1.1V39.7c-1.7-1-4-1.8-6.5-1.8C35.2,37.8,26,58.3,26,84.3c-0.1,30.4,7.2,52,22,52
			c2.7,0,4.6-0.6,6.1-2V121.4z"/>
		<path style="clip-path:url(#SVGID_00000090267182815889649880000017809159323223821757_);fill:#FFFFFF;" d="M558,135.7h22.3v-12.8
			h-9.3V94.7h9.2V82.1h-9.2V51.4h9.4V38.6H558V135.7z M520.2,135.7H541v-12.9h-7.7V38.6h-13.1V135.7z M478.7,89.3v46.4h13.1V89.3
			L503,38.6H490l-4.6,24.8l-4.4-24.8h-13.3L478.7,89.3z M421.3,51.2h9.3v84.4h12.9V51.4h9.3V38.6h-31.5V51.2z M378.6,134.9
			c2.9,0.9,6,1.3,8.1,1.3c8.9,0,18.1-6.1,18.1-21.3c0-10.5-3.3-20-6.6-28.8c-3.3-8.9-6.6-17.8-6.6-24.4c0-6.6,3-10.9,8.1-10.9
			c1.8,0,3.8,0.7,4.9,1.3V39.3c-2.3-0.7-4.8-1.5-8.4-1.5c-11.8,0-17.4,9.4-17.4,24.2c0,10.1,3.3,19.3,6.7,27.8
			c3.3,8.5,6.6,17.1,6.6,24.2c0,6.3-3.5,8.9-7.4,8.9c-2.7,0-4.1-0.6-5.9-1.3V134.9z"/>
	</g>
</g>
<g id="Layer_2">
</g>
</svg>
