<?xml version="1.0" encoding="utf-8"?>
<!-- Generator: Adobe Illustrator 27.4.1, SVG Export Plug-In . SVG Version: 6.00 Build 0)  -->
<svg version="1.1" id="Layer_1" xmlns="http://www.w3.org/2000/svg" xmlns:xlink="http://www.w3.org/1999/xlink" x="0px" y="0px"
	 viewBox="0 0 595.3 841.9" style="enable-background:new 0 0 595.3 841.9;" xml:space="preserve">
<style type="text/css">
	.st0{fill:#FFFFFF;}
</style>
<path class="st0" d="M497.2,438c0,30-13.1,33.2-27.8,33.2v-4.4v-52.7v-7.6c13.8,0,15.5,9.3,15.5,23.4h1.9v-49.2h-1.9
	c0,14.1-1.7,23.9-15.5,23.9V400v-56.6c14.6,0,26.6,2.4,26.6,33h1.9v-34.8H444v1.9h9.9v127.8H444v1.9H499v-35H497.2z M337.6,471.2
	h-9.9v1.9h54.7v-35h-1.9c0,30-12.8,33.2-27.4,33.2v-4.4v-52.7v-70.7h9.9v-1.9h-35.4v1.9h9.9V471.2z M221.3,471.2h-9.9v1.9H266v-35
	h-1.9c0,30-12.8,33.2-27.4,33.2v-4.4v-52.7v-70.7h9.9v-1.9h-35.4v1.9h9.9V471.2z M148.2,438c0,30-13.1,33.2-27.8,33.2v-4.4v-52.7
	v-7.6c13.8,0,15.5,9.3,15.5,23.4h1.9v-49.2h-1.9c0,14.1-1.7,23.9-15.5,23.9V400v-56.6c14.6,0,26.6,2.4,26.6,33h1.9v-34.8H95v1.9h9.9
	v127.8H95v1.9h55.1v-35H148.2z"/>
<path class="st0" d="M494.6,495.5h-5.4l2.7-6.3L494.6,495.5z M499,501.6l-7.1-16.6l-7.3,16.6h1.9l1.9-4.5h6.8l1.9,4.5H499z
	 M445.8,485.8h-1.8v15.9h1.8V485.8z M405.1,501.6V500h-4.4v-14.2H399v15.9H405.1z M355.7,495.5h-5.4l2.7-6.3L355.7,495.5z
	 M360.2,501.6L353,485l-7.3,16.6h1.9l1.9-4.5h6.8l1.9,4.5H360.2z M305.5,490.2c0,1.9-1.3,2.9-3.5,2.9h-1.1v-5.7h1.1
	C304.3,487.4,305.5,488.3,305.5,490.2 M308.3,501.6l-5-7.1c2.4-0.2,4-1.9,4-4.3c0-1.5-0.6-2.8-1.8-3.6c-0.9-0.6-2-0.9-3.8-0.9h-2.5
	v15.9h1.8v-6.9h0.5l4.8,6.9H308.3z M260.1,487.4v-1.7h-9.5v1.7h3.9v14.2h1.8v-14.2H260.1z M212.6,497c0-2-1-3.3-3.6-4.4l-1.5-0.7
	c-1.6-0.7-2.2-1.4-2.2-2.4c0-1.4,1.1-2.4,2.6-2.4c1.2,0,1.9,0.4,2.7,1.7l1.4-0.9c-1-1.6-2.3-2.5-4.1-2.5c-2.5,0-4.4,1.8-4.4,4.1
	c0,1.8,1,2.9,3.2,3.9l1.4,0.7c2,0.9,2.7,1.6,2.7,2.9c0,1.8-1.4,3.1-3.2,3.1c-1.7,0-2.8-1-3.2-2.9l-1.7,0.5c0.6,2.6,2.4,4.1,4.9,4.1
	C210.4,501.9,212.6,499.8,212.6,497 M162.9,495.9v-10.2h-1.8v9.7c0,1.7-0.1,2.4-0.5,3c-0.6,1-2,1.7-3.4,1.7s-2.7-0.7-3.3-1.7
	c-0.4-0.7-0.5-1.4-0.5-3v-9.7h-1.8v10.2c0,1.7,0.3,2.8,1,3.8c1,1.3,2.8,2.2,4.6,2.2c1.8,0,3.6-0.8,4.6-2.2
	C162.6,498.8,162.9,497.7,162.9,495.9 M108.3,495.5h-5.4l2.7-6.3L108.3,495.5z M112.7,501.6l-7.1-16.6l-7.3,16.6h1.9l1.9-4.5h6.8
	l1.9,4.5H112.7z"/>
</svg>
