<?xml version="1.0" encoding="utf-8"?>
<!-- Generator: Adobe Illustrator 27.4.1, SVG Export Plug-In . SVG Version: 6.00 Build 0)  -->
<svg version="1.1" id="Layer_1" xmlns="http://www.w3.org/2000/svg" xmlns:xlink="http://www.w3.org/1999/xlink" x="0px" y="0px"
	 viewBox="0 0 2083 833" style="enable-background:new 0 0 2083 833;" xml:space="preserve">
<style type="text/css">
	.st0{fill:#FFFFFF;}
</style>
<g transform="translate(0.000000,833.000000) scale(0.100000,-0.100000)">
	<path class="st0" d="M3815,6293c-75-27-139-68-193-123c-169-172-178-452-19-608c82-80,142-105,263-110c154-6,252,28,356,126
		c97,91,148,207,148,337c0,173-79,296-235,367C4066,6313,3889,6319,3815,6293z"/>
	<path class="st0" d="M11838,6291c-169-55-293-204-321-382c-28-179,55-344,210-421c58-28,79-33,164-36c79-4,111,0,166,16
		c129,40,229,125,289,247c109,221,35,461-175,562c-49,24-70,27-166,30C11918,6309,11883,6306,11838,6291z"/>
	<path class="st0" d="M8830,6180c-178-22-301-74-406-172c-167-157-241-343-269-683c-3-38-8-87-11-107l-6-38h-189
		c-188,0-189,0-193-22c-3-13-12-111-21-218c-8-107-18-214-21-237l-5-43l193-2l194-3l-67-765c-37-421-69-786-72-812l-4-48h343h343
		l5,43c8,56,136,1535,136,1565v22h250c138,0,250,3,250,8c0,4,9,106,20,227s20,235,20,253v32h-245h-245v33c0,74,21,248,35,288
		c21,59,59,105,108,132c37,19,57,22,167,22c69,0,148-4,176-8l50-8l18,223c10,123,19,234,20,248c1,23-5,27-89,48
		c-72,19-122,25-250,27C8977,6187,8871,6185,8830,6180z"/>
	<path class="st0" d="M6755,6098c-7-55-265-3015-265-3046v-22l342,2l342,3l132,1505c72,828,133,1526,135,1553l4,47h-342h-342
		L6755,6098z"/>
	<path class="st0" d="M19760,6133c0-23-101-1174-106-1201l-5-33l-43,58c-80,109-184,182-337,235c-92,32-98,33-254,32
		c-138-1-173-5-257-27c-359-95-647-361-784-724c-75-198-104-486-69-693c54-324,215-555,484-694c142-73,253-98,436-99
		c135-1,159,2,238,26c164,50,312,139,402,239l47,53l-6-80c-4-44-9-106-13-137l-6-58h347c328,0,346,1,346,18c0,23,257,2981,265,3045
		l6,47h-346C19915,6140,19760,6137,19760,6133z M19305,4611c116-52,212-161,256-291c27-81,29-217,6-307c-35-134-115-257-218-335
		c-110-83-208-113-349-106c-245,12-420,208-423,473c-2,265,159,495,403,577C19060,4648,19235,4642,19305,4611z"/>
	<path class="st0" d="M1435,5220c-242-38-460-154-637-339c-180-188-285-421-324-715c-63-477,129-880,503-1053c171-79,409-111,591-79
		c176,31,323,103,448,219c44,41,74,63,74,53c0-63-34-373-46-421c-54-212-219-336-479-360c-99-10-217,9-292,45
		c-101,50-180,157-198,268l-7,42H728H387l5-102c9-193,80-342,233-495c82-81,104-97,206-147c167-81,292-109,544-122
		c149-7,361,8,504,35c425,83,718,332,824,702c35,120,51,268,142,1311c52,598,95,1094,95,1103c0,13-42,15-344,15h-343l-7-97
		c-4-54-9-118-13-142l-6-43l-27,43c-75,120-217,217-385,264C1743,5224,1522,5233,1435,5220z M1893,4603c314-148,362-599,93-869
		c-120-120-244-170-406-162c-82,4-108,10-163,36c-115,53-192,140-239,268c-33,90-31,262,4,364c35,101,70,160,135,230
		c65,71,136,117,223,148c55,19,81,22,175,20C1815,4635,1831,4632,1893,4603z"/>
	<path class="st0" d="M13565,5214c-363-65-668-285-833-601c-53-102-106-261-128-383c-25-140-24-386,3-510c87-404,362-655,793-725
		c123-19,353-19,489,1c361,53,672,257,810,533c31,60,71,167,71,188c0,2-152,3-338,3h-337l-24-45c-31-59-109-131-175-161
		c-72-33-197-48-291-35c-111,16-178,45-239,104c-69,68-96,138-104,264l-5,93l769,2l769,3l18,85c11,51,20,152,24,255
		c5,152,3,180-16,260c-59,245-216,441-451,563c-180,94-313,122-559,121C13716,5229,13611,5222,13565,5214z M13952,4741
		c73-28,150-98,182-164c27-55,54-193,43-221c-6-14-48-16-446-16h-440l5,33c35,199,149,326,344,383C13711,4777,13882,4769,13952,4741
		z"/>
	<path class="st0" d="M16618,5220c-225-36-420-144-531-295l-29-40l6,40c3,22,8,81,11,130c4,50,9,98,11,108c5,16-16,17-340,17h-345
		l-5-42c-3-24-44-486-91-1028s-88-1006-91-1032l-6-48h346c247,0,346,3,346,11c0,6,22,266,50,578c34,391,56,591,70,645
		c42,166,124,282,238,338c64,32,71,33,187,33c109,0,125-2,169-25c90-46,138-136,157-294c8-69,2-163-41-655c-27-315-50-587-50-602
		v-29h340h339l5,33c3,17,31,322,62,677c49,563,55,668,52,825c-4,164-7,187-32,260c-67,195-198,316-407,375
		C16955,5224,16716,5235,16618,5220z"/>
	<path class="st0" d="M5964,5195c-169-37-367-159-461-285c-20-27-38-48-40-46c-3,2,5,101,22,264l5,52h-345c-190,0-345-3-345-7
		c0-13-179-2068-184-2105l-4-38h343h344l6,53c3,28,21,232,40,452c38,429,51,526,92,638c93,263,312,408,612,407c58-1,135-7,171-15
		c36-7,66-13,66-12c1,1,14,141,29,311c23,258,25,310,14,317C6280,5211,6073,5219,5964,5195z"/>
	<path class="st0" d="M10844,5195c-169-37-347-149-465-293l-35-44l12,139c7,76,13,148,14,161v22h-345h-345v-25c0-14-40-487-90-1052
		c-49-565-90-1037-90-1050v-23l342,2l343,3l36,425c20,234,44,472,54,529c43,268,146,426,338,521c45,22,114,47,152,55
		c88,18,250,19,335,1c36-8,66-13,68-11c4,4,52,542,52,587c0,36-1,38-52,53C11104,5214,10930,5214,10844,5195z"/>
	<path class="st0" d="M3432,4113c-51-588-93-1071-92-1076c0-4,154-6,343-5l342,3l92,1045c51,575,92,1057,92,1073l1,27h-343h-342
		L3432,4113z"/>
	<path class="st0" d="M11546,5138c-4-24-44-484-91-1023c-46-539-87-1004-90-1032l-6-53h345c243,0,346,3,346,11
		c0,10,176,2035,183,2107l3,32h-342h-343L11546,5138z"/>
</g>
</svg>
