<?xml version="1.0" encoding="utf-8"?>
<!-- Generator: Adobe Illustrator 27.4.1, SVG Export Plug-In . SVG Version: 6.00 Build 0)  -->
<svg version="1.1" id="Layer_1" xmlns="http://www.w3.org/2000/svg" xmlns:xlink="http://www.w3.org/1999/xlink" x="0px" y="0px"
	 viewBox="0 0 841.9 595.3" style="enable-background:new 0 0 841.9 595.3;" xml:space="preserve">
<style type="text/css">
	.st0{fill:#FFFFFF;}
</style>
<g>
	<path class="st0" d="M688.9,222.9c1.6,0,2.5,0.9,2.5,2.2c0,1.3-0.9,2.2-2.5,2.2h-3v-4.3H688.9z M689,220.8h-5.5V235h2.4v-5.7h1.7
		l3.9,5.7h2.7l-4.1-5.8c2.2-0.3,3.6-1.7,3.6-4.1C693.8,222.3,691.9,220.8,689,220.8 M650.6,296.3h-7.9v2.7h36.2v-2.7l-9.1,0
		l-0.1-56.9h-19.1L650.6,296.3z M669.1,232.8v-4.1h6.2v-2.1h-6.2V223h6.9v-2.1h-9.2V235h9.2v-2.1H669.1z M650.6,220.8V235h9.2v-2.1
		H653v-12H650.6z M637.1,220.8h-2.4V235h9.2v-2.1h-6.8V220.8z M559,296.3h-7.2v2.7h69.1v-47.2H619l0,0.8
		c-1.1,40.6-11.1,43.8-24.1,43.8h-16.5v-56.8H559V296.3z M589.2,216.3h11.2v-30.6h-1.8l0,0.8C597.7,207.2,596.2,215.1,589.2,216.3
		 M591.6,229h-3.9l1.9-5.2L591.6,229z M596.3,235l-5.4-14.1h-2.3l-5.4,14.1h2.4l1.5-3.9h5.4l1.4,3.9H596.3z M602.3,220.8h-2.5
		l5.3,14.1h2.3l5.3-14.1h-2.4l-4,11L602.3,220.8z M572.3,227.2h-3v-4.3h3c1.6,0,2.5,0.9,2.5,2.2
		C574.8,226.4,573.9,227.2,572.3,227.2 M577.7,235l-4.1-5.8c2.2-0.3,3.6-1.7,3.6-4.1c0-2.8-1.9-4.2-4.8-4.2h-5.5V235h2.4v-5.7h1.7
		l3.9,5.7H577.7z M192.3,245.1h6.6v-2.6H166v2.6h10.4v7.7c0,21.1-1,43.7-13.2,43.7c-15,0-17.4-19.4-17.4-66c0-4.7-0.1-9.6-0.2-14.7
		c-0.4-23.4-0.9-49.8,8.4-59.3c2.5-2.6,5.6-3.7,9.4-3.7c10.1,0,17.4,14.4,21.1,41.7l0.1,0.7h2.9v-42h-3.1l-0.1,0.6
		c-0.7,3.3-1.2,3.6-2.4,3.6c-1.2,0-3.1-1.1-5.3-2.5c-3.7-2.2-8.2-5-13.4-5c-18.3,0-38.7,30.8-38.7,75.1c0,40.1,17.7,74,38.7,74
		c7.5,0,12.2-4.3,15.9-7.7c2.6-2.4,4.8-4.4,7.2-4.4c1.4,0,3.4,1.2,3.6,3.9l0.1,0.7h2.2V245.1z M263.7,223.1c0,2.4,0,4.7,0,7
		c0,28.9,0.1,53.9-8.8,62.7c-2.4,2.4-5.4,3.6-9.2,3.6c-14.2,0-18.1-15.3-18.1-71.3v-0.5c0-20.9,0-39,2.3-52
		c2.5-13.9,7.5-20.4,15.8-20.4c3.8,0,6.8,1.2,9.3,3.7c8.9,8.9,8.8,33.4,8.7,59.3C263.7,217.8,263.7,220.5,263.7,223.1 M284.4,224.3
		c0-46.6-19.7-74.5-38.7-74.5c-18.3,0-38.8,30.8-38.8,75.1c0,40.2,17.8,74.1,38.8,74.1C266.3,299,284.4,264.1,284.4,224.3
		 M355.9,152.6h9.6V150h-22.2v2.6h10v96.3c0,31.5-7.3,47.5-21.8,47.5c-6.3,0-10.2-4.8-12.3-15.2c-1.8-9.4-1.8-21.9-1.8-34v-94.6h7.4
		V150h-35.6v0.1H289l0,2.5h9.6l0,95.7c0,23.6,3.6,50.7,31.6,50.7c11,0,18.6-6.9,22.5-20.4c3.1-10.8,3.1-23.2,3.1-29.9V152.6z
		 M401.9,218.2h-3.5l0.1-65.6h4.4c10.1,0,12,12.3,12,35.1C414.9,202.5,413.9,218.2,401.9,218.2 M447.4,291.6l0.2-0.5l-1.5-1.7
		l-0.5,1c-0.2,0.3-0.4,0.7-0.6,1.1c-1.2,2.5-3.1,6.3-5.1,6.3c-3.5,0-3.7-6.5-4.4-28c-0.1-4.1-0.3-8.7-0.5-14
		c-1.1-28.3-9.9-33-22.4-37.4c9.7-2.5,20.1-12.4,20.1-33c0-32.7-20.1-35.4-26.5-35.4l-34.4,0v2.6h7.9l0,143.8h-7.9l0,2.7h36.3v-2.7
		h-9.7v-75.2h6.2c12.3,0,12.8,21.1,13.4,43.4c0.3,13.7,0.8,34.3,17.1,35.8c0.7,0.1,1.3,0.1,1.9,0.1c6.1,0,7.7-3.2,9.8-7.5
		C446.9,292.5,447.1,292.1,447.4,291.6 M542.8,296.3l-8.2,0l0-143.8h8v-2.6l-27.1,0l-17.9,98.6l-17.2-97.9l-0.1-0.6h-29.7l0,2.6
		h10.4v143.9h-10.3l0,2.7h22.7l-0.1-2.7h-9.7V160.9L489,298.3l0.1,0.6h2.3l24.7-137.8l0,135.2h-9.6l0,2.7h36.2L542.8,296.3z
		 M560.3,220.8h-11.8v2.1h4.7v12h2v-12h5.1V220.8z M614.7,189.3h1.8v-39.5h-64.7v2.6h7.2l0,63.8h19.4l0-63.8l16.5,0
		c14,0,18,12.9,19.7,36.1L614.7,189.3z M627.6,220.8h-9.2V235h9.2v-2.1h-6.9v-4.1h6.2v-2.1h-6.2V223h6.9V220.8z M694.5,189.4V150
		h-67.6v39.3h1.8l0.1-0.7c3-36,10.7-36,20.4-36h1.4l0,63.6h19.5v-63.6l1.9,0c9.5,0,17.8,0,20.6,36l0.1,0.7H694.5z"/>
</g>
</svg>
