<?xml version="1.0" encoding="utf-8"?>
<!-- Generator: Adobe Illustrator 27.4.1, SVG Export Plug-In . SVG Version: 6.00 Build 0)  -->
<svg version="1.1" id="Layer_1" xmlns="http://www.w3.org/2000/svg" xmlns:xlink="http://www.w3.org/1999/xlink" x="0px" y="0px"
	 viewBox="0 0 291.33 150" style="enable-background:new 0 0 291.33 150;" xml:space="preserve">
<style type="text/css">
	.Arched_x0020_Green{fill:url(#SVGID_1_);stroke:#FFFFFF;stroke-width:0.25;stroke-miterlimit:1;}
	.st0{fill:#FFFFFF;}
</style>
<linearGradient id="SVGID_1_" gradientUnits="userSpaceOnUse" x1="139" y1="150" x2="139.7071" y2="149.2929">
	<stop  offset="0" style="stop-color:#20AC4B"/>
	<stop  offset="0.9831" style="stop-color:#19361A"/>
</linearGradient>
<g>
	<path class="st0" d="M39,76.62c1.09-1.53,2.32-2.68,3.68-3.45c1.36-0.77,2.85-1.15,4.47-1.15c1.84,0,3.37,0.38,4.58,1.15
		c1.21,0.77,2,1.71,2.37,2.83c0.36,1.12,0.55,2.94,0.55,5.46v6.18c0,2.62,0.05,4.22,0.15,4.79c0.1,0.57,0.4,0.98,0.89,1.25
		c0.49,0.26,1.4,0.4,2.73,0.4v1.26H46.85v-1.26h0.52c1.33,0,2.19-0.19,2.58-0.58c0.39-0.38,0.62-0.83,0.68-1.35
		c0.06-0.52,0.1-2.02,0.1-4.5v-6.73c0-1.86-0.11-3.24-0.33-4.13c-0.22-0.89-0.73-1.63-1.55-2.21c-0.81-0.58-1.83-0.88-3.05-0.88
		c-1.42,0-2.7,0.41-3.83,1.24c-1.13,0.83-2.12,2.07-2.98,3.73v8.97c0,2.51,0.04,4.07,0.12,4.65c0.08,0.58,0.36,1.03,0.83,1.33
		c0.47,0.3,1.34,0.45,2.6,0.45v1.26H31.18v-1.26h0.57c1.31,0,2.16-0.19,2.56-0.56c0.39-0.37,0.62-0.82,0.68-1.34
		c0.06-0.52,0.1-2.03,0.1-4.53V65.32c0-2.26-0.22-3.69-0.64-4.29c-0.43-0.6-1.45-0.9-3.08-0.9v-1.26c2.83,0,5.18-0.38,7.06-1.15H39
		V76.62z"/>
	<path class="st0" d="M83.19,91.23h1c-0.16,3.12-1.69,4.68-4.58,4.68c-1.24,0-2.21-0.33-2.93-0.98c-0.72-0.66-1.19-1.63-1.4-2.93
		c-1.83,1.3-3.49,2.27-5,2.93c-1.51,0.66-2.85,0.98-4.04,0.98c-1.52,0-2.82-0.44-3.92-1.31c-1.1-0.88-1.64-2.03-1.64-3.47
		c0-1.88,0.92-3.52,2.75-4.92c1.84-1.4,4.37-2.77,7.6-4.1l4.25-1.72v-1.09c0-1.55-0.1-2.67-0.3-3.36c-0.2-0.69-0.72-1.31-1.56-1.86
		c-0.84-0.55-1.95-0.82-3.32-0.82c-2.74,0-4.27,0.91-4.58,2.74c-0.29,1.86-1.06,2.79-2.3,2.79c-1.11,0-1.67-0.53-1.67-1.59
		c0-1.04,0.74-2.16,2.22-3.35c1.48-1.19,3.77-1.79,6.89-1.79c2.31,0,4.11,0.36,5.39,1.09c1.28,0.73,2.12,1.56,2.53,2.49
		c0.41,0.93,0.62,2.35,0.62,4.27v9.05c0,2.12,0.11,3.47,0.33,4.08c0.22,0.6,0.69,0.9,1.43,0.9C82.14,93.91,82.89,93.01,83.19,91.23z
		 M75.27,81.65l-2.99,1.2c-4.72,1.91-7.08,4.32-7.08,7.22c0,1.15,0.3,2.07,0.91,2.78c0.6,0.7,1.39,1.05,2.36,1.05
		c0.86,0,1.86-0.28,2.99-0.85c1.13-0.57,2.4-1.41,3.81-2.54V81.65z"/>
	<path class="st0" d="M92.94,77.74c0.62-1.62,1.63-2.98,3.02-4.08c1.39-1.09,2.76-1.64,4.09-1.64c1.2,0,2.15,0.37,2.84,1.12
		c0.69,0.75,1.04,1.51,1.04,2.3c0,0.53-0.18,0.98-0.53,1.37c-0.36,0.38-0.79,0.57-1.3,0.57c-0.91,0-1.6-0.67-2.08-2.02
		c-0.33-0.91-0.82-1.37-1.48-1.37c-0.78,0-1.72,0.53-2.82,1.6c-1.09,1.07-1.8,2.17-2.11,3.32c-0.31,1.15-0.46,2.73-0.46,4.73v3.99
		c0,2.39,0.03,3.89,0.1,4.51c0.06,0.62,0.33,1.09,0.78,1.42c0.46,0.33,1.28,0.49,2.45,0.49h0.77v1.26h-11.9v-1.26h0.58
		c1.09,0,1.87-0.15,2.34-0.45c0.47-0.3,0.74-0.72,0.83-1.27c0.09-0.55,0.14-2.12,0.14-4.7v-6.32c0-2.41-0.03-3.92-0.1-4.53
		c-0.06-0.61-0.32-1.08-0.78-1.42c-0.46-0.34-1.27-0.51-2.43-0.51h-0.58v-1.23c1.71-0.2,3.94-0.74,6.7-1.61
		C92.59,73.47,92.88,75.37,92.94,77.74z"/>
	<path class="st0" d="M123.45,75.31v-8.75c0-2.39-0.03-3.89-0.1-4.51c-0.06-0.62-0.32-1.09-0.78-1.42
		c-0.46-0.33-1.27-0.49-2.44-0.49h-0.57v-1.26c2.2-0.06,4.6-0.44,7.22-1.15h0.57v30.11c0,2.61,0.04,4.19,0.14,4.76
		c0.09,0.57,0.38,0.98,0.86,1.26c0.48,0.27,1.38,0.41,2.69,0.41v1.26c-2.63,0.05-4.98,0.29-7.03,0.71
		c-0.22-0.86-0.33-2.21-0.33-4.05c-1.35,1.35-2.74,2.36-4.18,3.04c-1.43,0.67-2.92,1.01-4.45,1.01c-2.9,0-5.41-1.17-7.52-3.5
		c-2.11-2.33-3.16-5.16-3.16-8.48c0-3.65,1.08-6.59,3.23-8.85c2.15-2.25,4.72-3.38,7.7-3.38c1.51,0,2.95,0.27,4.3,0.82
		C120.96,73.39,122.24,74.21,123.45,75.31z M123.45,76.89c-1.21-1.04-2.42-1.82-3.63-2.34c-1.22-0.52-2.43-0.78-3.66-0.78
		c-2.07,0-3.79,0.79-5.17,2.38c-1.38,1.59-2.07,4.17-2.07,7.77c0,3.65,0.71,6.34,2.12,8.07c1.42,1.73,3.17,2.6,5.25,2.6
		c1.39,0,2.68-0.33,3.86-0.98c1.19-0.66,2.28-1.64,3.29-2.96V76.89z"/>
	<path class="st0" d="M145.82,74.16h-6.76V87.7c0,2.08,0.09,3.48,0.27,4.2c0.18,0.72,0.57,1.3,1.16,1.74
		c0.59,0.44,1.23,0.66,1.9,0.66c1.31,0,2.45-0.75,3.42-2.24l0.88,0.52c-0.56,1.2-1.4,2.11-2.5,2.72c-1.1,0.61-2.22,0.92-3.35,0.92
		c-1.31,0-2.47-0.39-3.46-1.16c-0.99-0.77-1.61-1.68-1.86-2.72c-0.25-1.04-0.37-2.86-0.37-5.47V74.16h-3.24v-1.24
		c1.49-0.04,2.83-0.67,4.01-1.89c1.18-1.22,1.94-2.93,2.26-5.14h0.88v7.02h6.76V74.16z"/>
	<path class="st0" d="M147.74,84.09c0-3.43,1.15-6.29,3.44-8.6c2.3-2.31,5.12-3.46,8.47-3.46c3.37,0,6.2,1.16,8.5,3.47
		c2.29,2.32,3.44,5.18,3.44,8.59c0,3.77-1.17,6.74-3.5,8.9c-2.33,2.16-5.14,3.24-8.44,3.24c-3.3,0-6.11-1.1-8.43-3.29
		C148.9,90.74,147.74,87.79,147.74,84.09z M152.28,84.22c0,3.98,0.65,6.76,1.94,8.35c1.29,1.6,3.11,2.39,5.44,2.39
		c2.39,0,4.22-0.8,5.48-2.39c1.27-1.6,1.9-4.38,1.9-8.35c0-3.94-0.63-6.75-1.89-8.42c-1.26-1.68-3.09-2.52-5.5-2.52
		c-2.39,0-4.22,0.83-5.48,2.5C152.91,77.45,152.28,80.27,152.28,84.22z"/>
	<path class="st0" d="M188.39,72.93l-0.36,1.2h-4.15l-4.73,16c-1.94,7.24-4.05,12.09-6.35,14.57c-2.3,2.48-4.83,3.72-7.59,3.72
		c-1.53,0-2.91-0.36-4.15-1.07c-1.23-0.71-1.85-1.59-1.85-2.65c0-0.6,0.19-1.09,0.58-1.48c0.38-0.38,0.83-0.57,1.34-0.57
		c0.6,0,1.09,0.21,1.45,0.64c0.36,0.43,0.55,0.89,0.55,1.38c0,0.13-0.03,0.35-0.08,0.68l-0.06,0.46c0,0.34,0.22,0.66,0.66,0.96
		c0.44,0.29,0.97,0.44,1.59,0.44c2.19,0,4.03-1.17,5.53-3.5c1.5-2.33,3.19-7.01,5.09-14.03l4.66-15.56h-4.56l0.36-1.2h4.63
		c0.06-0.22,0.22-0.75,0.48-1.59c2.47-9.08,7.21-13.62,12.74-13.62c1.57,0,2.78,0.35,3.61,1.04c0.83,0.69,0.91,1.54,0.91,2.22
		c0,0.97-0.12,1.29-1.03,1.29c-0.73,0-1.51-0.63-2.33-1.89c-0.58-0.91-1.29-1.37-2.11-1.37c-1.24,0-2.43,0.57-3.56,1.71
		c-1.13,1.14-3.12,4.24-4.49,9.3l-0.87,2.91H188.39z"/>
	<path class="st0" d="M198.43,72.03v15.62c0,2.39,0.04,3.89,0.11,4.51c0.07,0.62,0.34,1.09,0.79,1.42c0.46,0.33,1.27,0.49,2.43,0.49
		h0.57v1.26h-12.06v-1.26h0.93c1.29,0,2.14-0.19,2.53-0.56c0.39-0.37,0.62-0.82,0.68-1.34c0.06-0.52,0.1-2.03,0.1-4.53v-6.78
		c0-2.63-0.12-4.23-0.37-4.81c-0.25-0.58-0.57-0.95-0.98-1.09c-0.41-0.15-1.13-0.22-2.15-0.22h-0.74v-1.26
		c3.25-0.33,5.76-0.81,7.55-1.45H198.43z M193.15,61c0-0.78,0.28-1.46,0.83-2.02c0.56-0.57,1.23-0.85,2.01-0.85
		c0.78,0,1.45,0.28,2,0.85c0.55,0.57,0.82,1.24,0.82,2.02c0,0.8-0.27,1.49-0.82,2.05c-0.55,0.57-1.21,0.85-2,0.85
		c-0.78,0-1.46-0.28-2.01-0.85C193.43,62.48,193.15,61.8,193.15,61z"/>
	<path class="st0" d="M211.15,72.03h0.74c0.42,1.13,0.66,2.67,0.71,4.62c1.31-1.55,2.68-2.71,4.12-3.47
		c1.44-0.77,2.94-1.15,4.51-1.15c1.78,0,3.24,0.37,4.38,1.12c1.14,0.75,1.87,1.66,2.2,2.75c0.33,1.09,0.49,2.67,0.49,4.75v7
		c0,2.59,0.04,4.17,0.14,4.73c0.09,0.56,0.38,0.99,0.86,1.27s1.37,0.42,2.67,0.42v1.26h-11.43v-1.26h0.52
		c1.31,0,2.17-0.19,2.57-0.58c0.4-0.38,0.63-0.83,0.68-1.34c0.05-0.51,0.08-2.02,0.08-4.51v-7.22c0-1.77-0.09-3.03-0.26-3.79
		c-0.17-0.76-0.64-1.43-1.4-2.01c-0.76-0.58-1.72-0.88-2.88-0.88c-1.33,0-2.6,0.4-3.81,1.19c-1.21,0.79-2.36,1.98-3.43,3.57v9.14
		c0,2.59,0.05,4.17,0.15,4.73c0.1,0.56,0.39,0.99,0.88,1.27s1.38,0.42,2.69,0.42v1.26h-11.35v-1.26c1.26,0,2.13-0.13,2.62-0.38
		c0.49-0.26,0.8-0.64,0.92-1.16c0.12-0.52,0.18-2.15,0.18-4.89v-6.68c0-2.61-0.05-4.19-0.15-4.75c-0.1-0.56-0.39-0.98-0.88-1.26
		c-0.48-0.28-1.38-0.42-2.69-0.42v-1.26C206.98,73.04,209.04,72.63,211.15,72.03z"/>
	<path class="st0" d="M251.98,75.31v-8.75c0-2.39-0.03-3.89-0.1-4.51c-0.06-0.62-0.32-1.09-0.78-1.42
		c-0.46-0.33-1.27-0.49-2.43-0.49h-0.57v-1.26c2.2-0.06,4.61-0.44,7.22-1.15h0.57v30.11c0,2.61,0.05,4.19,0.14,4.76
		c0.09,0.57,0.38,0.98,0.86,1.26c0.48,0.27,1.38,0.41,2.69,0.41v1.26c-2.63,0.05-4.98,0.29-7.03,0.71
		c-0.22-0.86-0.33-2.21-0.33-4.05c-1.35,1.35-2.74,2.36-4.18,3.04c-1.43,0.67-2.92,1.01-4.45,1.01c-2.9,0-5.41-1.17-7.52-3.5
		c-2.11-2.33-3.16-5.16-3.16-8.48c0-3.65,1.08-6.59,3.23-8.85c2.16-2.25,4.72-3.38,7.7-3.38c1.52,0,2.95,0.27,4.3,0.82
		C249.5,73.39,250.78,74.21,251.98,75.31z M251.98,76.89c-1.21-1.04-2.42-1.82-3.63-2.34c-1.21-0.52-2.43-0.78-3.66-0.78
		c-2.06,0-3.79,0.79-5.17,2.38c-1.38,1.59-2.07,4.17-2.07,7.77c0,3.65,0.71,6.34,2.12,8.07c1.42,1.73,3.17,2.6,5.25,2.6
		c1.39,0,2.68-0.33,3.86-0.98c1.19-0.66,2.28-1.64,3.29-2.96V76.89z"/>
	<path class="st0" d="M261.88,93.28c0-0.8,0.29-1.49,0.86-2.07c0.57-0.57,1.26-0.86,2.07-0.86c0.82,0,1.52,0.29,2.09,0.86
		c0.57,0.58,0.86,1.26,0.86,2.07c0,0.82-0.29,1.52-0.88,2.09c-0.58,0.57-1.28,0.86-2.08,0.86c-0.82,0-1.51-0.29-2.08-0.89
		C262.17,94.75,261.88,94.06,261.88,93.28z"/>
</g>
</svg>
