<?xml version="1.0" encoding="utf-8"?>
<!-- Generator: Adobe Illustrator 27.4.1, SVG Export Plug-In . SVG Version: 6.00 Build 0)  -->
<svg version="1.1" id="Layer_1" xmlns="http://www.w3.org/2000/svg" xmlns:xlink="http://www.w3.org/1999/xlink" x="0px" y="0px"
	 viewBox="0 0 496 77" style="enable-background:new 0 0 496 77;" xml:space="preserve">
<style type="text/css">
	.st0{fill:#FFFFFF;}
</style>
<path class="st0" d="M161.9,48.6c0.2-1.4,0.6-2.8,1.2-4.2c0.5-1.4,1.2-2.6,2-3.7c0.8-1.1,1.8-2,2.8-2.6c1.1-0.7,2.2-1,3.5-1
	c1.5,0,2.9,0.3,4,0.9c1.1,0.6,2,1.4,2.8,2.4c0.7,1,1.3,2.2,1.7,3.5c0.4,1.3,0.6,2.8,0.7,4.3v0.5L161.9,48.6L161.9,48.6z M180,64.3
	c0,0.8-0.1,1.5-0.4,2.2c-0.3,0.7-0.6,1.2-1.1,1.7c-0.7,0.5-1.5,1-2.4,1.3c-0.9,0.3-2,0.5-3.1,0.5c-1.6,0-3.2-0.4-4.6-1.1
	c-1.4-0.8-2.7-1.8-3.9-3.2c-1-1.3-1.8-2.9-2.3-4.7c-0.5-1.9-0.8-3.9-0.9-6.2h29.3V52c0-2.5-0.2-4.8-0.6-7c-0.4-2.1-1-4-1.8-5.6
	c-0.8-1.4-1.7-2.7-2.9-3.8c-1.1-1.1-2.4-2-3.8-2.8c-1.4-0.7-2.9-1.3-4.5-1.7c-1.6-0.4-3.3-0.6-5-0.6c-6.5,0-11.6,2.2-15.3,6.6
	c-3.9,4.7-5.8,10.3-5.8,16.6c0,6.2,1.8,11.6,5.5,16.2c3.5,4.3,8.8,6.5,15.9,6.5c3.5,0,6.5-0.5,8.9-1.6c3-1.3,5.2-2.8,6.5-4.6
	c1.7-2.4,2.5-4.4,2.5-6v-0.7H180L180,64.3L180,64.3z M97.3,54c0-4.1,0.5-7.1,1.4-9.1c0.6-1.3,1.2-2.4,1.8-3.2
	c0.6-0.9,1.3-1.6,1.9-2.1c0.9-0.7,1.7-1.2,2.4-1.5c0.8-0.3,1.4-0.5,2-0.5c0.7,0,1.7,0.3,2.8,1c0.3,0.2,0.6,0.5,0.9,1
	c0.3,0.5,0.6,1.1,0.9,1.9c0.4,1.2,0.6,4.4,0.6,9.5v24.2h10.4V54c0-4.2,0.5-7.3,1.4-9.3c0.6-1.2,1.2-2.3,1.8-3.2
	c0.6-0.9,1.2-1.5,1.8-2c0.8-0.6,1.6-1.1,2.4-1.4c0.8-0.3,1.5-0.5,2.2-0.5c0.9,0,1.8,0.3,2.7,1c0.5,0.3,1.1,1.3,1.7,2.9
	c0.5,1,0.7,4.2,0.7,9.5v24.2h10.5V48c0-2.4-0.1-4.5-0.4-6.3c-0.3-1.8-0.7-3.3-1.3-4.5c-0.5-1.1-1.2-2-2-2.8
	c-0.8-0.8-1.8-1.5-2.8-2.1c-1.1-0.6-2.2-1-3.5-1.3c-1.3-0.3-2.6-0.5-4-0.5c-1,0-1.9,0.1-2.8,0.2c-0.9,0.2-1.7,0.4-2.5,0.7
	c-0.4,0.2-0.9,0.4-1.3,0.6c-0.4,0.2-0.9,0.4-1.3,0.7c-0.4,0.2-0.8,0.5-1.2,0.7c-0.4,0.2-0.7,0.5-0.9,0.7c-0.5,0.4-1,0.9-1.4,1.4
	c-0.5,0.5-0.9,1-1.3,1.5c-0.3-0.5-0.7-1.1-1.1-1.6c-0.4-0.5-0.9-1-1.3-1.4c-1.2-1.1-2.6-1.9-4.4-2.5c-1.8-0.6-3.7-0.9-5.7-0.9
	c-1,0-2,0.1-2.9,0.2c-0.9,0.2-1.8,0.4-2.5,0.7c-0.9,0.4-1.8,0.8-2.7,1.2c-0.8,0.4-1.5,0.9-2,1.3c-0.2,0.2-0.3,0.3-0.5,0.5
	c-0.2,0.2-0.4,0.4-0.5,0.5v-3.3H86.9v43.6h10.4L97.3,54L97.3,54z M57.9,68.7c-1.3-0.8-2.5-1.9-3.6-3.2h0c-1-1.4-1.7-3.1-2.2-5.1
	c-0.5-2-0.8-4.3-0.8-6.9c0-2.5,0.3-4.8,0.8-6.8c0.5-2,1.3-3.7,2.2-5.1h0c1.1-1.4,2.2-2.4,3.6-3.2c1.3-0.8,2.6-1.2,4-1.2
	c2.8,0,5.3,1.5,7.5,4.5c2,2.7,3,6.7,3,11.9c0,5.2-1,9.2-3,12c-2.2,3-4.7,4.5-7.5,4.5C60.6,69.9,59.2,69.5,57.9,68.7z M76.9,70.6
	c4.2-4.2,6.2-9.9,6.2-17.2c0-3.5-0.6-6.7-1.7-9.7c-1.1-2.9-2.6-5.4-4.6-7.5C75,34.4,72.8,33,70.2,32c-2.5-1-5.3-1.5-8.3-1.5
	c-3,0-5.7,0.5-8.3,1.6c-2.6,1-4.8,2.5-6.7,4.3c-2,2.1-3.5,4.5-4.6,7.5c-1.1,2.9-1.7,6.1-1.7,9.7c0,3.5,0.6,6.8,1.7,9.7
	c1.1,2.9,2.6,5.4,4.6,7.5c0.9,0.9,2,1.7,3.1,2.4c1.1,0.7,2.3,1.3,3.6,1.8c1.3,0.5,2.6,0.9,4,1.2c1.4,0.3,2.8,0.4,4.3,0.4
	C68,76.4,73,74.5,76.9,70.6z M10.5,53.8c0-2.1,0.1-4,0.4-5.5c0.2-1.5,0.6-2.8,1.1-3.8c0.6-1.2,1.2-2.3,1.9-3.1
	c0.6-0.9,1.3-1.5,1.9-1.9c0.8-0.6,1.7-1,2.5-1.3c0.8-0.3,1.6-0.5,2.3-0.5c1.1,0,2.4,0.4,3.8,1.3c0.8,0.5,1.5,1.7,2.1,3.6
	c0.4,1.4,0.6,4.1,0.6,8.1v24.6h10.4V47.6c0-2.2-0.2-4.2-0.5-6c-0.3-1.8-0.8-3.2-1.4-4.4c-0.6-1-1.3-1.9-2.2-2.8
	c-0.9-0.8-1.9-1.5-3.1-2.1c-1.1-0.6-2.4-1-3.7-1.3c-1.3-0.3-2.7-0.5-4.2-0.5c-2.2,0-4.1,0.3-5.6,0.9c-2.1,0.8-3.7,1.7-4.8,2.6
	c-0.2,0.2-0.4,0.4-0.7,0.6c-0.2,0.2-0.5,0.4-0.6,0.6v-35H0v75.1h10.4L10.5,53.8L10.5,53.8z"/>
<path class="st0" d="M495.7,13.6h-9.8V75h9.8V13.6z M469.5,53.3c0,4.1-0.4,7.1-1.3,9.1c-0.6,1.2-1.1,2.3-1.7,3.1
	c-0.6,0.8-1.2,1.5-1.8,1.9c-0.8,0.5-1.6,1-2.4,1.3s-1.5,0.5-2.2,0.5c-1.6,0-3.1-0.6-4.6-1.9c-1.1-0.9-1.6-4.6-1.6-10.9v-24h-9.8v27
	c0,3.2,0.4,5.9,1.1,8.2c0.7,2.3,1.8,4.1,3.3,5.4c1.3,1.1,2.8,1.9,4.5,2.5c1.7,0.6,3.6,0.9,5.7,0.9c2,0,3.7-0.3,5.1-0.9
	c1.9-0.8,3.4-1.7,4.4-2.6c0.2-0.2,0.4-0.4,0.7-0.6c0.2-0.2,0.4-0.4,0.6-0.5V75h9.8V32.3h-9.8V53.3z M428.5,38.7h11.3v-6.4h-11.3v-3
	c0-4.3,0.5-6.9,1.5-7.7h0c1.4-1.1,2.9-1.6,4.4-1.6c0.5,0,1.2,0.1,2.2,0.2c1,0.1,2.2,0.3,3.8,0.5v-6.4c-1.6-0.3-3-0.5-4.2-0.6
	c-1.2-0.1-2.2-0.2-3-0.2c-4.6,0-8.1,1.3-10.5,3.9c-2.7,2.9-4.1,7.3-4.1,13.2v1.7H413v6.4h5.7V75h9.8L428.5,38.7L428.5,38.7z
	 M408.6,15.9h-9.8v7.7h9.8V15.9z M398.8,75h9.8V32.3h-9.8V75z M394.7,67.7c-4,1.4-6.5,2.1-7.5,2.1c-0.5,0-1.1-0.1-1.6-0.3
	c-0.6-0.2-1.1-0.4-1.6-0.7c-0.3-0.2-0.6-0.5-0.9-1.1c-0.3-0.5-0.6-1.2-0.9-1.9h0c-0.4-1.3-0.7-3.8-0.7-7.6V38.7h11.3v-6.4h-11.3
	v-9.9h-9.8v9.9h-6.7v6.4h6.7v21.3c0,2.1,0.1,4,0.4,5.6c0.3,1.6,0.7,3,1.3,4.2c0.5,1,1.2,1.9,2,2.7c0.8,0.8,1.8,1.4,2.8,2
	c1.1,0.5,2.2,1,3.5,1.2c1.3,0.3,2.6,0.4,4.1,0.4c1,0,2.2-0.1,3.7-0.4c1.5-0.3,3.2-0.7,5.2-1.2L394.7,67.7L394.7,67.7z M351.2,53.3
	c0,4.1-0.4,7.1-1.3,9.1c-0.6,1.2-1.1,2.3-1.7,3.1c-0.6,0.8-1.2,1.5-1.8,1.9c-0.8,0.5-1.6,1-2.4,1.3c-0.8,0.3-1.5,0.5-2.2,0.5
	c-1.6,0-3.1-0.6-4.6-1.9c-1.1-0.9-1.6-4.6-1.6-10.9v-24h-9.8v27c0,3.2,0.4,5.9,1.1,8.2c0.7,2.3,1.8,4.1,3.3,5.4
	c1.3,1.1,2.8,1.9,4.5,2.5c1.7,0.6,3.6,0.9,5.7,0.9c2,0,3.7-0.3,5.1-0.9c1.9-0.8,3.4-1.7,4.5-2.6c0.2-0.2,0.4-0.4,0.7-0.6
	c0.2-0.2,0.4-0.4,0.6-0.5V75h9.8V32.3h-9.8L351.2,53.3L351.2,53.3z M310.3,57.6c0,2.7-0.4,4.9-1.3,6.5c-1.1,2.2-2.3,3.7-3.5,4.5
	c-0.9,0.6-1.7,1-2.4,1.3c-0.7,0.3-1.4,0.4-2.1,0.4c-0.8,0-1.4-0.1-2-0.5c-0.6-0.3-1.1-0.7-1.5-1.2c-0.4-0.5-0.7-1.1-0.9-1.8
	c-0.2-0.7-0.3-1.5-0.3-2.3c0-2.3,0.7-4.1,2.1-5.3c0.5-0.4,1.1-0.8,1.9-1.2c0.8-0.4,1.7-0.8,2.7-1.2c1-0.4,2.2-0.8,3.4-1.2
	c1.2-0.4,2.5-0.8,3.9-1.2L310.3,57.6L310.3,57.6z M321.5,75c-0.4-1.3-0.7-2.6-0.9-3.8c-0.2-1.2-0.4-2.3-0.4-3.4c0-1-0.1-1.9-0.1-2.9
	c0-0.9,0-1.9,0-2.8V45.8c0-2.1-0.2-3.9-0.5-5.5c-0.3-1.6-0.8-2.8-1.4-3.8c-0.4-0.7-1.2-1.3-2.2-2c-1-0.7-2.2-1.3-3.6-1.9
	c-1.2-0.5-2.5-0.8-3.9-1.1c-1.4-0.3-2.9-0.4-4.4-0.4c-3.2,0-6,0.5-8.5,1.5c-1.5,0.6-2.8,1.4-3.9,2.1c-1.1,0.8-2,1.6-2.6,2.4
	c-1.7,2.2-2.5,4.2-2.5,5.9V44H297v-0.9c0-1.9,0.5-3.3,1.6-4.2c1.4-1.2,3.2-1.9,5.3-1.9c1.7,0,3.3,0.5,4.9,1.5
	c1.1,0.7,1.6,2.4,1.6,5.2v4.7l-2.1,0.5c-3.9,0.8-7.3,1.8-10.2,2.7c-2.9,1-5.1,2-6.6,3c-1.8,1.3-3.2,2.7-4.1,4.3
	c-0.9,1.6-1.3,3.4-1.3,5.3c0,3.4,1.3,6.3,3.9,8.7c2.3,2.1,5.3,3.1,9,3.1c2.2,0,4.3-0.4,6.3-1.3c1.8-0.7,3.5-1.8,5.3-3.3
	c0.1,0.5,0.2,1,0.4,1.6c0.1,0.6,0.3,1.2,0.5,1.8L321.5,75L321.5,75z M255,49c0.2-1.4,0.6-2.8,1.1-4.1c0.5-1.4,1.1-2.6,1.9-3.6
	c0.8-1.1,1.7-1.9,2.7-2.6s2.1-1,3.3-1c1.4,0,2.7,0.3,3.7,0.9c1,0.6,1.9,1.4,2.6,2.3c0.7,1,1.2,2.1,1.6,3.4c0.4,1.3,0.6,2.7,0.7,4.2
	V49L255,49L255,49z M272.1,64.3c0,0.8-0.1,1.5-0.4,2.2c-0.2,0.6-0.6,1.2-1,1.6c-0.6,0.5-1.4,0.9-2.3,1.2c-0.9,0.3-1.8,0.5-2.9,0.5
	c-1.5,0-3-0.4-4.3-1.1c-1.4-0.7-2.6-1.8-3.7-3.1c-0.9-1.3-1.7-2.8-2.2-4.6c-0.5-1.8-0.8-3.8-0.8-6h27.6v-2.6c0-2.5-0.2-4.7-0.6-6.8
	c-0.4-2.1-1-3.9-1.7-5.5c-0.7-1.4-1.6-2.6-2.7-3.7c-1.1-1.1-2.3-2-3.6-2.7c-1.3-0.7-2.7-1.3-4.2-1.7c-1.5-0.4-3.1-0.6-4.7-0.6
	c-6.2,0.3-10.9,2.2-14.4,6.5c-3.7,4.6-5.4,10-5.4,16.2c0,6.1,1.6,11.5,5.1,16c3.3,4.2,8.3,6.3,15,6.3c3.3,0,6.1-0.5,8.4-1.5
	c2.8-1.3,4.9-2.8,6.1-4.5c1.6-2.3,2.4-4.3,2.4-5.9v-0.7h-9.8V64.3z M214.7,45.1c0.9-2.9,2.1-4.9,3.3-5.8c1.7-1.3,3.3-2,4.8-2
	c2.2,0,4.3,1.2,6.4,3.6c1.8,2.1,2.7,6.4,2.7,12.9c0,5.6-0.9,9.6-2.8,12c-2,2.6-4.2,4-6.6,4c-1.2,0-2.4-0.4-3.6-1.2
	c-1.1-0.8-2.2-1.9-3.1-3.3l0,0c-0.8-1.4-1.5-3.1-1.9-5c-0.4-1.9-0.7-4.2-0.7-6.7C213.5,50.4,213.9,47.5,214.7,45.1z M212.9,75
	c0.1-0.4,0.1-0.9,0.2-1.5c0.1-0.5,0.1-1.1,0.1-1.7c0.2,0.2,0.4,0.4,0.6,0.6c0.2,0.2,0.4,0.4,0.7,0.6c1.2,1,2.6,1.8,4.2,2.3
	c1.6,0.5,3.5,0.8,5.5,0.8c2.9,0,5.5-0.6,7.7-1.7c2.2-1.1,4.1-2.7,5.5-4.8c1.5-2.2,2.6-4.7,3.4-7.5c0.8-2.7,1.2-5.6,1.2-8.7
	c0-2.1-0.2-4.1-0.6-6c-0.4-2-0.9-3.9-1.6-5.7c-0.6-1.5-1.4-3-2.5-4.4c-1.1-1.4-2.4-2.6-3.8-3.6c-1.2-0.8-2.6-1.5-4.2-2
	c-1.5-0.5-3.2-0.7-4.9-0.7c-1.9,0-3.7,0.3-5.2,0.9h0c-0.9,0.3-1.8,0.7-2.6,1.2c-0.8,0.4-1.5,0.9-2,1.3c-0.2,0.2-0.5,0.4-0.7,0.6
	c-0.2,0.2-0.4,0.4-0.6,0.6V0h-9.8v62.3c0,0.1,0,0.3,0,0.5c0,0.2,0,0.6,0,1.1c0,0.5,0,1.2-0.1,2.2c0,0.9-0.1,2.2-0.1,3.7
	c0,1-0.1,1.9-0.1,2.9c-0.1,0.9-0.1,1.8-0.2,2.5L212.9,75L212.9,75z"/>
</svg>
