<?xml version="1.0" encoding="utf-8"?>
<!-- Generator: Adobe Illustrator 27.4.1, SVG Export Plug-In . SVG Version: 6.00 Build 0)  -->
<svg version="1.1" id="Layer_2" xmlns="http://www.w3.org/2000/svg" xmlns:xlink="http://www.w3.org/1999/xlink" x="0px" y="0px"
	 viewBox="0 0 595.3 841.9" style="enable-background:new 0 0 595.3 841.9;" xml:space="preserve">
<style type="text/css">
	.st0{fill:#FFFFFF;}
</style>
<g>
	<path class="st0" d="M150.6,512.9c-15.5,0-26.6-7.2-26.6-19.3c0-7.3,2-12,6.8-14.5c9.3,10.1,23.4,21.5,37.9,29.7
		C164.2,511.1,158.1,512.9,150.6,512.9 M142.1,469.7c-5.8-5.4-9.3-10.1-9.3-15.8c0-8,5.6-10.7,10.1-10.7c4.9,0,10.4,2.4,10.4,11
		C153.3,461.4,150.1,466.5,142.1,469.7 M143.9,438.6c-14.1,0-22.4,8.4-22.4,22.5c0,3.1,1.2,8.1,4.5,13c-15.7,3.5-21.1,11-21.1,22
		c0,9.1,7.5,24.1,39.5,24.1c12.7,0,21.9-2.7,30.6-7.7c9.8,4.7,19.4,7.7,27.8,7.7c3.5,0,8.1-0.7,10.5-1v-3
		c-4.1-1.6-14.5-5.6-26.6-13.1c9.8-5.6,23.3-16,23.3-22.3c0-3.8-1.5-8.1-3.8-10.5c-0.4,0-0.7,0-1.1,0c-3.9,0-10.1,1.4-13.4,4.1
		c2.7,10.5-1.6,18.5-9.8,25.4c-11.7-7.6-23.1-17.4-32.5-25.4c9.9-1.6,18.2-5.2,18.2-18.5C167.6,451.2,163.3,438.6,143.9,438.6"/>
	<path class="st0" d="M93.5,474.2v-2.9c9.8-0.7,12.1-2.4,12.1-12.7v-48.4c0-10.7-1.4-12-10.8-12.7v-2.9c7.2,0,14.9,0.4,19.8,0.4
		c4.9,0,12.7-0.4,19.9-0.4v2.9c-9.4,0.7-10.8,2-10.8,12.7v19.2h37.8v-19.2c0-10.7-1.4-12-10.8-12.7v-2.9c7.2,0,15,0.4,19.9,0.4
		c4.9,0,12.6-0.4,19.8-0.4v2.9c-9.4,0.7-10.8,2-10.8,12.7v48.4c0,10.4,2.3,12,12.1,12.7v2.9c-9,0-15.8-0.5-21.1-0.5
		c-5.3,0-12.2,0.5-21.2,0.5v-2.9c9.8-0.7,12.1-2.4,12.1-12.7v-24.2h-37.8v24.2c0,10.4,2.3,12,12.1,12.7v2.9c-9,0-15.9-0.5-21.2-0.5
		C109.3,473.8,102.5,474.2,93.5,474.2z"/>
	<path class="st0" d="M236.8,475.9c-24.3,0-47.4-15-47.4-40.6c0-25.2,20.6-42.4,46.1-42.4c29.2,0,47.4,18.9,47.4,40.6
		C282.9,458.9,261.2,475.9,236.8,475.9z M235.5,397.6c-17,0-27.5,13.8-27.5,36.2c0,27.3,14.5,37.5,28.8,37.5
		c14.7,0,27.5-10.4,27.5-36.8C264.3,410.2,252.1,397.6,235.5,397.6z"/>
	<path class="st0" d="M292.5,410.2c0-10.7-1.4-12-10.8-12.7v-2.9c7.2,0,14.9,0.4,19.8,0.4c4.9,0,12.7-0.4,19.9-0.4v2.9
		c-9.4,0.7-10.8,2-10.8,12.7v30c0,19.8,7.5,29.5,22.9,29.5c16.7,0,25.3-10.6,25.3-28.9v-30.6c0-10.7-1.4-12-10.8-12.7v-2.9
		c5.3,0,9.6,0.4,13.9,0.4c4.4,0,8.5-0.4,13.9-0.4v2.9c-9.4,0.7-10.8,2-10.8,12.7v30.9c0,21.5-11.3,34.9-34.2,34.9
		c-29.7,0-38.3-15.5-38.3-35.1V410.2z"/>
	<path class="st0" d="M377.1,470.4l-2.6-20.3l2.8-0.4c4.4,16.2,14.5,21.5,24.7,21.5c8.9,0,16.2-4.4,16.2-14.2
		c0-16.3-41.8-17.6-41.8-43.2c0-12.6,11.2-20.9,27.2-20.9c11.1,0,19,3.6,21.5,3.6c1,0,1.5-0.5,1.9-1.9h1.9l0.8,20L427,415
		c-3.6-13.1-13.8-17.6-22-17.6c-8,0-13.1,4.3-13.1,11.5c0,16.2,41.8,18.9,41.8,43.6c0,11.8-9.4,23.4-30.5,23.4
		C392,475.9,383,473.8,377.1,470.4z"/>
	<path class="st0" d="M447,410.2c0-10.4-1.4-12-10.8-12.7v-2.9c8.6,0,15,0.5,20.9,0.5c14.7,0,30.8-0.1,46.1-0.5l1.9,17.6l-2.8,0.4
		c-2.8-10.1-6.4-12.9-18-12.9h-15.7c-2.7,0-3.6,0.7-3.6,4.8v26.8l13.2-0.1c8.7-0.2,11.3-2.9,12.3-11.8h3c0,4.3-0.5,9.5-0.5,14.3
		c0,4,0.5,9.3,0.5,13.8h-2.8c-1.2-8.2-3.3-11.1-12.5-11.3l-13.2-0.1v24.5c0,6.5,3.5,7.9,7.5,7.9h15.2c9.8,0,14.7-4.6,20-16.1
		l3.2,1.2l-6.9,20.7c-12.9,0-41.6-0.5-47.8-0.5c-4.9,0-12.5,0.5-21.2,0.5v-2.9c9.4-0.7,12-2.4,12-12.7V410.2z"/>
	<path class="st0" d="M260.3,517c-5.6,1.2-11.9,2.1-18.5,2.1c-15.3,0-26.1-6.6-26.1-19.1c0-12.3,10.8-21.1,28.6-21.1
		c4.3,0,8.5,0.5,12.3,1.3c1.1,0.2,1.6,0.5,1.7,1.3l0.2,3.7c0,0.5-1,1.3-1.8,1.3c-0.1,0-0.5-0.1-1.4-0.5c-3.1-1.4-7.3-2.4-12.3-2.4
		c-11.1,0-17.8,5.9-17.8,15.5c0,9.8,6.7,15.4,18.3,15.4c2.7,0,4.8-0.2,8.1-0.9V499h8.8V517z"/>
	<path class="st0" d="M298.8,507.9h-19.2l-4.6,10.6h-8.1l18.9-38.7h8.5l19.3,38.7h-9.6L298.8,507.9z M281.6,503.5h15.1l-7.9-16.5
		L281.6,503.5z"/>
	<path class="st0" d="M360.5,518c-0.2,0.6-2.1,0.9-4.1,0.9c-10.4,0-15.5-8.8-20.5-16.5c-1.6,0.1-2.4,0.2-4.3,0.2
		c-0.9,0-1.5,0-2.6-0.1v15.9h-8.8v-38.7h4.2c3.7,0,9.3-0.2,13-0.2c8.1,0,17.1,1.2,17.1,10.6c0,5-3.5,9.4-9.8,10.8
		c3.3,5.2,8.3,13.6,16.1,14.4l0.3,0.5L360.5,518z M334.2,484.1c-2,0-3.5,0.1-5.3,0.1v14c1.5,0.1,2.8,0.1,4.2,0.1
		c8.6,0,12-2.3,12-7.5C345.1,485,340.3,484.1,334.2,484.1z"/>
	<path class="st0" d="M386.2,479.8c14.5,0,24.1,8.1,24.1,18.9c0,12.1-9.9,19.8-24.7,19.8H367v-38.7H386.2z M375.7,484.5v29.1h9.7
		c9,0,15.5-5,15.5-13.7c0-9.3-6.8-15.3-16.6-15.3H375.7z"/>
	<polygon class="st0" points="419.8,518.5 419.8,479.8 451.3,479.8 451.3,484.5 428.5,484.5 428.5,495.7 448.8,495.7 448.8,500.4 
		428.5,500.4 428.5,513.6 451.8,513.6 451.8,518.5 	"/>
	<polygon class="st0" points="468.3,490.1 469.1,518.5 462.4,518.5 462.5,479.8 469.4,479.8 498.3,507.4 497.5,479.8 504.2,479.8 
		504.2,518.2 499,519.4 	"/>
	<path class="st0" d="M102.9,389l-0.7-2.4h-3.5l-0.7,2.4h-3.2l4-11.8h3.7l4,11.8H102.9z M100.4,380.6L100.4,380.6l-1.1,3.7h2.2
		L100.4,380.6z"/>
	<path class="st0" d="M114.4,389.2c-3.2,0-5.2-1.2-5.2-4.9v-7.2h3.4v7c0,1.6,0.5,2.4,1.9,2.4c1.4,0,1.9-0.7,1.9-2.4v-7h3.4v7.2
		C119.7,388,117.6,389.2,114.4,389.2z"/>
	<path class="st0" d="M127.9,389.2c-2.3,0-3.9-0.7-5.1-2.1l2.3-1.8c0.9,1,1.7,1.4,3,1.4c0.9,0,1.4-0.4,1.4-1c0-0.6-0.4-0.8-1.5-1.1
		c-3.4-0.9-5-1.8-5-4.1c0-2.4,2.2-3.6,4.7-3.6c2.2,0,3.7,0.6,4.8,1.9l-2.3,1.8c-0.7-0.8-1.6-1.3-2.5-1.3c-0.9,0-1.3,0.4-1.3,0.9
		c0,0.5,0.3,0.8,1.5,1.1c3.8,1,5,2,5,4.1C132.9,387.4,131.4,389.2,127.9,389.2z"/>
	<polygon class="st0" points="141.9,379.8 141.9,389 138.5,389 138.5,379.8 135.3,379.8 135.3,377.1 145.1,377.1 145.1,379.8 	"/>
	<path class="st0" d="M154.8,389l-2.1-4.1h-0.8v4.1h-3.4v-11.8h5c3,0,5,1.1,5,3.9c0,1.9-1,2.8-2.3,3.4l2.3,4.6H154.8z M153.4,379.8
		h-1.4v2.7h1.4c1.3,0,1.9-0.4,1.9-1.3C155.2,380.2,154.7,379.8,153.4,379.8z"/>
	<path class="st0" d="M169.1,389l-0.7-2.4h-3.5l-0.7,2.4H161l4-11.8h3.7l4,11.8H169.1z M166.7,380.6L166.7,380.6l-1.1,3.7h2.2
		L166.7,380.6z"/>
	<polygon class="st0" points="176,389 176,377.1 179.3,377.1 179.3,386.2 184,386.2 184,389 	"/>
	<rect x="187.5" y="377.1" class="st0" width="3.4" height="11.8"/>
	<path class="st0" d="M202.3,389l-0.7-2.4H198l-0.7,2.4h-3.2l4-11.8h3.7l4,11.8H202.3z M199.8,380.6L199.8,380.6l-1.1,3.7h2.2
		L199.8,380.6z"/>
	<polygon class="st0" points="216.9,389 212.2,382.5 212.2,382.5 212.2,389 209.1,389 209.1,377.1 212.2,377.1 216.7,383.4 
		216.7,383.4 216.7,377.1 219.8,377.1 219.8,389 	"/>
</g>
</svg>
