<?xml version="1.0" encoding="utf-8"?>
<!-- Generator: Adobe Illustrator 27.4.1, SVG Export Plug-In . SVG Version: 6.00 Build 0)  -->
<svg version="1.1" id="Homes" xmlns="http://www.w3.org/2000/svg" xmlns:xlink="http://www.w3.org/1999/xlink" x="0px" y="0px"
	 viewBox="0 0 609.3 261.3" style="enable-background:new 0 0 609.3 261.3;" xml:space="preserve">
<style type="text/css">
	.st0{fill:#FFFFFF;}
</style>
<path class="st0" d="M542.9,176.8c-25.8,0-38.4-8.5-38.4-8.5v-27.3h2.8c3.8,14.1,16,33.1,35.7,33.1c15.2,0,18.2-18.4,1.9-29
	l-21.6-13c-20.5-13-25.8-32.3-13.5-47.2c0,0,7.9-10.5,30.8-10.5c24.6,0,35,6.2,35,6.2v22.9h-2.8c-3.2-13.2-15-26.3-32.3-26.3
	c-13.9,0-20.1,15.2-1.5,26.9l21.6,13.5c19.2,11.7,24.8,33.1,13.7,47.8C574.3,165.3,566.1,176.8,542.9,176.8z"/>
<path class="st0" d="M295.1,192.9h-11.8v-2.6h26.7v2.6h-11.8v27.8h-3.2V192.9z"/>
<path class="st0" d="M328.5,205.5c0-2.2,0.4-4.3,1.3-6.1c0.8-1.9,2-3.5,3.5-4.8c1.5-1.4,3.3-2.4,5.4-3.2c2.1-0.8,4.4-1.1,6.9-1.1
	s4.8,0.4,6.9,1.1c2.1,0.8,3.9,1.8,5.4,3.2c1.5,1.4,2.6,3,3.5,4.8c0.8,1.9,1.3,3.9,1.3,6.1c0,2.2-0.4,4.3-1.3,6.1
	c-0.8,1.9-2,3.5-3.5,4.8c-1.5,1.4-3.3,2.4-5.4,3.2c-2.1,0.8-4.4,1.1-6.9,1.1s-4.8-0.4-6.9-1.1c-2.1-0.8-3.9-1.8-5.4-3.2
	c-1.5-1.4-2.6-3-3.5-4.8C328.9,209.8,328.5,207.7,328.5,205.5z M331.6,205.5c0,1.8,0.3,3.5,1,5c0.7,1.6,1.6,2.9,2.8,4.1
	c1.2,1.1,2.7,2.1,4.4,2.7c1.7,0.7,3.6,1,5.8,1c2.1,0,4.1-0.3,5.8-1c1.7-0.7,3.2-1.6,4.4-2.7c1.2-1.1,2.1-2.5,2.8-4.1
	c0.7-1.6,1-3.2,1-5s-0.3-3.5-1-5c-0.7-1.6-1.6-2.9-2.8-4.1c-1.2-1.1-2.7-2.1-4.4-2.7c-1.7-0.7-3.6-1-5.8-1c-2.1,0-4.1,0.3-5.8,1
	c-1.7,0.7-3.2,1.6-4.4,2.7c-1.2,1.1-2.1,2.5-2.8,4.1C331.9,202,331.6,203.7,331.6,205.5z"/>
<path class="st0" d="M407.7,190.2h3.2v27.9h16.1v2.6h-19.3V190.2z"/>
<path class="st0" d="M447.5,205.5c0-2.2,0.4-4.3,1.3-6.1c0.8-1.9,2-3.5,3.5-4.8c1.5-1.4,3.3-2.4,5.4-3.2c2.1-0.8,4.4-1.1,6.9-1.1
	c2.5,0,4.8,0.4,6.9,1.1c2.1,0.8,3.9,1.8,5.4,3.2c1.5,1.4,2.6,3,3.5,4.8c0.8,1.9,1.3,3.9,1.3,6.1c0,2.2-0.4,4.3-1.3,6.1
	c-0.8,1.9-2,3.5-3.5,4.8c-1.5,1.4-3.3,2.4-5.4,3.2c-2.1,0.8-4.4,1.1-6.9,1.1c-2.5,0-4.8-0.4-6.9-1.1c-2.1-0.8-3.9-1.8-5.4-3.2
	c-1.5-1.4-2.6-3-3.5-4.8C447.9,209.8,447.5,207.7,447.5,205.5z M450.5,205.5c0,1.8,0.3,3.5,1,5c0.7,1.6,1.6,2.9,2.8,4.1
	c1.2,1.1,2.7,2.1,4.4,2.7c1.7,0.7,3.6,1,5.8,1c2.1,0,4.1-0.3,5.8-1c1.7-0.7,3.2-1.6,4.4-2.7c1.2-1.1,2.1-2.5,2.8-4.1
	c0.7-1.6,1-3.2,1-5s-0.3-3.5-1-5c-0.7-1.6-1.6-2.9-2.8-4.1c-1.2-1.1-2.7-2.1-4.4-2.7c-1.7-0.7-3.6-1-5.8-1c-2.1,0-4.1,0.3-5.8,1
	c-1.7,0.7-3.2,1.6-4.4,2.7c-1.2,1.1-2.1,2.5-2.8,4.1C450.8,202,450.5,203.7,450.5,205.5z"/>
<path class="st0" d="M500.6,190.3h3.5l11.1,26.8l11.2-26.8h3.4l-13.1,30.5h-3.2L500.6,190.3z"/>
<path class="st0" d="M552.6,190.2h21.1v2.6h-17.9v10.9h16.8v2.6h-16.8v11.9h18.7v2.6h-21.9V190.2z"/>
<path class="st0" d="M435.4,123.6c0,26.7,9.1,38.1,24.8,40.5c22.7,3.4,39.6-17,35.3-9.6c-6.4,11-21.8,22.3-44.9,22.3
	c-28,0-48.9-23.9-48.9-50.8c0-33.3,24.1-51.7,51.9-51.7c26.9,0,44.9,12.6,44.9,49.3H435.4z M470,120.9c0-26.9-5.8-43.8-16.4-43.8
	c-11.3,0-18.2,23.3-18.2,43.8H470z"/>
<path class="st0" d="M395.4,151.1v-43.8c0-26.1-12.4-33.1-29.6-33.1c-13.3,0-25.7,9.8-30.5,22.9c-2.6-16.5-13.9-22.9-29.2-22.9
	c-12.8,0-24,9.5-29.5,21.4V74.3c-21.3,11.3-43.4,9.1-43.4,9.1v1.7c8,3.3,10.2,6.3,10.2,13.9v53.1c0,11.3-0.2,20.6-7.6,23v1.6h48.9
	v-1.6c-7-2.2-8-11-8-23v-49.5c1.5-6,8.1-12.7,14.5-12.7c8.7,0,12.6,5.9,12.6,18.3v42.9c0,11.1-0.4,21.7-8.7,24.1v1.6h49.6v-1.6
	c-7.6-2-8.9-12.1-8.9-24.1V108c0-1.3,0-2,0-3.9c0.2-7.2,8.1-14.1,14.8-14.1c8.7,0,12.8,5.9,12.8,18.3v42.9c0,11.1-0.4,21.7-8.7,24.1
	v1.6h49.6v-1.6C396.7,173.2,395.4,163.1,395.4,151.1z"/>
<path class="st0" d="M183.8,74.3c-34.7,0-52.1,23.1-52.1,51.3c0,28,17.4,51.3,52.1,51.3c34.9,0,52.1-23.3,52.1-51.3
	C235.8,97.4,218.6,74.3,183.8,74.3z M184.2,173.7c-9.9,0-18-21.6-18-48.1s8.1-48.1,18-48.1c9.9,0,18,21.6,18,48.1
	S194.2,173.7,184.2,173.7z"/>
<path class="st0" d="M132.8,205.8c-8.9-10.9-8.4-36.6-8.4-36.6s0-54.8,0-67.6s-10.1-27.3-30.3-27.3c-16.3,0-24.7,13.9-27.4,19.4V26
	C43.4,37.7,21,35.4,21,35.4v1.7c9.4,3,12,6.7,12,12.5V153c0,10.3-0.5,19.9-9.2,22.2v1.7h52.4v-1.7c-8.3-1.8-9.4-11-9.4-22.2V94.6
	c1.8-2.2,6-6.3,11.5-6.3c6.8,0,13.4,4.3,13.4,15.4v45.6v14c0,0-0.1,20.4,6.3,31.8c0,0,11.1,25.4,38.7,25.4c15.1,0,21.7-7.3,21.7-7.3
	C150.7,215.5,141.5,216.3,132.8,205.8z"/>
</svg>
