<?xml version="1.0" encoding="utf-8"?>
<!-- Generator: Adobe Illustrator 27.4.1, SVG Export Plug-In . SVG Version: 6.00 Build 0)  -->
<svg version="1.1" id="New_logo" xmlns="http://www.w3.org/2000/svg" xmlns:xlink="http://www.w3.org/1999/xlink" x="0px" y="0px"
	 viewBox="0 0 792 612" style="enable-background:new 0 0 792 612;" xml:space="preserve">
<style type="text/css">
	.st0{fill:#FFFFFF;}
</style>
<g>
	<path class="st0" d="M249.7,252.3v12.3c0,0,5.1-12.6,14.7-12.6c4.5,0,6.1,1.3,6.1,1.3l-3.6,16.3c-0.1,0.5-0.5,0.5-0.8,0.7
		c-5.1-0.7-11.6-0.8-14.5,5.2c-1.6,3.1-1.6,7-1.8,10.5v32.3c0,3.4,0.8,7,0.8,7h-23.2c0,0,0.9-3.5,0.9-7v-43.6
		c-0.2-3.3-0.2-6.9-1.2-9.9c0.3-1,1.4-1,1.9-1.6L249,252C249.3,251.7,249.7,252,249.7,252.3z"/>
	<path class="st0" d="M583.4,252.3v12.3c0,0,5.1-12.6,14.7-12.6c4.5,0,6.1,1.3,6.1,1.3l-3.6,16.3c-0.1,0.5-0.5,0.5-0.8,0.7
		c-5.1-0.7-11.6-0.8-14.5,5.2c-1.6,3.1-1.6,7-1.8,10.5v32.3c0,3.4,0.8,7,0.8,7h-23.2c0,0,0.9-3.5,0.9-7v-43.6
		c-0.2-3.3-0.2-6.9-1.2-9.9c0.3-1,1.4-1,1.9-1.6l19.9-11.3C583,251.7,583.4,252,583.4,252.3z"/>
	<path class="st0" d="M220.9,315.2c-1.5-0.5-2.6-2.2-3.1-3.9l-4.8-23.9c-1.4-6.6-2.3-13.4-4.6-19.6c-6.2-15.2-23.1-16.9-35.8-13.1
		c-0.8,0.2-1.7,0.5-2.6,0.9c-0.8,0.4-1.4,0.9-1.5,0.9c0,0,0,0,0,0l0,0c-0.1,0.1-0.2,0.2-0.2,0.4l0,8.9c0,0.4,0.4,0.7,0.7,0.4
		c4.3-2,9.3-2.6,13.7-0.4c4.1,2.1,6,7.2,6.5,12c0,0.9,0.7,2,0,2.7c-6.6,1-12.8,2.6-18.2,6.6c-5.9,4.4-9.7,11.8-9,20.3
		c0.2,8.1,6.1,15.1,12.5,17.6c8.4,3.1,19,2.2,25.4-5.5c0.8-0.8,1.4,0.5,1.9,1c5.7,6.2,13.5,4.8,21.1,4.8l0.3-0.3v-9
		C223.2,315,221.7,315.6,220.9,315.2z M187.8,313.9c-3.6-2.2-5.3-6.8-5.2-11.3c0-5.2,2.6-10,6.6-12.5c0.7-0.3,2-1.4,2.5-0.1
		l3.5,16.4l1.4,5.3C194.4,314.3,190.7,315.2,187.8,313.9z"/>
	<path class="st0" d="M521.3,315.2c-1.5-0.5-2.6-2.2-3.1-3.9l-4.8-23.9c-1.4-6.6-2.3-13.4-4.6-19.6c-6.2-15.2-23.1-16.9-35.8-13.1
		c-0.8,0.2-1.7,0.5-2.6,0.9c-0.8,0.4-1.5,0.9-1.5,0.9c0,0,0,0,0,0l0,0c-0.1,0.1-0.2,0.2-0.2,0.4l0,8.9c0,0.4,0.4,0.7,0.7,0.4
		c4.3-2,9.3-2.6,13.7-0.4c4.1,2.1,6,7.2,6.5,12c0,0.9,0.7,2,0,2.7c-6.6,1-12.8,2.6-18.2,6.6c-5.9,4.4-9.7,11.8-9,20.3
		c0.2,8.1,6.1,15.1,12.5,17.6c8.4,3.1,19,2.2,25.4-5.5c0.8-0.8,1.4,0.5,1.9,1c5.7,6.2,13.5,4.8,21.1,4.8l0.3-0.3v-9
		C523.7,315,522.1,315.6,521.3,315.2z M488.2,313.9c-3.6-2.2-5.3-6.8-5.2-11.3c0-5.2,2.6-10,6.6-12.5c0.7-0.3,2-1.4,2.5-0.1
		l3.5,16.4l1.4,5.3C494.8,314.3,491.1,315.2,488.2,313.9z"/>
	<path class="st0" d="M66.3,264.2c-0.4,0.1-0.5,0.6-0.2,0.9c0,0,0.6,1.4,0.6,5.7v47.5c0,3.5-0.6,7.1-0.6,7.1h22.3c0,0-0.6-3.7-0.6-7
		v-34c0.1-4.4,0.5-9.2,4.1-11.8c1.6-1,3.9-1.6,5.7-0.7c2.2,0.9,3.1,3.6,3.2,6.1v40.3c0,3.4-0.7,7-0.7,7h22.4c0,0-0.7-3.6-0.7-7
		l0-26.6v-6.1c0-8,2.2-11.2,4.3-12.9c2.1-1.7,4.5-2,6.6-0.8c2.4,1.6,2.4,4.6,2.4,7.2v39.2c0,3.4-0.7,7-0.7,7h22.4
		c0,0-0.7-3.5-0.7-6.8v-46.1c0-2.1,0-5.3-0.6-7.9c-1.1-4.8-5-8.7-9.2-9.8c-9.1-2.3-18.4,0.9-23.9,10.5c-3-7.8-7.5-10.6-12.2-11.1
		c-8.7-1.4-15.9,1.9-22.6,11.7l0-0.1v-12.3c0-0.4-0.4-0.6-0.7-0.4L66.3,264.2z"/>
	<g>
		<g>
			<path class="st0" d="M295.5,235.6c1.2,3.8,0.7,8.7-1.8,11.6c-3.9,4.6-10.4,5.5-15.5,3.5c-2.9-1.3-6.1-4.4-6.7-8.2
				c-0.7-3.8,0.5-8.2,3.5-10.9c4-4,11-4.6,15.8-1.8C292.7,231.1,294.6,233.1,295.5,235.6z"/>
		</g>
		<path class="st0" d="M294.7,264.9v-12.3c0-0.4-0.4-0.7-0.7-0.4l-21,12v54.2c0,3.5-0.9,7-0.9,7h23.5c0,0-0.9-3.6-0.9-7L294.7,264.9
			z"/>
	</g>
	<g>
		<g>
			<path class="st0" d="M551.3,235.6c1.2,3.8,0.7,8.7-1.8,11.6c-3.9,4.6-10.4,5.5-15.5,3.5c-2.9-1.3-6.1-4.4-6.7-8.2
				c-0.7-3.8,0.5-8.2,3.5-10.9c4-4,11-4.6,15.8-1.8C548.4,231.1,550.4,233.1,551.3,235.6z"/>
		</g>
		<path class="st0" d="M550.5,264.9v-12.3c0-0.4-0.4-0.7-0.7-0.4l-21,12v54.2c0,3.5-0.9,7-0.9,7h23.5c0,0-0.9-3.6-0.9-7L550.5,264.9
			z"/>
	</g>
	<path class="st0" d="M323.2,288.7c-0.6-6.9,0.2-15.2,1.8-18.7c1.6-3.4,3.5-5.3,6-5.3c3.1,0,5.7,3.1,6.6,6.2
		c1.4,3.8,1.9,8.2,1.9,12.5c0.1,1-0.9,1.2-1.5,1.4l-14.2,4.6C323.3,289.7,323.2,289,323.2,288.7z M353.1,311.6
		c0-0.4-0.4-0.7-0.7-0.4l-2.3,1.3c-4.4,2.3-9.4,3.6-14.1,2.1c-5.8-1.8-9.1-7.8-10.8-13.5c-0.2-0.8-0.7-2,0.1-2.3l34.6-11.7
		c0-2.8-1.1-16.9-9.3-25.7c-8.3-8.9-20.9-10.3-31.1-5.9c-7,2.9-12.9,10.5-15.5,18.3c-5.2,15.2-2.7,33.4,8.2,44.6
		c9.3,9.4,23.7,9.8,35.2,6.1c1.8-0.8,3.9-1.4,5.7-2.6v-8.6l0,0V311.6z"/>
	<path class="st0" d="M622.4,288.7c-0.6-6.9,0.2-15.2,1.8-18.7c1.6-3.4,3.5-5.3,6-5.3c3.1,0,5.7,3.1,6.6,6.2
		c1.4,3.8,1.9,8.2,1.9,12.5c0.1,1-0.9,1.2-1.5,1.4l-14.2,4.6C622.5,289.7,622.4,289,622.4,288.7z M652.3,311.6
		c0-0.4-0.4-0.7-0.7-0.4l-2.3,1.3c-4.4,2.3-9.4,3.6-14.1,2.1c-5.8-1.8-9.1-7.8-10.8-13.5c-0.2-0.8-0.7-2,0.1-2.3l34.6-11.7
		c0-2.8-1.1-16.9-9.3-25.7c-8.3-8.9-20.9-10.3-31.1-5.9c-7,2.9-12.9,10.5-15.5,18.3c-5.2,15.2-2.7,33.4,8.2,44.6
		c9.3,9.4,23.7,9.8,35.2,6.1c1.8-0.8,3.9-1.4,5.7-2.6v-8.6l0,0V311.6z"/>
	<path class="st0" d="M456.1,228.2c0-0.4-0.4-0.7-0.7-0.4l-22.2,12.9c-0.4,0.1-0.5,0.6-0.2,0.9c0,0,1.7,2.7,1.7,6.9
		c0,0,0,66.4,0,69.8c0,3.4-0.9,6.9-0.9,6.9H457c0,0-0.8-3.5-0.8-6.9L456.1,228.2z"/>
	<path class="st0" d="M427.5,312.9l-1.2,0.3c-2.7,0.8-7.6,1.6-11.8-0.8c-5.3-3-8.9-12.3-9.8-19.9c-1.9-16.2,2.5-24.7,8.7-27.3
		c4.6-1.9,10,0,12.4,1.1l0,0l0.6,0.3c0.4,0.2,0.7,0.2,0.7-0.2v-0.8v-2.1v-8.2c0,0-11-5.8-23.2-1.6c-12.2,4.2-18.8,15.5-20.5,27.3
		c-2.2,10.8-0.2,22.6,4.6,31.6c6.5,11.2,18.1,15,29.4,13.5c3.7-0.8,10.8-2.9,10.8-2.9l0-10.2C428.3,312.9,427.9,312.8,427.5,312.9z"
		/>
</g>
</svg>
