<?xml version="1.0" encoding="utf-8"?>
<!-- Generator: Adobe Illustrator 27.4.1, SVG Export Plug-In . SVG Version: 6.00 Build 0)  -->
<svg version="1.1" id="Layer_1" xmlns="http://www.w3.org/2000/svg" xmlns:xlink="http://www.w3.org/1999/xlink" x="0px" y="0px"
	 viewBox="0 0 490.7 331" style="enable-background:new 0 0 490.7 331;" xml:space="preserve">
<style type="text/css">
	.st0{fill:#FFFFFF;}
	.st1{clip-path:url(#SVGID_00000144339947292815223490000007926008884396759173_);}
	.st2{clip-path:url(#SVGID_00000161590230855317936100000018294911392592362158_);}
	.st3{clip-path:url(#SVGID_00000101811068072484451550000015930217491219371430_);}
</style>
<g>
	<polygon class="st0" points="447.9,36 416.3,115.1 415.9,115.1 412.5,36 374.2,36 342.7,115.1 342.2,115.1 338.8,36 294.7,36 
		309.7,163.9 353.8,163.9 382.9,89 383.3,89 387.7,163.9 431.8,163.9 490.7,36 	"/>
	<g>
		<g>
			<defs>
				<rect id="SVGID_1_" y="0" width="490.7" height="331"/>
			</defs>
			<clipPath id="SVGID_00000015332839586518848220000009400897794104247467_">
				<use xlink:href="#SVGID_1_"  style="overflow:visible;"/>
			</clipPath>
			<g style="clip-path:url(#SVGID_00000015332839586518848220000009400897794104247467_);">
				<path class="st0" d="M258.5,85.7h-41.1c2.4-13.7,11.5-22.2,25-22.2C253.1,63.5,260.6,74,258.5,85.7 M246.1,32.5
					c-36.5,0-69.2,26.8-76.6,68.8c-7.6,43,16.5,66.4,53,66.4c26.5,0,57-10.5,70.5-42.2h-43.2c-4.6,7.6-11.8,11.2-18.9,11.2
					c-12,0-20.6-10-17.9-25.1h86.2C307.9,65.2,288.3,32.5,246.1,32.5"/>
			</g>
		</g>
	</g>
	<polygon class="st0" points="136.2,0 129.6,37.4 124.3,79.6 92.1,0.3 28.8,0.3 0,163.7 51.7,163.7 62.1,105.1 67.5,62.9 
		108.5,163.7 159.1,163.7 188,0 	"/>
	<g>
		<g>
			<defs>
				<rect id="SVGID_00000127764281562978281090000004239686647262707873_" y="0" width="490.7" height="331"/>
			</defs>
			<clipPath id="SVGID_00000024722015744781277680000011543701718608948880_">
				<use xlink:href="#SVGID_00000127764281562978281090000004239686647262707873_"  style="overflow:visible;"/>
			</clipPath>
			<g style="clip-path:url(#SVGID_00000024722015744781277680000011543701718608948880_);">
				<path class="st0" d="M171.3,264.6c-2.6,14.9-10.2,29.8-25.9,29.8c-14.8,0-15.1-15.6-12.7-29c2.5-14.2,9.5-30.3,24.5-30.3
					S173.8,250.5,171.3,264.6 M232.9,162.9h-45.2l-8.8,49.5c-7.3-12.7-16.6-16.6-31-16.6c-27.2,0-53.1,27.6-60.6,70
					C81,302,93.3,331,127.6,331c14.5,0,25.2-5.1,38.6-20.8l-3,17.1h40.6L232.9,162.9z"/>
			</g>
		</g>
	</g>
	<polygon class="st0" points="106.1,163.4 52,163.4 23.2,327.1 77.2,327.1 	"/>
	<g>
		<g>
			<defs>
				<rect id="SVGID_00000166653031379923144870000003770281823895464609_" y="0" width="490.7" height="331"/>
			</defs>
			<clipPath id="SVGID_00000023264793488396874760000007081522663244940461_">
				<use xlink:href="#SVGID_00000166653031379923144870000003770281823895464609_"  style="overflow:visible;"/>
			</clipPath>
			<g style="clip-path:url(#SVGID_00000023264793488396874760000007081522663244940461_);">
				<path class="st0" d="M303.2,248.8h-41.1c2.4-13.7,11.5-22.2,25-22.2C297.8,226.6,305.3,237.1,303.2,248.8 M290.9,195.6
					c-36.5,0-69.3,26.9-76.7,68.8c-7.6,43,16.5,66.4,53,66.4c26.5,0,57-10.5,70.4-42.2h-43.2c-4.6,7.6-11.8,11.2-18.9,11.2
					c-12,0-20.6-10-18-25.1h86.2c8.8-46.4-10.8-79.1-53-79.1"/>
				<path class="st0" d="M421,270.7c-2,17.6-9.7,31.5-25.5,31.5c-8.9,0-13.6-4.4-12.4-10.7C385.9,274.8,404.8,278.7,421,270.7
					 M422.2,195.7c-45,0-64.9,15.9-69.7,43H396c3-11,11.8-12.5,18-12.5c4.8,0,14.6,1.2,12.9,10.5c-4.2,23.9-80.6-2.5-90.8,55.6
					c-4.7,26.6,12.3,38.6,33.8,38.6c17,0,30.7-3.9,45.9-17.3l-0.2,13.7h46.7l0.4-2.4c-4.9-5.4-4.5-9-3.2-16.4l10.5-59.8
					C475.4,218.2,476.1,195.8,422.2,195.7"/>
			</g>
		</g>
	</g>
</g>
</svg>
