<?xml version="1.0" encoding="utf-8"?>
<!-- Generator: Adobe Illustrator 27.4.1, SVG Export Plug-In . SVG Version: 6.00 Build 0)  -->
<svg version="1.1" id="Layer_1" xmlns="http://www.w3.org/2000/svg" xmlns:xlink="http://www.w3.org/1999/xlink" x="0px" y="0px"
	 viewBox="0 0 841.9 595.3" style="enable-background:new 0 0 841.9 595.3;" xml:space="preserve">
<style type="text/css">
	.st0{fill:#FFFFFF;}
	.st1{clip-path:url(#SVGID_00000025439585529345103910000018379193203986071190_);fill:#FFFFFF;}
	.st2{clip-path:url(#SVGID_00000140728510994860835220000017824721687960482439_);fill:#FFFFFF;}
	.st3{clip-path:url(#SVGID_00000163073841755938139310000005013057476782640528_);fill:#FFFFFF;}
</style>
<polygon class="st0" points="385,374.9 374.1,374.9 374.1,372.4 398.9,372.4 398.9,374.9 388,374.9 388,402.1 385,402.1 "/>
<g>
	<defs>
		<rect id="SVGID_1_" x="190.6" y="231.8" width="457.8" height="180.7"/>
	</defs>
	<clipPath id="SVGID_00000042699383593320423850000013952958457513120911_">
		<use xlink:href="#SVGID_1_"  style="overflow:visible;"/>
	</clipPath>
	<path style="clip-path:url(#SVGID_00000042699383593320423850000013952958457513120911_);fill:#FFFFFF;" d="M411,387.2
		c0,1.8,0.3,3.4,0.9,4.9c0.6,1.5,1.5,2.8,2.6,4c1.1,1.1,2.5,2,4.1,2.6c1.6,0.6,3.4,1,5.4,1c2,0,3.8-0.3,5.4-1
		c1.6-0.6,2.9-1.5,4.1-2.6c1.1-1.1,2-2.4,2.6-4c0.6-1.5,0.9-3.2,0.9-4.9c0-1.8-0.3-3.4-0.9-4.9c-0.6-1.5-1.5-2.8-2.6-4
		c-1.1-1.1-2.5-2-4.1-2.6c-1.6-0.6-3.4-1-5.4-1c-2,0-3.8,0.3-5.4,1c-1.6,0.6-2.9,1.5-4.1,2.6c-1.1,1.1-2,2.4-2.6,4
		C411.3,383.8,411,385.5,411,387.2 M408.2,387.2c0-2.2,0.4-4.2,1.2-6c0.8-1.8,1.9-3.4,3.2-4.7c1.4-1.3,3-2.4,5-3.1
		c1.9-0.7,4.1-1.1,6.4-1.1c2.3,0,4.5,0.4,6.4,1.1c1.9,0.7,3.6,1.8,5,3.1c1.4,1.3,2.5,2.9,3.2,4.7c0.8,1.8,1.2,3.8,1.2,6
		c0,2.2-0.4,4.2-1.2,6c-0.8,1.8-1.9,3.4-3.2,4.7c-1.4,1.3-3,2.4-5,3.1c-1.9,0.7-4.1,1.1-6.4,1.1c-2.3,0-4.5-0.4-6.4-1.1
		c-1.9-0.7-3.6-1.8-5-3.1c-1.4-1.3-2.5-2.9-3.2-4.7C408.6,391.4,408.2,389.4,408.2,387.2"/>
</g>
<polygon class="st0" points="471.4,372.3 474.4,372.3 474.4,399.6 489.3,399.6 489.3,402.2 471.4,402.2 "/>
<g>
	<defs>
		<rect id="SVGID_00000018958684866882340480000004458406461004528558_" x="190.6" y="231.8" width="457.8" height="180.7"/>
	</defs>
	<clipPath id="SVGID_00000026146900698669948550000008039804633510002360_">
		<use xlink:href="#SVGID_00000018958684866882340480000004458406461004528558_"  style="overflow:visible;"/>
	</clipPath>
	<path style="clip-path:url(#SVGID_00000026146900698669948550000008039804633510002360_);fill:#FFFFFF;" d="M503.4,387.2
		c0,1.8,0.3,3.4,0.9,4.9c0.6,1.5,1.5,2.8,2.6,4c1.1,1.1,2.5,2,4.1,2.6c1.6,0.6,3.4,1,5.4,1c2,0,3.8-0.3,5.4-1
		c1.6-0.6,2.9-1.5,4.1-2.6c1.1-1.1,2-2.4,2.6-4c0.6-1.5,0.9-3.2,0.9-4.9c0-1.8-0.3-3.4-0.9-4.9c-0.6-1.5-1.5-2.8-2.6-4
		c-1.1-1.1-2.5-2-4.1-2.6c-1.6-0.6-3.4-1-5.4-1c-2,0-3.8,0.3-5.4,1c-1.6,0.6-3,1.5-4.1,2.6c-1.1,1.1-2,2.4-2.6,4
		C503.7,383.8,503.4,385.5,503.4,387.2 M500.5,387.2c0-2.2,0.4-4.2,1.2-6c0.8-1.8,1.9-3.4,3.2-4.7c1.4-1.3,3-2.4,5-3.1
		c1.9-0.7,4.1-1.1,6.4-1.1s4.5,0.4,6.4,1.1c1.9,0.7,3.6,1.8,5,3.1s2.5,2.9,3.2,4.7c0.8,1.8,1.2,3.8,1.2,6c0,2.2-0.4,4.2-1.2,6
		c-0.8,1.8-1.9,3.4-3.2,4.7c-1.4,1.3-3,2.4-5,3.1c-1.9,0.7-4.1,1.1-6.4,1.1s-4.5-0.4-6.4-1.1c-1.9-0.7-3.6-1.8-5-3.1
		c-1.4-1.3-2.5-2.9-3.2-4.7C500.9,391.4,500.5,389.4,500.5,387.2"/>
</g>
<polygon class="st0" points="543.3,372.3 546.5,372.3 556.8,398.5 567.2,372.3 570.4,372.3 558.2,402.2 555.3,402.2 "/>
<polygon class="st0" points="583,372.3 602.6,372.3 602.6,374.8 586,374.8 586,385.5 601.5,385.5 601.5,388 586,388 586,399.6 
	603.3,399.6 603.3,402.2 583,402.2 "/>
<g>
	<defs>
		<rect id="SVGID_00000137127753914886211040000015238202404253098666_" x="190.6" y="231.8" width="457.8" height="180.7"/>
	</defs>
	<clipPath id="SVGID_00000094608352978587149640000009968625078300851134_">
		<use xlink:href="#SVGID_00000137127753914886211040000015238202404253098666_"  style="overflow:visible;"/>
	</clipPath>
	<path style="clip-path:url(#SVGID_00000094608352978587149640000009968625078300851134_);fill:#FFFFFF;" d="M648.4,231.8
		c0,0-2.8,8.9-16.5,46.3l-29.1,80.4h-8.7L557.3,277L529,358.5h-9.3c-23.3-51.7-49.5-109.2-49.5-109.2c-6.3-12.6-13.8-13.7-18.3-14
		v-3.5h53.4l10.1,23.4l26.2,56.2l13.8-38.5c-4-8.9-10.8-23.7-10.8-23.7c-6.3-12.6-10.3-13.7-15.1-14v-3.5h49.4l10.9,23.4l25.9,56.2
		c0,0,14.9-31.7,14.2-54.1c-0.2-4.6-1-8.8-2.7-12.3c-2.9-5.7-8-9.9-17.6-9.7l-0.4-3.5H648.4z"/>
	<path style="clip-path:url(#SVGID_00000094608352978587149640000009968625078300851134_);fill:#FFFFFF;" d="M401,354.7
		c-12.3,0-22.2-26.6-22.2-59.5c0-23.8,4-44.2,11.6-53.7c2.9-3.6,7.3-5.8,10.7-5.8c3.4,0,7.6,0.8,10.5,4.5c7.5,9.6,11.7,31.3,11.7,55
		C423.2,328,413.2,354.7,401,354.7 M400.4,231.8c-42.8,0-64.4,28.5-64.4,63.4c0,34.6,21.5,63.4,64.4,63.4
		c43.1,0,64.4-28.8,64.4-63.4C464.8,260.3,443.5,231.8,400.4,231.8"/>
	<path style="clip-path:url(#SVGID_00000094608352978587149640000009968625078300851134_);fill:#FFFFFF;" d="M333.6,394.3
		c-11.7-13.4-11-45.3-11-45.3v-83.5c0-15.8-13.2-33.8-39.8-33.8c-22.1,0-33.2,18.4-36.3,24.6v-24.6c-27.4,13.9-55.9,11.3-55.9,11.3
		v2.2c10.3,4,13.1,7.8,13.1,17.2v65.6c0,14-0.3,25.3-9.8,28.2v2.2h63v-2.2c-9.1-2.7-10.3-13.5-10.3-28.2v-70.8
		c2.1-2.5,7.8-8.2,15.4-8.2c8.9,0,17.6,5.3,17.6,19.1v56.4v17.2c0,0-0.1,25.2,8.2,39.3c0,0,14.5,31.4,50.8,31.4
		c19.8,0,28.5-9,28.5-9C357,406.2,344.9,407.2,333.6,394.3"/>
</g>
</svg>
