<?xml version="1.0" encoding="utf-8"?>
<!-- Generator: Adobe Illustrator 27.4.1, SVG Export Plug-In . SVG Version: 6.00 Build 0)  -->
<svg version="1.1" id="Layer_1" xmlns="http://www.w3.org/2000/svg" xmlns:xlink="http://www.w3.org/1999/xlink" x="0px" y="0px"
	 viewBox="0 0 383.2 129.3" style="enable-background:new 0 0 383.2 129.3;" xml:space="preserve">
<style type="text/css">
	.st0{clip-path:url(#SVGID_00000093156297749496664450000004947860153199150502_);fill:#FFFFFF;}
	.st1{clip-path:url(#SVGID_00000080921868304530801980000004977783458856859563_);fill:none;}
	.st2{clip-path:url(#SVGID_00000157287383101733743600000010509849071203892157_);fill:#FFFFFF;}
	.st3{clip-path:url(#SVGID_00000018941508699190688510000014681135393995220635_);fill:none;}
</style>
<g>
	<g>
		<defs>
			<rect id="SVGID_1_" width="383.2" height="129.3"/>
		</defs>
		<clipPath id="SVGID_00000067227459782597034620000015450257402598395032_">
			<use xlink:href="#SVGID_1_"  style="overflow:visible;"/>
		</clipPath>
		<path style="clip-path:url(#SVGID_00000067227459782597034620000015450257402598395032_);fill:#FFFFFF;" d="M224.9,69.9
			c1.2-4,7.2-13.7,18.6-13.7s14.5,9.6,14.4,13.7H224.9z M276.6,89.5c4.3-15.9,3.6-29.7-3.9-41.3c-5.6-8.5-14.5-13.7-25.8-13.7
			c-22.5,0-42.2,22.2-46.1,46.3c-4,25.6,10.8,45.7,32,45.7c7.6,0,15.3-2.6,22.2-7.8c7.1-5,13.5-12.4,18.5-22.1h-22.6
			c-3.3,4.5-7.6,8.1-14.6,8.1c-8.7,0-15.2-6.1-14.6-15.2L276.6,89.5L276.6,89.5z M134.7,123.7h22.1l6.5-41.5l14.6,41.5h25
			l-19.3-48.3l33.8-37.9h-26.2l-25.7,31.2l9.5-60H153L134.7,123.7z M74.9,80.8c1.6-9.8,9.2-22.2,21.9-22.2c9.3,0,13.3,6.1,14.8,12
			c0.9,3.6,0.9,7.5,0.1,11.4c-0.9,3.9-2.4,7.6-4.8,11c-3.7,5.3-9.2,9.6-17,9.6c-13.3,0-16.1-13.7-14.9-21.6L74.9,80.8L74.9,80.8z
			 M140.9,37.4h-22.1l-1.5,9.2c-2.1-5.3-7.9-12.1-20-12.1c-19.7,0-40,17.7-44.4,46c-4,24.7,6.3,46.2,29.7,46.2
			c8.7,0,18.5-3.9,23.9-12.3l-1.5,9.3h22.1L140.9,37.4z M15.1,123.7h25.2l14.1-89.2h19.3l4.1-25.8H13.9L9.8,34.5h19.4L15.1,123.7z"
			/>
	</g>
	<g>
		<defs>
			<rect id="SVGID_00000041293521081360475970000017821779048484702394_" width="383.2" height="129.3"/>
		</defs>
		<clipPath id="SVGID_00000120533248496573091110000007000933280479443844_">
			<use xlink:href="#SVGID_00000041293521081360475970000017821779048484702394_"  style="overflow:visible;"/>
		</clipPath>
		<path style="clip-path:url(#SVGID_00000120533248496573091110000007000933280479443844_);fill:none;" d="M224.9,69.9
			c1.2-4,7.2-13.7,18.6-13.7s14.5,9.6,14.4,13.7H224.9z M276.6,89.5c4.3-15.9,3.6-29.7-3.9-41.3c-5.6-8.5-14.5-13.7-25.8-13.7
			c-22.5,0-42.2,22.2-46.1,46.3c-4,25.6,10.8,45.7,32,45.7c7.6,0,15.3-2.6,22.2-7.8c7.1-5,13.5-12.4,18.5-22.1h-22.6
			c-3.3,4.5-7.6,8.1-14.6,8.1c-8.7,0-15.2-6.1-14.6-15.2L276.6,89.5L276.6,89.5z M134.7,123.7h22.1l6.5-41.5l14.6,41.5h25
			l-19.3-48.3l33.8-37.9h-26.2l-25.7,31.2l9.5-60H153L134.7,123.7z M74.9,80.8c1.6-9.8,9.2-22.2,21.9-22.2c9.3,0,13.3,6.1,14.8,12
			c0.9,3.6,0.9,7.5,0.1,11.4c-0.9,3.9-2.4,7.6-4.8,11c-3.7,5.3-9.2,9.6-17,9.6c-13.3,0-16.1-13.7-14.9-21.6L74.9,80.8L74.9,80.8z
			 M140.9,37.4h-22.1l-1.5,9.2c-2.1-5.3-7.9-12.1-20-12.1c-19.7,0-40,17.7-44.4,46c-4,24.7,6.3,46.2,29.7,46.2
			c8.7,0,18.5-3.9,23.9-12.3l-1.5,9.3h22.1L140.9,37.4z M15.1,123.7h25.2l14.1-89.2h19.3l4.1-25.8H13.9L9.8,34.5h19.4L15.1,123.7z"
			/>
	</g>
	<g>
		<defs>
			<rect id="SVGID_00000059295411962016889610000006892029192578068896_" width="383.2" height="129.3"/>
		</defs>
		<clipPath id="SVGID_00000121964915232660983910000018119945279441556614_">
			<use xlink:href="#SVGID_00000059295411962016889610000006892029192578068896_"  style="overflow:visible;"/>
		</clipPath>
		<path style="clip-path:url(#SVGID_00000121964915232660983910000018119945279441556614_);fill:#FFFFFF;" d="M309.5,9.5l-22.2,65.7
			l22.9,6c5-7.8,11.3-10,17.1-10c10.3,0,14.4,7.7,13,15.2c-1.6,8.5-10,15.4-18.5,15.4c-6.1,0-10.3-3.6-12.2-7.2h-29.8
			c0,18.3,13,33.4,37.9,33.4c31.2,0,49.1-24.5,52.3-42.2c3-16-4.1-38.9-31.5-38.9c-9.1,0-12.8,1.7-16.3,3.5l5.5-15.8H369l4.5-24.9
			H309.5z"/>
	</g>
	<g>
		<defs>
			<rect id="SVGID_00000064344742897741735620000003364711609175517604_" width="383.2" height="129.3"/>
		</defs>
		<clipPath id="SVGID_00000023989079930516766950000006282712998435291798_">
			<use xlink:href="#SVGID_00000064344742897741735620000003364711609175517604_"  style="overflow:visible;"/>
		</clipPath>
		<path style="clip-path:url(#SVGID_00000023989079930516766950000006282712998435291798_);fill:none;" d="M309.5,9.5l-22.2,65.7
			l22.9,6c5-7.8,11.3-10,17.1-10c10.3,0,14.4,7.7,13,15.2c-1.6,8.5-10,15.4-18.5,15.4c-6.1,0-10.3-3.6-12.2-7.2h-29.8
			c0,18.3,13,33.4,37.9,33.4c31.2,0,49.1-24.5,52.3-42.2c3-16-4.1-38.9-31.5-38.9c-9.1,0-12.8,1.7-16.3,3.5l5.5-15.8H369l4.5-24.9
			H309.5z"/>
	</g>
</g>
</svg>
