<?xml version="1.0" encoding="utf-8"?>
<!-- Generator: Adobe Illustrator 27.4.1, SVG Export Plug-In . SVG Version: 6.00 Build 0)  -->
<svg version="1.1" id="Layer_1" xmlns="http://www.w3.org/2000/svg" xmlns:xlink="http://www.w3.org/1999/xlink" x="0px" y="0px"
	 viewBox="0 0 788 164.1" style="enable-background:new 0 0 788 164.1;" xml:space="preserve">
<style type="text/css">
	.st0{fill:#FFFFFF;}
</style>
<path class="st0" d="M54.3,134.1c-10,0-9.8-7.7-8.9-12.4l8.6-42.9H76l5.4-26.1H56.9l5.9-28.3H33.2l-8.5,28.3H4.9L0,78.8h18.2
	L8.9,125c-0.8,3.6-1.3,7.3-1.4,11c0,16.1,8.2,28.2,29.4,28.2c7.8,0.1,15.5-1.5,22.6-4.7l6.3-28.9C62.4,133,58.4,134.2,54.3,134.1z"
	/>
<path class="st0" d="M286.3,126.4l14.9-73.7h-28.7l-9.3,11.7c-11.7-13.3-25.4-13.8-29.9-13.8c-21.4,0-41.4,15-51.9,36.4
	c0.2-3.4,0.4-4,0.4-5.6c0-24.7-18.4-30.8-29.9-30.8c-16.8,0-27.3,10.3-34.3,17.3l-0.4-0.5l13-64.8H94.4l-31.2,159h35.4l9.6-47.1
	c3.5-18.4,15.2-32.9,28-32.9c4.2,0,8.9,2.6,8.9,9.6c-0.1,1.7-0.4,3.4-0.7,5.1l-13.1,65.3H167l7.3-35.7c2.1,21,14.7,38.3,36.5,38.3
	c17.3,0,28.7-11,36.6-18.4c0,5.1,0,9.3,2.6,15.9h37.3c-1.6-4.2-2.8-7.7-2.8-17.5C284.5,138.1,285.1,132.2,286.3,126.4z M226.4,134.1
	c-9.1,0-15.2-7.5-15.2-19.3c0-19.8,14.9-35.9,30.1-35.9c8.6,0,13.3,4.7,16.8,7.9C253,128.5,232.7,134.1,226.4,134.1L226.4,134.1z"/>
<path class="st0" d="M333.4,121.7l8.6-42.9h21.9l5.4-26.1h-24.5l5.9-28.3h-29.6l-8.5,28.3h-8.5l-4.9,26.1h6.9l-9.3,46.2
	c-0.8,3.6-1.3,7.3-1.4,11c0,16.1,8.2,28.2,29.4,28.2c7.8,0.1,15.5-1.5,22.6-4.7l6.3-28.9c-3.3,2.3-7.3,3.6-11.4,3.5
	C332.2,134.1,332.5,126.4,333.4,121.7z"/>
<path class="st0" d="M368.6,86c0,16.8,12.8,23.1,18.6,25.9c3,1.4,5.4,2.1,11.2,4c11.4,3.5,15.4,6.1,15.4,11c0,6.5-7.7,10-15.4,10
	c-17,0-32.2-11-37.5-15.2l-6.1,29.6c9.1,4.9,23.8,12.8,44.1,12.8c29.9,0,54.3-16.1,54.3-38.9c0-21-19.8-27-30.3-29.8
	c-13.1-3.5-15.4-6.1-15.4-9.6c0-5.1,6.5-7.9,13.1-7.9c12.6,0,24.2,7.2,33.1,13.1l5.8-29c-18.6-10.5-34-11.4-42-11.4
	C388.9,50.6,368.6,65.8,368.6,86z"/>
<polygon class="st0" points="500.9,2.6 468.5,161.6 504.6,161.6 537,2.6 "/>
<path class="st0" d="M729.5,85.3c0-18-16.3-35-47.6-35c-22,0-40.7,9.3-52.8,23.6l4.3-20.8h-21.9c0.2-1.9,0.2-2.1,0.5-3.7
	c2.6-10.7,4.7-19.3,15.2-19.3c4.7,0,7.7,1.4,10.5,2.3l5.8-28c-7.9-2.8-16.3-4.3-24.7-4.4c-15.9,0-24,7.5-27.8,11
	c-6.8,7.2-9.3,11.7-13.3,30.3c-1.2,5.8-1.9,7.7-2.6,11.9h-42.4L511,161.6h36.1L564,79.3h6.5l-17,82.3h35.9l16.8-82.3h19
	c-6.8,10-10.4,21.8-10.4,33.8c0,23.8,14.9,51.1,54.8,51.1c17.7,0,30.3-5.1,41.5-9.8l6.8-33.8c-9.8,6.3-24,15.4-41,15.4
	c-5.1,0-20.5-1.2-26.1-18.9h29.6C695,117,729.5,116.8,729.5,85.3z M652.8,95.8c9.1-21.9,25-21.9,28-21.9c6.1,0,15.2,2.8,15.2,11
	c0,9.8-11.7,11-18.9,11L652.8,95.8L652.8,95.8z"/>
<polygon class="st0" points="749.1,2.6 731.8,113.3 760.8,113.3 788,2.6 "/>
<path class="st0" d="M384.5,47.5c-2.7,2.9-5.5,5.7-8.5,8.3h6.5c1.6-1,5.9-4.5,7.6-5.8c1.6-1.2,3.2-2.6,4.6-4.1
	c1.4-1.4,2.7-2.9,3.9-4.6c0.1-0.2,0.2-0.3,0.3-0.5c1.1-1.4,2-3,2.5-4.7c1.7-6.3-3-11.3-10.4-11.3s-14.8,5.1-16.5,11.3
	S377.2,47.3,384.5,47.5z"/>
<path class="st0" d="M555.5,42.4c10,0,17.9-7.8,17.9-17c0-8.6-7.1-17-18.3-17c-8.8,0-17.5,7.1-17.5,17
	C537.6,34.9,545.5,42.4,555.5,42.4z"/>
<path class="st0" d="M740.8,129.6c-8.8,0-17.5,7.1-17.5,17c0,9.4,8,17,17.9,17s17.9-7.8,17.9-17C759.1,138,752,129.6,740.8,129.6z"
	/>
</svg>
