<?xml version="1.0" encoding="utf-8"?>
<!-- Generator: Adobe Illustrator 27.4.1, SVG Export Plug-In . SVG Version: 6.00 Build 0)  -->
<svg version="1.1" id="Layer_1" xmlns="http://www.w3.org/2000/svg" xmlns:xlink="http://www.w3.org/1999/xlink" x="0px" y="0px"
	 viewBox="0 0 198.4 175.8" style="enable-background:new 0 0 198.4 175.8;" xml:space="preserve">
<style type="text/css">
	.st0{fill:#FFFFFF;}
</style>
<path class="st0" d="M35.5,112l4.8,29.6h0.3c0.3-3,0.6-6.2,1.2-9.1l4-20.5h10.5l5.2,29.6h0.3c0.2-2.9,0.4-5.9,0.9-8.8l3.8-20.9h14.3
	l-13.3,49.6h-12l-4.3-27h-0.5c-0.2,2.6-0.2,5.1-0.7,7.5l-3.8,19.5H34.5L21.3,112H35.5z"/>
<polygon class="st0" points="81.4,161.6 81.4,112 106.8,112 106.8,125.5 95.2,125.5 95.2,130.3 105.8,130.3 105.8,143.2 95.2,143.2 
	95.2,148 107.2,148 107.2,161.6 "/>
<polygon class="st0" points="110.3,161.6 110.3,112 135.7,112 135.7,125.5 124.1,125.5 124.1,130.3 134.7,130.3 134.7,143.2 
	124.1,143.2 124.1,148 136.1,148 136.1,161.6 "/>
<path class="st0" d="M139.1,112h13.4l-0.3,21.5h0.3c0.3-2,1.2-3.8,1.9-5.6L161,112h15l-11.8,24.1l13.1,25.5h-15.9l-6.5-15
	c-0.8-1.9-2-3.7-2.3-5.8h-0.3l0.3,20.8h-13.4V112z"/>
<polygon class="st0" points="38,104.3 38,42.6 21.3,43.5 21.3,14.2 85.1,14.2 85.1,43.5 68.4,42.6 68.4,104.3 "/>
<path class="st0" d="M177.2,14.2l-32.4,90.1H119L86.7,14.2h31.7l11.1,41c1.2,4.4,2.1,8.8,2.1,13.4h0.7c0-4.5,0.9-9,2.1-13.4l11.1-41
	H177.2z"/>
</svg>
