<?xml version="1.0" encoding="utf-8"?>
<!-- Generator: Adobe Illustrator 27.4.1, SVG Export Plug-In . SVG Version: 6.00 Build 0)  -->
<svg version="1.1" id="Layer_1" xmlns="http://www.w3.org/2000/svg" xmlns:xlink="http://www.w3.org/1999/xlink" x="0px" y="0px"
	 viewBox="0 0 79 18" style="enable-background:new 0 0 79 18;" xml:space="preserve">
<style type="text/css">
	.st0{fill:#FFFFFF;}
</style>
<g id="Page-1">
	<g id="WD-logo">
		<path id="path-1" class="st0" d="M79.02,4.08h-2.9l-1.39,3.9c-0.36,0.88-0.75,2.41-0.75,2.41c-0.01-0.66-0.03-0.98-0.07-1.4
			l-0.72-4.92h-2.77l1.49,6.88c0.15,0.75,0.57,2.12,0.39,2.85l-0.02,0.05c-0.55,1.11-1.02,1.35-2.8,1.8l0.77,2.1
			c2.03-0.24,3.38-1.1,4.65-3.97L79.02,4.08z M67.73,9.73l-0.19,1.69c-0.12,0.15-0.46,0.32-0.71,0.32c-0.49,0-0.75-0.38-0.69-0.94
			C66.2,10.24,66.53,9.73,67.73,9.73z M69.08,14.14l1.85-1.81c-0.54-0.43-0.54-1.09-0.45-1.9l0.4-3.34c0.08-0.71,0.1-1.07,0.03-1.5
			c-0.18-1.14-1.25-1.76-2.87-1.76c-1.29,0-2.58,0.52-3.66,1.17c0.4,0.99,0.36,1.02,0.77,2.02c0.7-0.5,1.42-0.81,2.26-0.81
			c0.63,0,0.65,0.34,0.59,0.9l-0.07,0.6C67.87,7.7,67.59,7.7,67.47,7.7c-2.37,0-3.92,1.31-4.12,3.15c-0.19,1.72,0.46,3.15,2.56,3.15
			c1.01,0,1.76-0.41,2.22-0.81C68.23,13.48,68.69,13.99,69.08,14.14z M61.44,7.02c-0.4,3.37-1.06,4.07-1.96,4.15h-0.93l0.9-8.4h0.85
			C61.39,2.83,61.89,3.36,61.44,7.02z M64.25,7.03c0.29-2.61,0.22-5-1.01-6.01c-0.76-0.67-1.75-0.78-2.47-0.78H57.1l-1.47,13.51
			h3.76c1.4,0,2.29-0.53,3.05-1.45C63.53,11,64.04,8.9,64.25,7.03z M53.94,10.54c0.17-1.52-0.32-2.46-1.73-2.83l-0.99-0.26
			c-0.65-0.17-0.81-0.43-0.78-0.77c0.04-0.32,0.35-0.54,0.78-0.54c0.54,0,1.19,0.21,1.95,0.71l1.09-2.03
			c-0.75-0.41-1.52-0.99-3.14-0.99c-2.06,0-3.53,1.31-3.75,3.3C47.2,8.5,47.7,9.45,48.99,9.77l1.04,0.26
			c0.79,0.21,1.05,0.36,0.99,0.88c-0.04,0.36-0.45,0.73-0.94,0.73c-0.81,0-2.06-0.84-2.56-1.24l-1.24,2.36
			c1.16,0.77,2.26,1.22,3.44,1.22C52.02,13.99,53.7,12.64,53.94,10.54z M48.89,2.99c0.13-1.14-0.3-1.83-1.15-1.83
			c-0.65,0-1.22,0.55-1.3,1.28c-0.04,0.4-0.02,0.69,0.22,1.01c0.2,0.26,0.37,0.26,0.34,0.58c-0.03,0.27-0.37,0.57-0.92,0.7
			l0.73,0.86c0.58-0.15,1.12-0.58,1.4-0.91C48.55,4.23,48.81,3.66,48.89,2.99z M45.19,13.75L46,6.49c0.15-1.33-0.1-2.66-2.09-2.66
			c-1.12,0-1.94,0.45-2.56,0.92c0.02-0.3-0.02-0.67-0.06-0.9l-2.69,0.51c0.1,1.03,0.03,2.08-0.1,3.24l-0.68,6.15h2.86l0.74-6.67
			c0.44-0.39,0.79-0.56,1-0.56c0.41,0,0.71,0,0.59,1.05l-0.69,6.18L45.19,13.75L45.19,13.75z M34.69,9.73l-0.19,1.69
			c-0.11,0.15-0.46,0.32-0.71,0.32c-0.49,0-0.75-0.38-0.69-0.94C33.17,10.24,33.49,9.73,34.69,9.73z M36.04,14.14l1.85-1.81
			c-0.54-0.43-0.54-1.09-0.45-1.9l0.4-3.34c0.08-0.71,0.1-1.07,0.03-1.5c-0.18-1.14-1.25-1.76-2.87-1.76
			c-1.34,0-2.72,0.59-3.83,1.28C31.5,5.92,31.51,5.95,32,7.12c0.75-0.56,1.49-0.91,2.39-0.91c0.63,0,0.65,0.34,0.59,0.9l-0.07,0.6
			c-0.08-0.02-0.36-0.02-0.47-0.02c-2.37,0-3.92,1.31-4.12,3.15c-0.19,1.73,0.46,3.15,2.56,3.15c1,0,1.76-0.41,2.21-0.81
			C35.2,13.48,35.65,13.99,36.04,14.14z M30.16,13.75l0.78-7.05c0.27-2.42-0.8-2.87-1.99-2.87c-0.99,0-1.8,0.36-2.56,1.05
			c-0.38-0.62-0.89-1.05-1.79-1.05c-0.72,0-1.5,0.36-2.16,0.96c0.02-0.36-0.02-0.6-0.06-0.94l-2.69,0.5c0.1,1.03,0.03,2.08-0.1,3.25
			l-0.68,6.15h2.78l0.78-7.03c0.25-0.21,0.7-0.38,0.96-0.38c0.54,0,0.56,0.13,0.42,1.41l-0.67,6h2.69l0.78-6.97
			c0.32-0.21,0.78-0.38,0.96-0.38c0.49,0,0.6,0.08,0.46,1.37l-0.67,5.98L30.16,13.75L30.16,13.75z M15.85,6.1
			c0.68,0,0.85,0.54,0.63,2.47c-0.26,2.31-0.56,3.13-1.24,3.13c-0.81,0-0.81-0.83-0.6-2.7C14.91,6.61,15.27,6.1,15.85,6.1z
			 M16.23,3.83c-2.49,0-4.33,2.1-4.67,5.12c-0.36,3.2,0.94,5.04,3.38,5.04c2.03,0,4.22-1.5,4.64-5.32
			C19.96,5.2,18.32,3.83,16.23,3.83z M14.44,0.26h-3.01L10.24,4.7C9.9,5.87,9.33,8.11,9.15,9.19H9.13c0.1-1.47,0.03-2.54-0.02-3.45
			L8.84,0.26H6.29L5.02,5.05C4.54,6.83,4.2,8.24,4.03,9.2H4.01C4.05,8.75,4.09,7.67,3.9,4.96l-0.31-4.7H0.77l1.28,13.49h2.9
			l0.94-3.49c0.43-1.57,0.83-3.18,0.93-3.78h0.02c-0.04,0.76,0.02,2.33,0.08,3.78l0.15,3.49H9.9L14.44,0.26z"/>
	</g>
</g>
</svg>
