<?xml version="1.0" encoding="utf-8"?>
<!-- Generator: Adobe Illustrator 27.4.1, SVG Export Plug-In . SVG Version: 6.00 Build 0)  -->
<svg version="1.1" id="Layer_1" xmlns="http://www.w3.org/2000/svg" xmlns:xlink="http://www.w3.org/1999/xlink" x="0px" y="0px"
	 viewBox="0 0 841.9 595.3" style="enable-background:new 0 0 841.9 595.3;" xml:space="preserve">
<style type="text/css">
	.st0{fill:#FFFFFF;}
</style>
<g>
	<path class="st0" d="M477.1,168.3h19.2l4.8,11.5h5l-17-41.1h-4.4l-17.2,41.1h4.9L477.1,168.3L477.1,168.3z M494.8,164.6h-16.4
		l8.2-20.6L494.8,164.6L494.8,164.6z M510.4,138.8v26c0,4.5,0.3,9.2,4.7,12.7c2.6,2.3,6.2,3.1,9,3.1c3.6,0,6.6-1.2,8.9-3.1
		c4.1-3.2,4.7-7.9,4.7-12.7v-26h-4.6v26c0,3.2,0,5.6-1.9,8.3c-1.4,2.1-4.1,3.4-7,3.4c-3,0-5.7-1.4-7.2-3.4c-1.9-2.8-1.9-5.2-1.9-8.3
		v-26H510.4L510.4,138.8z M543.8,168.4c0.3,7.8,6,12.2,12.9,12.2c7.7,0,12.7-5.3,12.7-12c0-7.5-6.1-9.7-10-11.2
		c-6.2-2.1-10.3-3.3-10.2-8.3c0-4.3,3.4-7,7.5-7c5.4,0,6.8,4.1,7.3,6.7h4.6c-0.7-7.8-6.6-10.6-11.7-10.6c-6.3,0-12.3,4.1-12.2,11.3
		c0,7.8,7.2,9.9,10.5,10.9c4.8,1.6,9.7,2.8,9.7,8.6c0,4.6-3.9,7.8-8.2,7.8c-2.6,0-7.5-1.4-8.2-8.3L543.8,168.4L543.8,168.4z
		 M582,179.9h4.6v-37h10.2v-4.1h-24.9v4.1H582V179.9L582,179.9z M600.9,179.9h4.6v-37h6.4c3.7,0,6.3,0.2,8.3,1.5
		c2.6,1.7,4.1,4.9,4.1,7.9c0,2.9-0.9,5.4-3.1,7.5c-2.2,2.1-6.2,2.1-9.1,2.1h-1.3l11.6,17.9h5l-10.2-15.4c3.8-0.4,6.7-1.2,9.2-4.5
		c1.7-2.3,2.5-5.3,2.4-8c0-4.7-2.3-9-5.6-11c-2.1-1.3-5.1-2.1-11.5-2.1H601v41.1H600.9z M639.8,168.3H659l4.8,11.5h5l-17-41.1h-4.4
		l-17.2,41.1h4.9L639.8,168.3L639.8,168.3z M657.6,164.6h-16.4l8.2-20.6L657.6,164.6L657.6,164.6z M673.4,179.9h20.3v-4.1H678v-37
		h-4.6V179.9L673.4,179.9z M697.9,179.9h4.6v-41.1h-4.6V179.9L697.9,179.9z M716.8,168.3H736l4.8,11.5h5l-17-41.1h-4.4l-17.2,41.1
		h4.9L716.8,168.3L716.8,168.3z M734.5,164.6h-16.4l8.2-20.6L734.5,164.6L734.5,164.6z"/>
	<path class="st0" d="M667.3,458.3c-60.8,0-93-49.6-93-127.5c0-88.5,32.2-129.5,93.5-129.5c69,0,91.6,52.6,91.6,127.5
		c0,106.7-57.7,129.5-91.6,129.5H667.3L667.3,458.3z M668.2,399.6c20.3,0,19.5-34.9,19.5-70.3c0-32.9,1.5-69.3-20.5-69.3
		c-22.6,0-22.3,36.4-22.3,69.3c0,43,1.8,70.3,22.8,70.3L668.2,399.6L668.2,399.6z"/>
	<polygon class="st0" points="195.2,138.8 257.9,138.8 285.9,339.8 304.5,138.8 371.6,138.8 326.1,454.9 250.1,454.9 226.2,280.1 
		203.1,454.9 127,454.9 81.5,138.8 148.2,138.8 170.3,339.8 	"/>
	<path class="st0" d="M378.9,138.8H451v92.5l0.9-1.6c5.6-8,11.8-13,19.7-18.1c8.8-5.2,20.7-7.4,31.4-7.4
		c56.2,0,60.5,41.9,60.5,100.8v150.8h-72.1V302.6c0-19.8-3.3-37.2-19.1-37.2c-7.4,0-14.4,3.3-18.6,15.5c-0.9,3.3-2.8,12.2-2.8,17.4
		v157.4h-72.1V138.8H378.9z"/>
</g>
</svg>
